<?xml version="1.0" encoding="UTF-8"?>
<svg id="Camada_1" data-name="Camada 1" xmlns="http://www.w3.org/2000/svg" viewBox="0 0 22 22">
  <defs>
    <style>
      .cls-1 {
        fill: #53507f;
      }
    </style>
  </defs>
  <path id="Caminho_1031" data-name="Caminho 1031" class="cls-1" d="m21.42900085449,3.345001220703c.75505065918-.776435852051.737724304199-2.017951965332-.038711547852-2.773002624512-.76114654541-.740188598633-1.97314453125-.740188598633-2.73429107666,0l-7.656997680664,7.654998779297L3.344001770018.571998596191C2.567565917967-.183052062988,1.326049804686-.165725708008.570999145506.610710144043-.169189453127,1.371856689453-.169189453127,2.583854675293.570999145506,3.345001220703l7.654998779297,7.654998779297L.570999145506,18.654998779297c-.75505065918.776435852051-.737724304199,2.017951965332.038711547852,2.773002624512.76114654541.740188598633,1.97314453125.740188598633,2.73429107666,0l7.654998779297-7.654998779297,7.654998779297,7.654998779297c.776435852051.75505065918,2.017951965332.737724304199,2.773002624512-.038711547852.740188598633-.76114654541.740188598633-1.97314453125,0-2.73429107666l-7.652000427246-7.653999328613,7.653999328613-7.65599822998Z"/>
</svg>