<?xml version="1.0" encoding="UTF-8"?>
<svg id="Camada_1" data-name="Camada 1" xmlns="http://www.w3.org/2000/svg" viewBox="0 0 26 26">
  <defs>
    <style>
      .cls-1 {
        fill: #fff;
      }

      .cls-2 {
        fill: #b54a4a;
      }
    </style>
  </defs>
  <g id="Grupo_885" data-name="Grupo 885">
    <g id="Grupo_175" data-name="Grupo 175">
      <circle id="Elipse_1-2" data-name="Elipse 1-2" class="cls-2" cx="13" cy="13" r="13"/>
    </g>
    <path id="Caminho_444" data-name="Caminho 444" class="cls-1" d="m19.310890197754,8.413940854371c.458396911621-.453857421875.46208190918-1.193382263184.008224487305-1.651779174805-.002731323242-.002754211426-.005470275879-.005500793457-.008224487305-.008224487305-.466369628906-.456069946289-1.211631774902-.456069946289-1.678001403809,0l-4.634002685547,4.583999633789-4.634002685547-4.583999633789c-.466369628906-.456069946289-1.211631774902-.456069946289-1.678001403809,0-.458396911621.453857421875-.46208190918,1.193382263184-.008224487305,1.651779174805.002731323242.002754211426.005470275879.005500793457.008224487305.008224487305l4.634002685547,4.583999633789-4.632995605469,4.585998535156c-.458396911621.453857421875-.46208190918,1.193382263184-.008224487305,1.651779174805.002731323242.002754211426.005470275879.005500793457.008224487305.008224487305.466369628906.456069946289,1.211631774902.456069946289,1.678001403809,0l4.634002685547-4.583999633789,4.638000488281,4.583999633789c.466369628906.456069946289,1.211631774902.456069946289,1.678001403809,0,.458396911621-.453071594238.462715148926-1.191963195801.009643554688-1.650360107422-.003196716309-.003234863281-.006408691406-.006446838379-.009643554688-.009643554688l-4.634002685547-4.583999633789,4.628997802734-4.585998535156Z"/>
  </g>
</svg>