<?xml version="1.0" encoding="UTF-8"?>
<svg id="Camada_1" data-name="Camada 1" xmlns="http://www.w3.org/2000/svg" xmlns:xlink="http://www.w3.org/1999/xlink" viewBox="0 0 313 468">
  <defs>
    <style>
      .cls-1 {
        fill: none;
      }

      .cls-2 {
        fill: #f5f5f5;
      }

      .cls-3 {
        fill: #fff;
      }

      .cls-4 {
        fill: #e0e0e0;
      }

      .cls-5 {
        fill: #e2ae74;
      }

      .cls-6 {
        fill: #263238;
      }

      .cls-7 {
        fill: #494672;
      }

      .cls-8 {
        clip-path: url(#clippath-1);
      }
    </style>
    <clipPath id="clippath-1">
      <rect class="cls-1" x="4.546979409595" y="4.997412773163" width="291.931973888606" height="451.884015602752" transform="translate(-6.896332021722 4.644299547044) rotate(-1.728219216279)"/>
    </clipPath>
  </defs>
  <rect class="cls-7" x="15.504268909284" y="11.913916060182" width="289.133906820763" height="450.397016223245" rx="16.235051216787" ry="16.235051216787" transform="translate(-8.23197308525 5.770399610688) rotate(-2.013466949977)"/>
  <g id="Grupo_853" data-name="Grupo 853">
    <g id="Grupo_794" data-name="Grupo 794">
      <g id="Grupo_30-2" data-name="Grupo 30-2">
        <g class="cls-8">
          <g id="Grupo_30-3" data-name="Grupo 30-3">
            <path id="Caminho_63-2" data-name="Caminho 63-2" class="cls-3" d="m271.430283226919,2.191305815534L18.276688291597,9.502501359588C8.950495213783,9.76897680384,1.606142782653,17.545371039726,1.87261823942,26.871564594031c.000104995019.003674449703.000211123628.007346957726.00031856038.011021333756l3.170743653303,109.827790573413c.269917765092,9.330685283503,8.052467718726,16.676048463173,17.383171085572,16.406666815076l253.150593265045-7.311109119662c9.329986675924-.268795410412,16.675553478921-8.050159995339,16.406742592562-17.38015383423l-.000060950624-.002020087692-3.170677975282-109.825791610616c-.498346607943-11.191561161291-8.052463752707-16.67604345649-17.383165243458-16.406662848542"/>
            <path id="Caminho_64-2" data-name="Caminho 64-2" class="cls-2" d="m282.880670302082,452.689400976483l-250.035204496598,7.217110779632c-10.190280580475.294767687153-18.690092190238-7.727136820958-18.984861459092-17.917421168665l-.000000653705-.000030499925L4.568630605118,120.236588068586l286.939515590842-8.284590219967,9.290981317065,321.752487785841c.294235508309,10.190849806145-7.728553573388,18.690677862115-17.919403379534,18.984913370425l-.000030491889.00000092001"/>
            <rect id="Retângulo_46-2" data-name="Retângulo 46-2" class="cls-4" x="6.326176331432" y="117.081856881485" width="216.045342368099" height="71.081477530451" transform="translate(-4.358193167549 3.364583726628) rotate(-1.654221719948)"/>
            <path id="Caminho_65-2" data-name="Caminho 65-2" class="cls-5" d="m285.857254448649,452.734601981413c9.296119897816-.28972644532,16.330040343377-7.255640826469,15.703162645772-17.828981228442l-10.055356267549-322.956531779833-70.204537234746,2.029223964332,9.825684626554,340.203624904081,54.731046229968-1.447335860138Z"/>
            <path id="Caminho_66-2" data-name="Caminho 66-2" class="cls-6" d="m295.560892920885,183.012600918676c.008772737254.290754997369-64.90797892688,2.400450792815-144.977693575727,4.71132841572-80.096609528202,2.314689386486-145.014540676473,3.954388855715-145.023343562003,3.662634653413-.008802885532-.291754202301,64.894989380968-2.400058898577,144.993686570306-4.711811012771,80.067566695199-2.315813171065,144.998638122233-3.950908792751,145.007350567425-3.662152056362"/>
            <path id="Caminho_67-2" data-name="Caminho 67-2" class="cls-6" d="m295.557612308474,252.129341148375c.008772737254.290754997369-64.907978926882,2.400450792815-144.978684562144,4.711358316027-80.095618541785,2.314659486179-142.487826227189,3.966627993909-142.49662911272,3.674873791608-.00880288553-.291754202301,62.369265918102-2.41232793708,142.467963107438-4.724080051274,80.067566695199-2.315813171066,144.998638122235-3.95090879275,145.007350567426-3.662152056361"/>
            <path id="Caminho_68-2" data-name="Caminho 68-2" class="cls-6" d="m297.671041029884,325.323549759622c.008772737252.290754997369-64.90797892688,2.400450792815-144.978684562146,4.711358316027-80.095618541782,2.31465948618-141.956782712794,3.969207608588-141.965585598326,3.677453406289s61.838222403709-2.414907551762,141.936919593045-4.726659665955c80.067566695201-2.315813171065,144.998577828375-3.952907113284,145.007350567426-3.662152056361"/>
            <path id="Caminho_69-2" data-name="Caminho 69-2" class="cls-6" d="m299.667735901279,394.449974649488c.008772737252.290754997369-64.90797892688,2.400450792815-144.978684562146,4.711358316027-80.095708983023,2.311661990492-142.28923696918,3.967592667711-142.298039854712,3.675838465409s62.170676660093-2.41329261088,142.269373849431-4.725044725073c80.067566695199-2.315813171067,144.998577828374-3.952907113287,145.007350567426-3.662152056364"/>
            <path id="Caminho_70-2" data-name="Caminho 70-2" class="cls-6" d="m75.101105695248,400.933633801911c-.290755056923.008772739052-2.346199322283-63.010484911124-4.588471472525-140.740115419789-2.247021689131-77.754463721631-3.831410352166-140.772937594686-3.540655295243-140.781710333736.29075499737-.008772737253,2.342810017581,62.997589618835,4.588863456092,140.753104963005,2.246178051271,77.726506473406,3.831018368597,140.75994805147,3.540263311676,140.768720790519"/>
            <path id="Caminho_71-2" data-name="Caminho 71-2" class="cls-6" d="m157.866066022827,456.430389854351c-.326724737188.009858025827-2.784863006502-75.958150628329-5.488867993896-169.653907030565-2.709087929583-93.73163911328-4.638037818469-169.694594172371-4.311313051505-169.704452199097.326724766966-.009858026726,2.784319770715,75.940145166563,5.489320178525,169.668893794353,2.707184155164,93.701688110112,4.637585574286,169.67960741038,4.310860866875,169.68946543531"/>
            <path id="Caminho_72-2" data-name="Caminho 72-2" class="cls-6" d="m231.12626637846,454.183950383538c-.32672473719.009858025827-2.783927356921-75.927140376504-5.489845579123-169.586871646385-2.704096068326-93.698775099316-4.632111487423-169.630758020543-4.305386720456-169.64061604727.326724766965-.009858026726,2.783385271146,75.909173029598,5.48739091877,169.604952301649,2.703859210826,93.657779098121,4.634566147775,169.61267736528,4.307841380809,169.622535392005"/>
            <path id="Caminho_73-2" data-name="Caminho 73-2" class="cls-6" d="m46.589664045685,215.3032459235l.069548823791,2.305057987424-8.975998296304,21.69727894481-3.592124854909.103383048343,8.788616495067-21.046582903349-10.84528520367.313226661506.119950139286,4.240668469653-3.252561652427.088136726397-.206764405482-7.18424928398,17.89461895465-.516919650805Z"/>
            <path id="Caminho_74-2" data-name="Caminho 74-2" class="cls-6" d="m120.405056678494,230.198238373006c.124877774697,4.304524978569-3.460391588567,7.087881393052-9.255660290291,7.257738284578-5.759449520005.163774738239-9.465490973129-2.414588618193-9.588128408337-6.711179322548-.121625534361-2.624513596486,1.511542839064-5.011593153214,4.001801824084-5.849132665653-2.088694253533-.78825628533-3.470424937987-2.78820492811-3.468709637713-5.020689807921-.114687275969-3.966808744285,3.241838964494-6.542250667741,8.355772051185-6.688549076353,5.151901206596-.147443992842,8.6806949697,2.224252472374,8.795413224114,6.192060277326.114927976785,2.236093733171-1.162533713868,4.31099824514-3.210873313754,5.21522656643,2.742520609951.972323814955,4.287659672682,2.895837381453,4.369387847068,5.604555816949m-3.393158261946.002372109596c-.073808018888-2.611950701873-2.426007441703-4.171089255833-6.188987940826-4.062553012945s-5.946111526611,1.799517449476-5.877299442027,4.411617936271c.080733299197,2.67574526827,2.362078149104,4.273025313089,6.126058152988,4.164457005399s6.018055186083-1.834690383866,5.940259302673-4.512525225081m-11.558237199944-10.289981585024c.070543662981,2.338029961701,2.041934241655,3.738647726028,5.294194909307,3.640519650585,3.288380877269-.094217450378,5.245801243944-1.609376363967,5.181221951219-3.948586279594-.066572762926-2.372152476109-2.213844978549-3.768463488178-5.397254401261-3.675413035348s-5.146733393838,1.611387477617-5.078162459266,3.983479664357"/>
            <path id="Caminho_75-2" data-name="Caminho 75-2" class="cls-6" d="m195.074615982261,220.635785037924c.231411130115,8.100568140475-4.221010839512,12.571200496564-10.860627887558,12.764532346923-2.052869499512.134383833615-4.103981731658-.287414387947-5.937239326246-1.220954629087l1.21217310791-2.681753907497c1.409083588322.764609285458,3.008420365068,1.107611748523,4.607123673539.988069902621,4.815094043499-.140282800567,7.777628595597-3.244873112968,7.605701023165-9.175087771261l-.025564531777-.847285762111c-1.329513519508,2.1072540991-3.802748954429,3.231949595285-6.755412249091,3.316036731568-4.710182914245.137116440284-8.178377196647-2.579431756639-8.310239588149-6.949749502002-.130139442272-4.578384740016,3.44595593403-7.59948123546,8.158226980653-7.733660589975,6.371873137716-.184253311015,10.085852615814,3.982977981545,10.305858797554,11.539853180821m-4.299664669414-4.387576008546c-.073558361353-2.437946167023-2.098451164606-4.517995603605-5.793489034624-4.411508390085-3.084401385537.093063380456-5.16660867931,1.947009686507-5.084712831418,4.760729728434.078872670751,2.779808554679,2.198366879118,4.514980443173,5.519719999493,4.419769099231,3.252260191215-.098128061068,5.435076592183-2.164124261333,5.356483709278-4.768929671776"/>
            <path id="Caminho_76-2" data-name="Caminho 76-2" class="cls-6" d="m173.266866836067,144.790585833298c-.103162589807-3.419119672853,1.922536255517-5.654386994953,4.878197251881-5.73856564699,2.955661472803-.084178666412,5.073626192552,1.998063147719,5.172606833581,5.444310543126.098980641025,3.446247395407-1.893440278705,5.657509199376-4.850130494655,5.740719272253s-5.102536943967-2.028193085238-5.200673590807-5.446464168389m7.156242823028-.206919630185c-.0655392933-2.172170042322-.934337200833-3.191027410608-2.208264054341-3.15259015014-1.245950306489.037593144635-2.083929894321,1.133949406612-2.022322646593,3.275236085684.061607247731,2.141286679072.960315583394,3.190243822361,2.205356985516,3.155677610631,1.27692411098-.038527694518,2.084864444205-1.102975602123,2.024230615219-3.278293877927m9.810312097668-5.646362205107l3.446246915377-.098980745761-13.260084539783,20.676463450521-3.449094153302.104066987818,13.262931777708-20.681549692578Zm-2.90123384594,15.013549996643c-.098136546758-3.418271563042,1.92962031563-5.651599911853,4.850310900696-5.734724266501,2.956508871412-.089204573443,5.105444820339,2.025104885076,5.203580414225,5.443376476867.098135622637,3.418272544663-1.92941021259,5.658594970675-4.878197742692,5.738565184929-2.925534828704.088270016373-5.074470806381-2.026040395018-5.175604105425-5.444220585511m7.128295243976-.205075916157c-.0646348881-2.142195323657-.934336717208-3.191027186765-2.208353542706-3.155587674579-1.245950068273.037593137448-2.084804154838,1.10497377377-2.022232443571,3.278233588559.062571711265,2.17325981479.962254642385,3.188184848974,2.208204710656,3.150591711526,1.273926377073-.038437246092,2.083929915885-1.13394869196,2.022232443573-3.27823358856"/>
            <path id="Caminho_77-2" data-name="Caminho 77-2" class="cls-6" d="m26.627989557748,155.697458453616c-.173943081689-6.030161011417,4.298832604349-10.555412583483,10.504845584468-10.734661517629,2.917751694158-.203381950182,5.779520182336.873380006653,7.839523347586,2.949680063146l-1.843171214186,1.887736955053c-1.521565781877-1.551064898912-3.637871839361-2.370997698461-5.807275624684-2.249945799454-4.250622520391-.052469275662-7.738967797988,3.350806513305-7.791437073651,7.601429033695-.001905256526.15436101362.000833400904.308743091726.008212830307.46293936775.040928246628,4.250749174669,3.520020574526,7.663484155307,7.770770218443,7.622555656086.154885130438-.001491562072.309691206083-.00765787501.464204841208-.018490593005,2.175905275108-.016238775387,4.239751827241-.967404002586,5.665606046477-2.611110241631l1.94687644397,1.781383305397c-1.942945876837,2.203448601342-4.747561600258,3.453766280122-7.685155387424,3.426095484713-6.171040670883.178194320566-10.898966482398-4.084452968799-11.073000012515-10.117611714121"/>
            <path id="Caminho_78-2" data-name="Caminho 78-2" class="cls-6" d="m50.71775909168,304.656781732518l-4.508353732508.131027750173.170851737963,5.828240916077-3.288230139475.099213355932-.167943499615-5.83132912716-13.189491551597.377955038874-.071568682853-2.372002214751,11.686971005085-15.870675291894,3.660916308483-.110458142326-11.192590351991,15.318721620259,9.116711288902-.262071425685-.147443619697-5.151901217857,3.186315762507-.096138368193.14765562848,5.158896219177,4.508201117722-.136022645352.087998728595,2.916543532728Z"/>
            <path id="Caminho_79-2" data-name="Caminho 79-2" class="cls-6" d="m121.88174793478,301.314512596896c.118788059839,4.102693443406-2.702689169297,7.47404793753-8.769819731242,7.649105147123-3.146746451239.167722389127-6.254175166176-.761799384937-8.79194163652-2.629922144587l1.481950201367-2.722894971233c2.031112878292,1.629259181665,4.588103561753,2.459172004782,7.188883006507,2.333267338227,3.597119807593-.103533757387,5.579424588366-1.821455904596,5.503614606132-4.40034492531-.075737393647-2.675896006063-1.818536393386-4.28942519977-7.310060641032-4.128733920586l-5.388581788133.158586697834.89671627343-12.440898180697,13.38926174894-.385983152749.083908156179,2.94666813412-10.539512418887.305000322055-.462099121516,6.527384438336,2.644772178433-.079798770878c7.08233443748-.203689174457,9.946051137335,2.664105924143,10.067853953044,6.866717478614"/>
            <path id="Caminho_80-2" data-name="Caminho 80-2" class="cls-6" d="m197.994879687189,297.070872407331c.130110100066,4.577384437806-3.477958762676,7.599445780854-8.189140733995,7.736593318693-6.372023886766.179257032315-10.087909880667-3.984915423047-10.306039665655-11.545847695763-.234409064185-8.10047673227,4.215015349855-12.571020323671,10.857720573327-12.761445117463,2.052872765038-.13443365324,4.103998190134.287367187952,5.937239813462,1.220954972039l-1.212263805333,2.678755823453c-1.396483063359-.765187372701-2.98533752307-1.107794383289-4.573061195904-.986096704964-4.812187241645.137194394392-7.808693072358,3.242810412568-7.636735579084,9.174024640309.001644499631.283002953985.020525500981.565644164324.056538336266.846351212229,1.296537542203-2.073256908,3.773834354357-3.229076231815,6.722531436035-3.312044179976,4.713270620141-.134209140427,8.216343410812,2.578286229908,8.343212726624,6.948753673943m-3.28422062342.232100822736c-.083868576301-2.779657816885-2.23633547546-4.513834844568-5.555689471315-4.418683818742-3.219287976863.097133214631-5.3981075581,2.163008821786-5.324510566374,4.767965446458.073648824155,2.440944377367,2.098451150232,4.517995127169,5.759517748822,4.412533857644,3.08455209458-.088068427775,5.202578136759-1.948095443434,5.119683679481-4.761785355051"/>
            <path id="Caminho_81-2" data-name="Caminho 81-2" class="cls-6" d="m46.086673460728,357.067052179611l.685861938662,23.725916038627-3.354325277229.096208096124-.601894457273-20.777250078188-5.353640398851.156531010962-.088963408785-2.948515946608,8.712961603476-.252889120917Z"/>
            <path id="Caminho_82-2" data-name="Caminho 82-2" class="cls-6" d="m124.095339898602,375.607759747436l.088963415974,2.948516184825-17.051479739812.486480012675-.06954880217-2.30505727091,9.392092616679-9.597012250458c2.436327211382-2.513675580162,2.868007101542-4.016801195169,2.822967695345-5.50954308997-.06865288985-2.441094162286-1.842176274762-3.879684264076-5.163528413515-3.784471996012-2.316595831773-.062761474071-4.530836230548.954494123309-5.992348662252,2.752975823923l-2.358357645762-1.928978686912c1.764961730971-2.325406866558,4.877481703774-3.740408251241,8.571520960952-3.846865448907,4.950071577176-.141354335486,8.208175510708,2.307514142153,8.325876405881,6.374238885887.069548830919,2.305058223782-.552560441734,4.390969287194-3.680874611084,7.569566471574l-7.052515490606,7.191264412645,12.167232270371-.351113048361Z"/>
            <path id="Caminho_83-2" data-name="Caminho 83-2" class="cls-6" d="m197.891633195792,367.496775534776c.115592522117,3.996783676012-2.739762301004,7.339157612004-8.773979956341,7.511222727636-3.148397763263.181696802566-6.26046966498-.74921276593-8.791941694022-2.629924050331l1.482040649793-2.719897237326c2.041681183895,1.635791973014,4.612087403264,2.466574214329,7.224942450322,2.33517980602,3.559001931513-.107383154589,5.54644762944-1.787459637618,5.468668710495-4.365287825083-.070642582725-2.507038590997-1.914270664571-4.081522848705-5.980995141335-3.963821007851l-1.898400754599.057279053404-.06657274855-2.372151999672,5.753291658359-7.494086617409-11.422888007713.327653307403-.086965118029-2.948576239569,15.660410514705-.452508722457.064342843329,2.298214598797-5.979753689138,7.843942456353c4.756479551106.303516106405,7.242337093081,2.91169473256,7.347800282725,6.572761750086"/>
            <path id="Caminho_84-2" data-name="Caminho 84-2" class="cls-6" d="m80.414800069517,432.167452725328c-.22301355437-7.722795134147,3.78561016739-12.252043536505,9.343169280914-12.411727147804,5.524496934982-.161686254455,9.786207621033,4.128027856102,10.011278483385,11.852761861056.225070847977,7.724733528518-3.78451966901,12.255011470123-9.310105694012,12.413729053652-5.557559096029.159684191024-9.821177734997-4.126971297897-10.044342070287-11.854763766904m15.964154415802-.461672906133c-.175028003405-6.066130970936-2.837990937058-9.04199042198-6.532030197688-8.935533338771-3.729857518229.112538254875-6.216857905778,3.233783341039-6.040860484794,9.298885067093.175997435355,6.065102202489,2.837991413493,9.041990407604,6.569998288845,8.934386801668,3.697036012914-.106548455758,6.182977544837-3.229760153951,6.007858140132-9.298888830042"/>
            <path id="Caminho_85-2" data-name="Caminho 85-2" class="cls-6" d="m194.409382517853,425.367764989575c-.015570003137.843231486815-.186738572933,1.676336630753-.504893967436,2.457399375534l-1.456601287626,4.7562685226-2.137199418103.064484150307,1.108575394404-5.087791001901c-.891007201499-.292956009976-1.491158735984-1.127409927742-1.485412045879-2.065324791763-.081508285939-1.222884210217.843759711799-2.280303307938,2.066643981612-2.361811594279.046304612866-.003086316259.092694561627-.004719369279.139101488716-.004896732617,1.205947855193-.04606504021,2.220904693022.894205646687,2.266969893284,2.100153497053.001801434712.04717170299.002074463451.09438952145.00081778938.141578864434"/>
            <rect id="Retângulo_47-2" data-name="Retângulo 47-2" class="cls-6" x="253.680656601634" y="418.26169756602" width="23.152034220617" height="2.43705627138" transform="translate(-11.984480422423 7.82247324498) rotate(-1.652222812974)"/>
            <rect id="Retângulo_48-2" data-name="Retângulo 48-2" class="cls-6" x="253.892204570446" y="425.604812271935" width="23.152034220616" height="2.437056271379" transform="translate(-12.196114527032 7.831625647828) rotate(-1.652222812932)"/>
            <rect id="Retângulo_49-2" data-name="Retângulo 49-2" class="cls-6" x="254.91207885057" y="360.467397557114" width="17.334287310636" height="1.823293973502" transform="translate(-10.309962056338 7.749952199804) rotate(-1.652222812972)"/>
            <path id="Caminho_86-2" data-name="Caminho 86-2" class="cls-6" d="m273.186261940675,362.906806215497l-19.111593875878.553638540535-.103924842984-3.610109377902,19.111683478026-.550641041883.103835240836,3.60711187925Zm-17.377881758441-1.282792431832l15.541212900747-.491915178915-15.541212900747.491915178915Z"/>
            <rect id="Retângulo_50-2" data-name="Retângulo 50-2" class="cls-6" x="262.666344585839" y="352.71113087497" width="1.82529317361" height="17.334287310637" transform="translate(-10.309939950823 7.749945209627) rotate(-1.652222812956)"/>
            <path id="Caminho_87-2" data-name="Caminho 87-2" class="cls-6" d="m265.656356892952,370.881502694366l-3.605023294345.106770778958-.553728933319-19.114589703983,3.607111884074-.103834401803.55164034359,19.111653326829Zm-1.874308629473-1.729568322863l.040965496488-.001236021874-.489977206278-15.543272318227.44901170979,15.544508340101Z"/>
            <path id="Caminho_88-2" data-name="Caminho 88-2" class="cls-6" d="m267.362456719215,214.004396535848l-2.62487800167-2.475974749102-5.323231704715,5.638985629779-5.63998461045-5.323201563204-2.47797304342,2.624939010044,5.640983952846,5.323171649214-5.323231715074,5.63898528641,2.624969175953,2.47897283273,5.323201794236-5.639984855858,5.638985286409,5.323231715075,2.475975091636-2.624878965745-5.63704740413-5.32529017609,5.322231178381-5.638955813254Z"/>
            <rect id="Retângulo_51-2" data-name="Retângulo 51-2" class="cls-6" x="252.929936857343" y="291.856529270628" width="17.334287310636" height="1.823293973501" transform="translate(-8.33254737648 7.664276688381) rotate(-1.652222812972)"/>
            <path id="Caminho_89-2" data-name="Caminho 89-2" class="cls-6" d="m271.205066379196,294.29392559587l-19.111593875878.553638540534-.103924842984-3.610109377902,19.111683478026-.550641041882.103835240836,3.60711187925Zm-17.377881758443-1.282792431832l15.541212900747-.491915178915-15.541212900747.491915178915Z"/>
            <rect id="Retângulo_52-2" data-name="Retângulo 52-2" class="cls-6" x="248.814207535462" y="149.317040649812" width="17.334287310637" height="1.823293973502" transform="translate(-4.224455662101 7.486348229096) rotate(-1.652222812914)"/>
            <path id="Caminho_90-2" data-name="Caminho 90-2" class="cls-6" d="m267.088405871513,151.756448848191l-19.111593875876.553638540534-.103924842986-3.610109377902,19.111683478026-.550641041882.103835240836,3.60711187925Zm-17.377881758441-1.282792431831l15.541303341985-.488917683227-15.541303341985.488917683227Z"/>
            <path id="Caminho_91-2" data-name="Caminho 91-2" class="cls-6" d="m260.113664690896,140.611118666285c.04622503907,1.605308841473-1.217662736046,2.944141977336-2.822971591895,2.99036653997-1.60530907969.046225046258-2.944141821985-1.217662263865-2.990366701544-2.822971348585-.046224817926-1.605306940668,1.217659187303-2.944138752681,2.822966036241-2.990366610779,1.604741319799-.046763961916,2.943550708429,1.216226123974,2.990314646757,2.82096720605l.000057610441.002004213345"/>
            <path id="Caminho_92-2" data-name="Caminho 92-2" class="cls-6" d="m260.647856078995,159.144263368732c.04622503907,1.605308841474-1.217662736046,2.944141977337-2.822971591893,2.990366539972-1.605309079692.046225046257-2.944141821987-1.217662263866-2.990366701546-2.822971348587-.046224817925-1.605306940667,1.217659187303-2.944138752681,2.822966036241-2.990366610778,1.604741319798-.046763961917,2.943550708429,1.216226123973,2.990314646759,2.820967206048l.000057610439.002004213345"/>
            <path id="Caminho_93-2" data-name="Caminho 93-2" class="cls-6" d="m117.825039268399,149.196576161848l-1.591396622065-1.501089058428-3.226139849405,3.416565112167-3.418563545711-3.226080029008-1.501089072804,1.591396145628,3.416565126541,3.226140325842-3.225959450272,3.422559889005,1.591366008413,1.500090234504,3.226049884321-3.419562631535,3.422559889006,3.225959450272,1.500090220126-1.591366484849-3.419562617157-3.226049407887,3.226080029006-3.418563545711Z"/>
            <path id="Caminho_94-2" data-name="Caminho 94-2" class="cls-6" d="m122.232119151813,161.784470640344l-16.617604187952.481388966773c-.822384138963.019067869544-1.615817016298-.303928381218-2.191059175166-.891955953639l-6.029965551123-6.183492898631c-1.105933260524-1.146365637413-1.157206380085-2.946247538361-.118326443564-4.153711426443l5.662725865302-6.518288042797c.538250692091-.621686466495,1.31157127798-.99048108082,2.133448503289-1.017435638334l16.620692348664-.478482397807c1.656337239096-.028017062526,3.022905142032,1.289766615595,3.055089138999,2.946027246392l.365061618708,12.695847342204c.066562623089,1.65487475812-1.22101771589,3.05037575911-2.87589247401,3.116938382198-.001421224353.000058141384-.002840600462.000114319525-.004260034073.000168591922m-17.10182224042-16.263138332104c-.258615533148.007471115598-.502060187464.123766530487-.670383850131.320247304796l-5.662635261571,6.521284997104c-.349233574787.415167621641-.330789887179,1.026447110333.042838714911,1.419804341764l6.027877734006,6.180556383604c.179605654428.188470309596.430410992385.292391219975.690681145719.286180618142l16.617694636378-.478391232866c.543593550137-.033807186456.957211492638-.501302508804.924535282575-1.044964517666l-.3680593598-12.695757131995c.002151213219-.543639159462-.436286378344-.986364275957-.979920752769-.989502753431l-16.622628289319.480541990549Z"/>
            <path id="Caminho_95-2" data-name="Caminho 95-2" class="cls-4" d="m30.06174465764,29.663311661803c.113327819065,3.902600656584-2.958484385063,7.15815458133-6.861085518081,7.271482414769s-7.158154514003-2.958485340833-7.271482368078-6.861085996362c-.113327861263-3.902600893746,2.958484809782-7.158154283994,6.861085941746-7.27148215241.000661791913-.000019217374.001324063071-.000038356047.001986338708-.000057346267,3.902064424601-.112766487538,7.156729144965,2.959066733122,7.269495260702,6.86113164581l.000000345004.000011434459"/>
            <path id="Caminho_96-2" data-name="Caminho 96-2" class="cls-4" d="m53.884609040329,28.97552313662c.113327819063,3.902600656584-2.958484385063,7.15815458133-6.861085518081,7.271482414769s-7.158154514003-2.958485340833-7.271482368078-6.861085996362c-.113327861263-3.902600893746,2.95848480978-7.158154283993,6.861085941746-7.27148215241.000661791913-.000019217374.001324063072-.000038356047.00198633871-.000057346266,3.902064424599-.112766487538,7.156729144961,2.959066733121,7.269495260702,6.861131645809l.000000345002.000011434459"/>
            <path id="Caminho_97-2" data-name="Caminho 97-2" class="cls-4" d="m77.709444351724,28.286676579301c.113327819065,3.902600656585-2.958484385063,7.158154581331-6.861085518083,7.271482414769s-7.158154514002-2.958485340832-7.271482368078-6.86108599636c-.113327861261-3.902600893746,2.958484809782-7.158154283994,6.861085941746-7.27148215241.000661791913-.000019217375.001324063072-.000038356048.00198633871-.000057346267,3.902064424601-.112766487538,7.156729144963,2.959066733121,7.269495260702,6.861131645809l.000000345004.000011434458"/>
            <path id="Caminho_98-2" data-name="Caminho 98-2" class="cls-6" d="m286.056114338857,452.729609625619s.315633647215-.045536567702.936890002818-.105269167895c.926660759651-.086221464284,1.843461611323-.257478369923,2.738747029915-.511648903695,3.541775850084-.974048696325,6.637156921655-3.14418335865,8.760304216208-6.141731096277,1.567110351043-2.183261908614,2.54358404949-4.734379768496,2.834764507865-7.406035191615.13016537273-1.54663457522.142109616398-3.100963901321.035723773068-4.649403447223-.049139543182-1.628632812742-.10296234156-3.324481185236-.161497047004-5.087483213694-.220976576065-7.058814374792-.473626705985-15.199754371615-.76004382469-24.361717529853-1.106721652675-36.680096748989-2.707189361243-89.724428403589-4.679581499558-155.261346674813-1.929026359547-65.558247604454-4.233117747171-143.613030919983-6.782043217327-230.279007906479.204950327578-5.381901345228-2.365704620452-10.492579433516-6.808854776866-13.536493799433-2.20333501592-1.50106961984-4.758480109314-2.404669284092-7.415621384807-2.622446927545-2.632814197303-.120575644421-5.488153887834.10658602356-8.23408686931.148434255074l-33.661632217725.98264550543c-22.683665225901.659082468166-45.824917382855,1.332638273149-69.423756481647,2.02066705762-47.157051579819,1.363831107576-95.983694203223,2.778037560988-145.99231715966,4.228907154526-6.16629403886.182030699177-11.635290664386,4.009515226235-13.918080624717,9.740587151578-.530611549628,1.397657129078-.870620837199,2.860395645062-1.010864497834,4.348792850608-.093748811858,1.46692863545-.008570815135,3.030464846135.028285814195,4.583457170233.093435236764,3.096725826205.182410164571,6.18925053248.266924602702,9.277576031755.354590329203,12.348805097842.708696759639,24.615286599387,1.062319410414,36.799444501044.69895048633,24.3585632619,1.389170092161,48.339365958379,2.070658698385,71.942408093031,1.344270016121,47.17164267102,2.648126128985,92.672394220669,3.889983371982,136.018879551385s2.402368612462,84.527248184128,3.496371956462,123.072845430675c.272731800984,9.635766342723.540438272294,19.104985991085.803120750821,28.407689424395.064773142783,2.323551302021.130253728401,4.637406530323.196440955957,6.941535189422-.062736871379,2.257172857013.135562781295,4.514008003638.590954031242,6.725638505415,1.127791919913,4.30171530207,4.029273630113,7.922125194132,7.982033116064,9.95986815703,1.933343732348.979945078742,4.050678511945,1.54360530146,6.215341370853,1.654604526115,2.141208819159.068399505011,4.397592175792-.089683138189,6.570786870392-.121254459176l13.005888990216-.364400110789c8.57864699546-.240830630365,16.966430138911-.476909614132,25.163337995895-.708236606294,65.543882489543-1.808589673684,118.587146908721-3.278034850103,155.263260639897-4.284623438064l42.215596088843-1.102738623332,10.98007229792-.254292593966c2.474622666155-.051653159509,3.741850744171-.046886118042,3.741850744171-.046886118042,0,0-1.264696212091.07914663899-3.738082385582.171780898259l-10.977581574472.370222627033c-9.667458100446.30469049199-23.891779813157.756882331782-42.208602177228,1.334537968844-36.675096079078,1.10657077113-89.712422222019,2.706827107533-155.253357799709,4.679340457091-8.193259346233.241868265641-16.57965734489.490601630212-25.159196756002.746108618046l-13.007282682815.384463051052c-2.207076310289.035584531672-4.353400768947.195351670825-6.644574057013.12848600818-2.295568647602-.113855381926-4.541541903091-.709159161093-6.592147248282-1.747246400771-4.201311149152-2.156015067235-7.288837892-5.995405652097-8.493218109305-10.561460280342-.479039174877-2.281142701418-.692271384229-4.610103023028-.635433918274-6.940314518291-.069479111457-2.302747510265-.137622322623-4.616461361823-.204434233436-6.941294014124-.275197668656-9.297656315443-.554874845326-18.765873867876-.839030609073-28.404622165434-1.13000340691-38.545518191455-2.339776226927-79.734835679601-3.613364561534-123.072336943818-1.27358833461-43.337501264217-2.588495901251-88.839933663257-3.962680405195-136.008674709406-.683610148639-23.584971530311-1.379158569522-47.565613444362-2.086645262654-71.941925742155-.347587383316-12.183000949777-.700401775175-24.450852854719-1.058443088303-36.803553809981-.093133761176-3.0867340151-.183107774805-6.179228576691-.269922098389-9.277485590518-.03867411051-1.546938468168-.126095912929-3.085405663617-.022364105258-4.718645229058.148461755831-1.607666070706.515298538925-3.187605481174,1.09038809519-4.696215930002,2.461320733682-6.192179424986,8.366920706463-10.329606319016,15.027385458719-10.528093114252l145.993042590373-4.204927410295,69.428760666618-1.986815744228c11.342992004766-.32424254934,22.562705644876-.645765565979,33.659171410425-.96457002948,2.799168370399-.033453794979,5.47851059972-.260305525298,8.361506265299-.134277589031,2.854391258968.236034444935,5.598865552916,1.207929858165,7.965651392,2.820866014044,4.741428545483,3.254636071358,7.493915974308,8.704052300515,7.299514295759,14.451751933369,2.453973725624,86.668841895831,4.663083599989,164.724491981913,6.519173490949,230.283933096531,1.811608600767,65.543799031583,3.278185501644,118.592139955659,4.284924511147,155.273239110802.243485458013,9.163289023391.461129978547,17.30525469914.648138589484,24.365093964427.045230909862,1.764105386038.088746529513,3.460234229826.130517287069,5.088417943266.098394994544,1.563787873913.076518672833,3.132852667044-.065407239732,4.693301249383-.78261671061,6.550514822282-5.489259230068,11.957255814676-11.869432130621,13.635029303943-.903576845216.243372592159-1.82949582037.394639565663-2.763576093574.451419795174-.627865732469.038934501925-.943759211863.043491021456-.943759211863.043491021456"/>
            <path id="Caminho_99-2" data-name="Caminho 99-2" class="cls-7" d="m141.795404216973,34.604617252759l1.802402096982,62.885887792067-10.321636224366.300424825131-1.579613011359-55.071080235992-16.468669052232.478898584973-.223758619402-7.813779384369,26.791274810377-.78035158181Z"/>
            <path id="Caminho_100-2" data-name="Caminho 100-2" class="cls-7" d="m154.543979053988,63.99498237565c-.610120768744-21.083021194769,10.662771415175-33.441965214985,26.285153397117-33.895326666429,15.52758322254-.446500885994,27.495953241476,11.239203318522,28.10589216691,32.316230027775.609938896687,21.077025756382-10.670762149075,33.442207870816-26.195226982156,33.892617197633-15.621412711938.45232731565-27.58990535705-11.237369042483-28.195818581871-32.313520558978m44.8638646658-1.298640442404c-.476343127617-16.549751025649-7.955585636717-24.661650812201-18.336204248641-24.360445873242-10.48162378881.301254892343-17.480814167984,8.829001434473-17.004472050741,25.378750583131.476342174748,16.549751054399,7.955587484961,24.661648848956,18.436210902391,24.360428908779,10.381707612238-.298239241103,17.380925349358-8.824984228979,16.904344875757-25.382728056218"/>
            <path id="Caminho_101-2" data-name="Caminho 101-2" class="cls-7" d="m212.920808609328,62.233621119556c-.610120768742-21.08302119477,10.662771415176-33.441965214986,26.285153397119-33.89532666643,15.527583222538-.446500885995,27.495953241474,11.239203318522,28.10589216691,32.316230027775.609938896687,21.077025756381-10.670762149075,33.442207870816-26.195226982158,33.892617197632-15.621412711937.45232731565-27.589905357048-11.237369042484-28.195818581871-32.313520558977m44.8638646658-1.298640442405c-.476343127615-16.54975102565-7.955585636715-24.661650812201-18.336204248641-24.360445873243-10.481623788808.301254892344-17.480814167984,8.829001434474-17.004472050739,25.378750583131.476342174747,16.5497510544,7.955587484959,24.661648848956,18.43621090239,24.360428908779,10.381707612238-.298239241102,17.380925349358-8.824984228979,16.904344875758-25.382728056216"/>
          </g>
        </g>
      </g>
    </g>
  </g>
</svg>