<?xml version="1.0" encoding="UTF-8"?>
<svg id="Camada_1" data-name="Camada 1" xmlns="http://www.w3.org/2000/svg" xmlns:xlink="http://www.w3.org/1999/xlink" viewBox="0 0 266 136">
  <defs>
    <style>
      .cls-1 {
        fill: none;
      }

      .cls-2 {
        clip-path: url(#clippath);
      }

      .cls-3 {
        fill: #fff;
      }

      .cls-4 {
        fill: #e2ae74;
      }

      .cls-5 {
        fill: #263238;
      }

      .cls-6 {
        clip-path: url(#clippath-1);
      }

      .cls-7 {
        clip-path: url(#clippath-4);
      }

      .cls-8 {
        clip-path: url(#clippath-3);
      }

      .cls-9 {
        clip-path: url(#clippath-2);
      }

      .cls-10 {
        clip-path: url(#clippath-7);
      }

      .cls-11 {
        clip-path: url(#clippath-8);
      }

      .cls-12 {
        clip-path: url(#clippath-6);
      }

      .cls-13 {
        clip-path: url(#clippath-5);
      }

      .cls-14 {
        clip-path: url(#clippath-9);
      }

      .cls-15 {
        clip-path: url(#clippath-20);
      }

      .cls-16 {
        clip-path: url(#clippath-14);
      }

      .cls-17 {
        clip-path: url(#clippath-13);
      }

      .cls-18 {
        clip-path: url(#clippath-12);
      }

      .cls-19 {
        clip-path: url(#clippath-10);
      }

      .cls-20 {
        clip-path: url(#clippath-15);
      }

      .cls-21 {
        clip-path: url(#clippath-17);
      }

      .cls-22 {
        clip-path: url(#clippath-16);
      }

      .cls-23 {
        clip-path: url(#clippath-19);
      }

      .cls-24 {
        clip-path: url(#clippath-11);
      }

      .cls-25 {
        clip-path: url(#clippath-18);
      }

      .cls-26 {
        opacity: .20000000298;
      }

      .cls-27 {
        opacity: .300000011921;
      }
    </style>
    <clipPath id="clippath">
      <rect class="cls-1" x=".046731456807" y="58.722648155219" width="73.167605488597" height="76.954703689562"/>
    </clipPath>
    <clipPath id="clippath-1">
      <rect class="cls-1" x=".046731456807" y="58.722648155219" width="73.167605488597" height="76.954703689562"/>
    </clipPath>
    <clipPath id="clippath-2">
      <rect class="cls-1" x="4.030626431397" y="58.9793836184" width="63.309766631834" height="2.117817720146"/>
    </clipPath>
    <clipPath id="clippath-3">
      <rect class="cls-1" x="2.561140609889" y="71.948021263313" width="63.309766631834" height="2.118816856591"/>
    </clipPath>
    <clipPath id="clippath-4">
      <rect class="cls-1" x="8.771741552331" y="84.711870025504" width="63.309766631834" height="2.117817720146"/>
    </clipPath>
    <clipPath id="clippath-5">
      <rect class="cls-1" x="1.109636267227" y="97.802379958221" width="63.309766631835" height="2.705212537076"/>
    </clipPath>
    <clipPath id="clippath-6">
      <rect class="cls-1" x="5.314303598443" y="110.494304234057" width="63.309766631835" height="3.061845181051"/>
    </clipPath>
    <clipPath id="clippath-7">
      <rect class="cls-1" x="1.578153496468" y="123.006409672466" width="63.309766631835" height="2.705212537075"/>
    </clipPath>
    <clipPath id="clippath-8">
      <rect class="cls-1" x="102.104658543058" y="-.13306044489" width="163.668364357542" height="136.09477074129"/>
    </clipPath>
    <clipPath id="clippath-9">
      <rect class="cls-1" x="102.104658543058" y="-.13306044489" width="163.668364357542" height="136.09477074129"/>
    </clipPath>
    <clipPath id="clippath-10">
      <rect class="cls-1" x="131.764098465903" y="106.914636456419" width="25.60861352422" height="28.91520593038"/>
    </clipPath>
    <clipPath id="clippath-11">
      <rect class="cls-1" x="102.104658543058" y="-.13306044489" width="163.668364357542" height="136.09477074129"/>
    </clipPath>
    <clipPath id="clippath-12">
      <rect class="cls-1" x="189.118996641488" y="110.013448495076" width="25.284947619471" height="25.816399607879"/>
    </clipPath>
    <clipPath id="clippath-13">
      <rect class="cls-1" x="175.573955127116" y="15.027318185533" width="20.417960836645" height="24.249014372346"/>
    </clipPath>
    <clipPath id="clippath-14">
      <rect class="cls-1" x="158.782258913676" y="4.13554102011" width="46.982588124691" height="7.182599222177"/>
    </clipPath>
    <clipPath id="clippath-15">
      <rect class="cls-1" x="106.939676770411" y="68.05068192325" width="50.524939576893" height="38.696128191162"/>
    </clipPath>
    <clipPath id="clippath-16">
      <rect class="cls-1" x="114.160236508655" y="78.323102146945" width="5.06178433087" height="18.150298848774"/>
    </clipPath>
    <clipPath id="clippath-17">
      <rect class="cls-1" x="127.758225823944" y="78.323102146945" width="5.06178433087" height="18.150298848774"/>
    </clipPath>
    <clipPath id="clippath-18">
      <rect class="cls-1" x="110.820678077789" y="17.593675050393" width="29.491611675452" height="19.230185525252"/>
    </clipPath>
    <clipPath id="clippath-19">
      <rect class="cls-1" x="220.059116560216" y="32.18164257614" width="26.514679516367" height="56.91235908935"/>
    </clipPath>
    <clipPath id="clippath-20">
      <rect class="cls-1" x="224.003058462004" y="31.487358260739" width=".398589289021" height=".017981471406"/>
    </clipPath>
  </defs>
  <g id="Grupo_882" data-name="Grupo 882">
    <g id="Grupo_797" data-name="Grupo 797">
      <g class="cls-2">
        <g id="Grupo_90" data-name="Grupo 90">
          <rect id="Retângulo_67" data-name="Retângulo 67" class="cls-4" x="2.984704201552" y="58.965398030356" width="65.406605106538" height="13.188410537607"/>
          <g id="Grupo_89" data-name="Grupo 89">
            <g class="cls-6">
              <g id="Grupo_88" data-name="Grupo 88">
                <path id="Caminho_319" data-name="Caminho 319" class="cls-5" d="m64.186640190574,59.185171548253c-.282949725111,2.118598630424-.377891266548,4.258078676665-.283704257712,6.393412604373-.094171765752,2.135333451361.000769775683,4.274812544907.283704257712,6.393412425741.282599134209-2.118630366998.377533054103-4.258078974381.283704257716-6.393412425741.093836417927-2.135333927708-.001097501965-4.274783249609-.283704257716-6.393412425743"/>
                <path id="Caminho_320" data-name="Caminho 320" class="cls-5" d="m58.122892299023,59.185171548253c-.282957346655,2.118598154078-.377891266546,4.258078676665-.283704257712,6.393412604373-.094171765752,2.135333451361.000762154141,4.274812544907.283704257712,6.393412425741.282576269585-2.118632272384.377510189477-4.258078974381.283704257714-6.393412425741.093821174847-2.135333927708-.001112745045-4.27478182057-.283704257714-6.393412425743"/>
                <path id="Caminho_321" data-name="Caminho 321" class="cls-5" d="m52.129068239206,59.185171548253c-.282957346657,2.118597677732-.377898888089,4.258078676665-.283704257716,6.393412604373-.094187008834,2.135333451361.000754532601,4.2748134976.283704257716,6.393412425741.282591512665-2.118630366998.377525432557-4.258078974381.283704257714-6.393412425741.093836417929-2.135333927708-.001097501965-4.274783249609-.283704257714-6.393412425743"/>
                <path id="Caminho_322" data-name="Caminho 322" class="cls-5" d="m46.168207346016,59.185171548253c-.28346036839,2.118553139349-.378737257644,4.258049143191-.284710301183,6.393412604373-.094019334922,2.135363937527.001257554335,4.274858274155.284710301183,6.393412425741.281737900028-2.11870562972.37634409364-4.258108507853.282705835789-6.393412425741.093653500935-2.135304394235-.000952692677-4.274707986888-.282705835789-6.393412425743"/>
                <path id="Caminho_323" data-name="Caminho 323" class="cls-5" d="m40.205351514362,59.185171548253c-.282934482031,2.118600297637-.377876023467,4.258078676665-.283704257716,6.393412604373-.094156522668,2.135333451361.000777397227,4.274811592215.283704257716,6.393412425741.282599134209-2.118630366998.377533054101-4.258078974381.283704257712-6.393412425741.093844039471-2.135333927708-.001089880421-4.274783725955-.283704257712-6.393412425743"/>
                <path id="Caminho_324" data-name="Caminho 324" class="cls-5" d="m34.244496337327,59.185171548253c-.282949725113,2.118598630424-.377891266548,4.258078676665-.283708068484,6.393412604373-.09416795498,2.135334404054.000773586455,4.274812544907.283708068484,6.393412425741.282602944981-2.118629414306.377540675643-4.258078021688.283708068486-6.393412425741.093847850239-2.135333927708-.001089880423-4.274784440475-.283708068486-6.393412425743"/>
                <path id="Caminho_325" data-name="Caminho 325" class="cls-5" d="m28.283635444139,59.185171548253c-.283818580836,2.118521700491-.379091659323,4.258049143191-.284706490411,6.393412604373-.094369925828,2.135363937527.000903152657,4.274889713015.284706490411,6.393412425741.282602944979-2.118629414306.377540675643-4.258078021688.283708068486-6.393412425741.093847850239-2.135333927708-.001089880423-4.274784440475-.283708068486-6.393412425743"/>
                <path id="Caminho_326" data-name="Caminho 326" class="cls-5" d="m22.320779612483,59.185171548253c-.282606755749,2.118629116591-.377548297183,4.258078676665-.283708068484,6.393412604373-.093821174845,2.135333451361.001116555817,4.274782058743.283708068484,6.393412425741.282602944981-2.118629414306.377540675643-4.258078021688.283708068486-6.393412425741.093847850241-2.135333927708-.001089880423-4.274784440475-.283708068486-6.393412425743"/>
                <path id="Caminho_327" data-name="Caminho 327" class="cls-5" d="m16.359923482756,59.185171548253c-.282951630497,2.118598630424-.377891266546,4.258078676665-.283708068484,6.393412604373-.09417176575,2.135334404054.000767870299,4.274812544907.283708068484,6.393412425741.282597228825-2.118630366998.377536864873-4.258078974381.283708068486-6.393412425741.093844039469-2.135333927708-.001093691193-4.274783725955-.283708068486-6.393412425743"/>
                <path id="Caminho_328" data-name="Caminho 328" class="cls-5" d="m10.399065447646,59.185171548253c-.282957346655,2.118598154078-.377896982704,4.258078676665-.283708068484,6.393412604373-.094171765752,2.135334404054.000767870297,4.274812544907.283708068484,6.393412425741.282597228823-2.118630366998.377536864871-4.258078974381.283708068486-6.393412425741.093844039469-2.135333927708-.001093691195-4.274783725955-.283708068486-6.393412425743"/>
                <path id="Caminho_329" data-name="Caminho 329" class="cls-5" d="m4.43720756157,59.185171548253c-.282956393961,2.118598154078-.377896030011,4.258078676665-.28370759214,6.393412604373-.094172718442,2.135333451361.000766917607,4.274812544907.28370759214,6.393412425741.282597705171-2.118630366998.377536388525-4.258078974381.28370759214-6.393412425741.093844039468-2.135333927708-.001094167541-4.274783725955-.28370759214-6.393412425743"/>
                <g id="Grupo_72" data-name="Grupo 72" class="cls-27">
                  <g id="Grupo_71" data-name="Grupo 71">
                    <g class="cls-9">
                      <g id="Grupo_70" data-name="Grupo 70">
                        <path id="Caminho_330" data-name="Caminho 330" d="m67.340390205152,58.9793836184c-21.008778916535,2.819330531691-42.299741593277,2.824034689958-63.309763773756.013985588044l63.309763773756-.013985588044Z"/>
                      </g>
                    </g>
                  </g>
                </g>
                <path id="Caminho_331" data-name="Caminho 331" class="cls-5" d="m2.971717571323,59.006355836672c0,.156838401473,14.616939386404.283707681455,32.64436374445.283707681455,18.027422452662,0,32.642368329638-.126869279982,32.642368329638-.283707681455,0-.156838401471-14.612945222356-.283707681453-32.646365828112-.283707681453s-32.640366245976.126869279982-32.640366245976.283707681453"/>
                <rect id="Retângulo_69" data-name="Retângulo 69" class="cls-4" x="1.516217278315" y="71.934035734814" width="65.406605106537" height="13.188410537606"/>
                <path id="Caminho_332" data-name="Caminho 332" class="cls-5" d="m62.718155887243,72.153807645042c-.282957346655,2.118597975447-.377898888089,4.25807897438-.283704257714,6.393411949395-.094179387293,2.135332975015.000762154143,4.274813973948.283704257714,6.393411949397.282942103571-2.118597975449.377876023465-4.258078974382.283704257714-6.393411949397.094187008834-2.135332975015-.000746911059-4.274813973948-.283704257714-6.393411949395"/>
                <path id="Caminho_333" data-name="Caminho 333" class="cls-5" d="m56.653401952226,72.153807645042c-.282606755751,2.118628461613-.377540675645,4.25807897438-.283704257716,6.393411949395-.093821174845,2.135332975015.001112745047,4.274779677012.283704257716,6.393411949397.282599134209-2.118628461615.377540675643-4.258078974382.283704257714-6.393411949397.093851661011-2.135332975015-.001089880423-4.274783487782-.283704257714-6.393411949395"/>
                <path id="Caminho_334" data-name="Caminho 334" class="cls-5" d="m50.659577892407,72.153807645042c-.282957346657,2.118597975447-.377891266549,4.25807897438-.283704257716,6.393411949395-.09417176575,2.135332975015.000762154141,4.274813973948.283704257716,6.393411949397.282599134207-2.118628461615.377540675641-4.258078974382.283704257714-6.393411949397.093851661009-2.135332975015-.001089880423-4.274783487782-.283704257714-6.393411949395"/>
                <path id="Caminho_335" data-name="Caminho 335" class="cls-5" d="m44.697726198834,72.153807645042c-.282949725115,2.118597975447-.377891266549,4.25807897438-.283704257716,6.393411949395-.094171765752,2.135332975015.000769775685,4.274810163177.283704257716,6.393411949397.282599134207-2.118628461615.377533054101-4.258078974382.283704257712-6.393411949397.093844039471-2.135332975015-.001089880421-4.274783487782-.283704257712-6.393411949395"/>
                <path id="Caminho_336" data-name="Caminho 336" class="cls-5" d="m38.736869116414,72.153807645042c-.282949725113,2.118597975447-.377891266548,4.25807897438-.283704257712,6.393411949395-.094171765752,2.135332975015.000769775681,4.274810163177.283704257712,6.393411949397.282591512667-2.118632272385.377525432561-4.258078974382.283704257716-6.393411949397.093836417927-2.135332975015-.001105123505-4.274783487782-.283704257716-6.393411949395"/>
                <path id="Caminho_337" data-name="Caminho 337" class="cls-5" d="m32.7750098013,72.153807645042c-.282961157425,2.118597975447-.37790269886,4.25807897438-.283708068486,6.393411949395-.094179387292,2.135332975015.000762154143,4.274813973948.283708068486,6.393411949397.282934482031-2.118597975449.377876023464-4.258078974382.283708068484-6.393411949397.094183198064-2.135332975015-.000758343369-4.274813973948-.283708068484-6.393411949395"/>
                <path id="Caminho_338" data-name="Caminho 338" class="cls-5" d="m26.814150813496,72.153807645042c-.282614377291,2.118628461613-.377552107955,4.25807897438-.283708068486,6.393411949395-.093828796385,2.135332975015.001108934277,4.274783487782.283708068486,6.393411949397.282591512669-2.118628461615.377533054103-4.258078974382.283708068486-6.393411949397.093840228699-2.135332975015-.001101312735-4.274783487782-.283708068486-6.393411949395"/>
                <path id="Caminho_339" data-name="Caminho 339" class="cls-5" d="m20.852292451073,72.153807645042c-.282961157425,2.118597975447-.37790269886,4.25807897438-.283708068484,6.393411949395-.094179387293,2.135332975015.000762154141,4.274813973948.283708068484,6.393411949397.282591512669-2.118628461615.377533054103-4.258078974382.283708068486-6.393411949397.093840228701-2.135332975015-.001101312735-4.274783487782-.283708068486-6.393411949395"/>
                <path id="Caminho_340" data-name="Caminho 340" class="cls-5" d="m14.890437899421,72.153807645042c-.282957346653,2.118597975447-.377896982704,4.25807897438-.283708068484,6.393411949395-.09417176575,2.135332975015.000767870299,4.274813973948.283708068484,6.393411949397.282597228825-2.118628461615.377536864873-4.258078974382.283708068486-6.393411949397.093844039469-2.135332975015-.001093691193-4.274783487782-.283708068486-6.393411949395"/>
                <path id="Caminho_341" data-name="Caminho 341" class="cls-5" d="m8.929578911619,72.153807645042c-.282613424601,2.118628461613-.377552107955,4.25807897438-.283708068486,6.393411949395-.093827843695,2.135332975015.001109886969,4.274783487782.283708068486,6.393411949397.282598181515-2.118628461615.377536864873-4.258078974382.283708068484-6.393411949397.093844039471-2.135332975015-.001094643885-4.274783487782-.283708068484-6.393411949395"/>
                <path id="Caminho_342" data-name="Caminho 342" class="cls-5" d="m2.967721978233,72.153807645042c-.282613424597,2.118628461613-.377551631607,4.25807897438-.283707592138,6.393411949395-.093828320039,2.135332975015.001109410623,4.274783487782.283707592138,6.393411949397.282597705173-2.118628461615.377536388527-4.258078974382.28370759214-6.393411949397.093844039469-2.135332975015-.001094167539-4.274783487782-.28370759214-6.393411949395"/>
                <g id="Grupo_75" data-name="Grupo 75" class="cls-27">
                  <g id="Grupo_74" data-name="Grupo 74">
                    <g class="cls-8">
                      <g id="Grupo_73" data-name="Grupo 73">
                        <path id="Caminho_343" data-name="Caminho 343" d="m65.870908194416,71.948021263313c-21.008782727309,2.819330114889-42.299741593277,2.824034511328-63.309766631835.013985528502l63.309766631835-.013985528502Z"/>
                      </g>
                    </g>
                  </g>
                </g>
                <path id="Caminho_344" data-name="Caminho 344" class="cls-5" d="m1.498235799469,71.975992320315c0,.156837984669,14.616939862748.283708068485,32.64436612618.283708068485s32.647356628495-.126870083816,32.647356628495-.283708068485-14.613939833511-.283708068485-32.647360439265-.283708068485-32.64436517349.126870083816-32.64436517349.283708068485"/>
                <rect id="Retângulo_71" data-name="Retângulo 71" class="cls-4" x="7.725818846142" y="84.696884169692" width="65.406605106535" height="13.189409912226"/>
                <path id="Caminho_345" data-name="Caminho 345" class="cls-5" d="m68.927757216894,84.918657687236c-.283460368388,2.1185522462-.378737257644,4.258048488215-.284710301179,6.39341385478-.094011713381,2.135365366566.001265175875,4.274857797812.284710301179,6.393413854782.281745521572-2.118704677029.376344093642-4.258109460547.282705835789-6.393413854782.093653500935-2.135304394235-.000945071135-4.274709177753-.282705835789-6.39341385478"/>
                <path id="Caminho_346" data-name="Caminho 346" class="cls-5" d="m62.864001703803,84.918657687236c-.28346798993,2.1185522462-.378744879186,4.258048488215-.284710301181,6.39341385478-.094019334923,2.135365366566.001257554333,4.274857797812.284710301181,6.393413854782.282080869392-2.118674190862.376687063004-4.258109460547.282705835789-6.393413854782.093996470297-2.135304394235-.000609723314-4.274739663918-.282705835789-6.39341385478"/>
                <path id="Caminho_347" data-name="Caminho 347" class="cls-5" d="m56.870177643985,84.918657687236c-.283475611472,2.1185522462-.378752500728,4.258048488215-.284710301183,6.39341385478-.094026956463,2.135365366566.001249932793,4.274861608582.284710301183,6.393413854782.282599134209-2.118628461614.377540675643-4.25807897438.283704257714-6.393413854782.093844039469-2.1353348804-.001089880423-4.274785393166-.283704257714-6.39341385478"/>
                <path id="Caminho_348" data-name="Caminho 348" class="cls-5" d="m50.907327528486,84.918657687236c-.282957346657,2.118597975448-.377898888089,4.258078974381-.283704257716,6.39341385478-.094179387292,2.135334880402.000762154143,4.274815879334.283704257716,6.393413854782.282599134209-2.118632272386.377533054101-4.25807897438.283704257714-6.393413854782.093836417927-2.1353348804-.001097501965-4.274785393166-.283704257714-6.39341385478"/>
                <path id="Caminho_349" data-name="Caminho 349" class="cls-5" d="m44.946470446066,84.918657687236c-.282606755751,2.118628461614-.377540675641,4.258078974381-.283704257712,6.39341385478-.093828796389,2.135334880402.001105123505,4.274781582396.283704257712,6.393413854782.282934482031-2.118601786219.377876023465-4.25807897438.283704257714-6.393413854782.094187008834-2.1353348804-.000754532599-4.274815879332-.283704257714-6.39341385478"/>
                <path id="Caminho_350" data-name="Caminho 350" class="cls-5" d="m38.985609552878,84.918657687236c-.282621998833,2.118628461614-.377555918725,4.258078974381-.283704257714,6.39341385478-.093844039471,2.135334880402.001089880421,4.274785393168.283704257714,6.393413854782.282599134209-2.118632272386.377533054101-4.25807897438.283704257714-6.393413854782.093844039471-2.1353348804-.001089880423-4.274785393166-.283704257714-6.39341385478"/>
                <path id="Caminho_351" data-name="Caminho 351" class="cls-5" d="m33.023752143148,84.918657687236c-.282949725113,2.118597975448-.377891266548,4.258078974381-.283708068486,6.39341385478-.094171765752,2.135334880402.000765964913,4.274812068563.283708068486,6.393413854782.282591512667-2.118632272386.377533054101-4.25807897438.283708068484-6.393413854782.093840228701-2.1353348804-.001097501963-4.274785393166-.283708068484-6.39341385478"/>
                <path id="Caminho_352" data-name="Caminho 352" class="cls-5" d="m27.061892828033,84.918657687236c-.282957346655,2.118597975448-.377895077318,4.258078974381-.283708068484,6.39341385478-.094171765752,2.135334880402.000765964913,4.274812068563.283708068484,6.393413854782.282602944981-2.118628461614.377540675643-4.25807897438.283708068486-6.393413854782.093844039469-2.1353348804-.001093691195-4.274785393166-.283708068486-6.39341385478"/>
                <path id="Caminho_353" data-name="Caminho 353" class="cls-5" d="m21.101037651,84.918657687236c-.282945914343,2.118597975448-.377887455777,4.258078974381-.283708068486,6.39341385478-.09416795498,2.135334880402.000773586455,4.274812068563.283708068486,6.393413854782.282599134207-2.118632272386.377536864873-4.25807897438.283708068484-6.393413854782.093844039471-2.1353348804-.001093691193-4.274785393166-.283708068484-6.39341385478"/>
                <path id="Caminho_354" data-name="Caminho 354" class="cls-5" d="m15.139181193963,84.918657687236c-.282951630499,2.118597975448-.377891266548,4.258078974381-.283708068486,6.39341385478-.09417176575,2.135334880402.000767870299,4.274812068563.283708068486,6.393413854782.282597228823-2.118632272386.377536864871-4.25807897438.283708068484-6.393413854782.093844039471-2.1353348804-.001093691193-4.274785393166-.283708068484-6.39341385478"/>
                <path id="Caminho_355" data-name="Caminho 355" class="cls-5" d="m9.177323307887,84.918657687236c-.282613424601,2.118628461614-.377552107955,4.258078974381-.283708068486,6.39341385478-.093827843695,2.135334880402.001109886969,4.274781582396.283708068486,6.393413854782.281939870876-2.118689433944.375877274228-4.258170432877.280710897321-6.393417665551.09418891422-2.135334880402-.000751674521-4.274815879335-.283708068484-6.393413854783"/>
                <g id="Grupo_78" data-name="Grupo 78" class="cls-27">
                  <g id="Grupo_77" data-name="Grupo 77">
                    <g class="cls-7">
                      <g id="Grupo_76" data-name="Grupo 76">
                        <path id="Caminho_356" data-name="Caminho 356" d="m72.085502824561,84.711870025504c-21.008797970389,2.819044307085-42.299726350193,2.82374679814-63.309766631835.013985528501l63.309766631835-.013985528501Z"/>
                      </g>
                    </g>
                  </g>
                </g>
                <path id="Caminho_357" data-name="Caminho 357" class="cls-5" d="m7.708836146478,84.738838849809c0,.156839890054,14.616939862752.283708068484,32.644366126182.283708068484s32.647356628495-.12686817843,32.647356628495-.283708068484c0-.156839890054-14.613939833509-.283708068486-32.647360439265-.283708068486s-32.64436517349.126868178431-32.64436517349.283708068486"/>
                <rect id="Retângulo_73" data-name="Retângulo 73" class="cls-4" x=".063713959233" y="97.789392851646" width="65.406605106538" height="12.6849296062"/>
                <path id="Caminho_358" data-name="Caminho 358" class="cls-5" d="m61.265657767035,98.000179917237c-.282911617407,2.036856943749-.377883645009,4.095412415913-.283704257714,6.149661717176-.094217495,2.054584649086.000754532599,4.113475469072.283704257714,6.150660139102.282934482029-2.03718467003.377898888089-4.096075490016.283704257712-6.150660139102.094156522669-2.054249301264-.000807883389-4.112804773427-.283704257712-6.149661717176"/>
                <path id="Caminho_359" data-name="Caminho 359" class="cls-5" d="m55.201902253943,98.000179917237c-.282911617407,2.036856943749-.377883645007,4.095412415913-.283704257716,6.149661717176-.094217495,2.054584649086.000754532601,4.113475469072.283704257716,6.150660139102.283948147038-2.037093211533.380253944388-4.095953545354.287705566958-6.150660139102.093836417929-2.054249301264-.001127988129-4.112774287262-.283704257714-6.149661717176"/>
                <path id="Caminho_360" data-name="Caminho 360" class="cls-5" d="m49.207075961429,98.000179917237c-.282903995867,2.036856943749-.377876023467,4.095412415913-.283704257716,6.149661717176-.094209873459,2.054584649086.000762154141,4.113475469072.283704257716,6.150660139102.281745521568-2.037298993152.376374579804-4.096105976182.282705835787-6.150660139102.093630636309-2.054218815098-.000998421925-4.112698071847-.282705835787-6.149661717176"/>
                <path id="Caminho_361" data-name="Caminho 361" class="cls-5" d="m43.246218879009,98.000179917237c-.282576269585,2.036887429914-.377540675645,4.095412415913-.283704257714,6.149661717176-.093874525635,2.054584649086.001089880421,4.113444982906.283704257714,6.150660139102.282942103571-2.03718467003.377906509631-4.096075490016.283704257714-6.150660139102.09416414421-2.054249301264-.000800261849-4.112804773427-.283704257714-6.149661717176"/>
                <path id="Caminho_362" data-name="Caminho 362" class="cls-5" d="m37.284359563893,98.000179917237c-.282561026501,2.036887429914-.377533054103,4.095412415913-.283704257714,6.149661717176-.093866904093,2.054584649086.001105123505,4.113444982906.283704257714,6.150660139102.282614377291-2.037215156196.377578783351-4.096075490016.283704257714-6.150660139102.093836417929-2.054249301264-.001127988129-4.112774287262-.283704257714-6.149661717176"/>
                <path id="Caminho_363" data-name="Caminho 363" class="cls-5" d="m31.323504386861,98.000179917237c-.282915428179,2.036856943749-.377883645007,4.095412415913-.283708068484,6.149661717176-.094213684231,2.054584649086.000754532601,4.113475469072.283708068484,6.150660139102.282610566521-2.037215156196.377578783351-4.096075490016.283708068486-6.150660139102.093832607157-2.054249301264-.001139420443-4.112774287262-.283708068486-6.149661717176"/>
                <path id="Caminho_364" data-name="Caminho 364" class="cls-5" d="m25.361646977131,98.000179917237c-.282919238949,2.036849322207-.377891266548,4.095412415913-.283708068486,6.149661717176-.094217495,2.054584649086.000750721829,4.113475469072.283708068486,6.150660139102.282610566521-2.037215156196.377578783349-4.096075490016.283708068484-6.150660139102.093832607157-2.054249301264-.001139420441-4.112774287262-.283708068484-6.149661717176"/>
                <path id="Caminho_365" data-name="Caminho 365" class="cls-5" d="m19.399791472786,98.000179917237c-.282561026501,2.036887429914-.377529243331,4.095412415913-.283708068486,6.149661717176-.093859282551,2.054584649086.001108934277,4.113444982906.283708068486,6.150660139102.282964968197-2.03718467003.377933185026-4.096075490016.283708068486-6.150660139102.094187008834-2.054249301264-.000785018767-4.112812394969-.283708068486-6.149661717176"/>
                <path id="Caminho_366" data-name="Caminho 366" class="cls-5" d="m13.438932484984,98.000179917237c-.282570553429,2.036887429914-.377538770257,4.095412415913-.283708068486,6.149661717176-.093868809479,2.054584649086.001099407349,4.113444982906.283708068486,6.150660139102.282945914343-2.03718467003.377916036558-4.096075490016.283708068484-6.150660139102.094169860366-2.054249301264-.000800261849-4.112804773427-.283708068484-6.149661717176"/>
                <path id="Caminho_367" data-name="Caminho 367" class="cls-5" d="m7.477075075254,98.000179917237c-.282913522793,2.036856943749-.377883645007,4.095412415913-.283708068486,6.149661717176-.09421368423,2.054584649086.000755485293,4.113475469072.283708068486,6.150660139102.282609613829-2.037215156196.377577830657-4.096075490016.283708068484-6.150660139102.093830701773-2.054249301264-.001137515057-4.112774287262-.283708068484-6.149661717176"/>
                <path id="Caminho_368" data-name="Caminho 368" class="cls-5" d="m1.516217337858,98.000179917237c-.282913522791,2.036856943749-.377883049574,4.095412415913-.283707592138,6.149661717176-.094213803315,2.054584649086.000754770774,4.113475469072.283707592138,6.150660139102.282609375656-2.037215156196.377577116138-4.096075490016.28370759214-6.150660139102.093830939944-2.054249301264-.001137276884-4.112774287262-.28370759214-6.149661717176"/>
                <g id="Grupo_81" data-name="Grupo 81" class="cls-27">
                  <g id="Grupo_80" data-name="Grupo 80">
                    <g class="cls-13">
                      <g id="Grupo_79" data-name="Grupo 79">
                        <path id="Caminho_369" data-name="Caminho 369" d="m64.419399207378,97.802379958221c-20.948923141017,3.602336793927-42.358456042968,3.609432448987-63.309762940151.02097448198l63.309762940151-.02097448198Z"/>
                      </g>
                    </g>
                  </g>
                </g>
                <path id="Caminho_370" data-name="Caminho 370" class="cls-5" d="m.046731456807,97.829352593297c0,.156836079283,14.616938910058.283704257714,32.644365173488.283704257714s32.647360439269-.126868178431,32.647360439269-.283704257714c0-.156836079283-14.613943644283-.283704257715-32.647360439269-.283704257715S.046731456807,97.672516514013.046731456807,97.829352593297"/>
                <rect id="Retângulo_75" data-name="Retângulo 75" class="cls-4" x="4.269380743217" y="110.481317127482" width="65.406605106538" height="12.684929606201"/>
                <path id="Caminho_371" data-name="Caminho 371" class="cls-5" d="m65.471319590319,110.693096898842c-.282919238949,2.036849322207-.377883645007,4.095412415913-.283704257716,6.149661717176-.094240359624,2.054249301264.000731667977,4.112812394969.283704257716,6.149661717177.282621998833-2.036879808374.377594026431-4.095412415913.283704257714-6.149661717177.093828796387-2.054249301263-.001135609673-4.112774287261-.283704257714-6.149661717176"/>
                <path id="Caminho_372" data-name="Caminho 372" class="cls-5" d="m59.406569466069,110.693096898842c-.28342988222,2.03680359296-.378737257644,4.095381929747-.284710301181,6.149661717176-.094080307252,2.05427978743.001227068171,4.112858124217.284710301181,6.149661717177.282621998835-2.036879808374.377586404891-4.095412415913.283704257716-6.149661717177.093828796387-2.054249301263-.001143231213-4.112774287261-.283704257716-6.149661717176"/>
                <path id="Caminho_373" data-name="Caminho 373" class="cls-5" d="m53.413740017408,110.693096898842c-.283772851588,2.036773106794-.37908022701,4.095381929747-.284710301183,6.149661717176-.094430898158,2.05427978743.000876477265,4.112896231925.284710301183,6.149661717177.281768386194-2.036956023788.37640506597-4.095442902079.282705835787-6.149661717177.093638257853-2.054218815098-.000998421925-4.112698071846-.282705835787-6.149661717176"/>
                <path id="Caminho_374" data-name="Caminho 374" class="cls-5" d="m47.450886091137,110.693096898842c-.282561026501,2.036887429915-.377525432559,4.095412415913-.283704257714,6.149661717176-.093874525637,2.054249301264.001089880423,4.112781908803.283704257714,6.149661717177.282972589739-2.036849322208.377944617338-4.095412415913.283704257714-6.149661717177.094179387293-2.054249301263-.000785018767-4.112812394969-.283704257714-6.149661717176"/>
                <path id="Caminho_375" data-name="Caminho 375" class="cls-5" d="m41.490032819489,110.693096898842c-.282568648043,2.036887429915-.377533054101,4.095412415913-.283704257714,6.149661717176-.093889768719,2.054249301264.001074637341,4.112781908803.283704257714,6.149661717177.282972589737-2.036849322208.377944617338-4.095412415913.283704257716-6.149661717177.094179387292-2.054249301263-.000785018767-4.112812394969-.283704257716-6.149661717176"/>
                <path id="Caminho_376" data-name="Caminho 376" class="cls-5" d="m35.5291719263,110.693096898842c-.28377666236,2.036773106794-.379084037781,4.095381929747-.284706490411,6.149661717176-.09443470893,2.05427978743.000872666493,4.112896231925.284706490411,6.149661717177.281760764654-2.036956023788.37639363366-4.095442902079.282709646559-6.149661717177.093626825541-2.054218815098-.001002232695-4.112698071846-.282709646559-6.149661717176"/>
                <path id="Caminho_377" data-name="Caminho 377" class="cls-5" d="m29.567314516571,110.693096898842c-.282915428179,2.03685694375-.377883645007,4.095412415913-.283708068484,6.149661717176-.094232738085,2.054249301264.000739289515,4.112812394969.283708068484,6.149661717177.282633431145-2.036879808374.377601647973-4.095412415913.283708068486-6.149661717177.093836417927-2.054249301263-.001131798903-4.112774287261-.283708068486-6.149661717176"/>
                <path id="Caminho_378" data-name="Caminho 378" class="cls-5" d="m23.606455528767,110.693096898842c-.283426071452,2.03680359296-.378733446874,4.095381929747-.284706490411,6.149661717176-.094087928795,2.05427978743.001219446627,4.112858124217.284706490411,6.149661717177.282625809603-2.036879808374.377594026433-4.095412415913.283708068484-6.149661717177.093832607159-2.054249301263-.001139420439-4.112774287261-.283708068484-6.149661717176"/>
                <path id="Caminho_379" data-name="Caminho 379" class="cls-5" d="m17.643600649804,110.693096898842c-.282907806637,2.03685694375-.377877928851,4.095412415913-.283708068486,6.149661717176-.094230832696,2.054249301264.000739289519,4.112812394969.283708068486,6.149661717177.282633431145-2.036879808374.377599742589-4.095412415913.283708068486-6.149661717177.093836417927-2.054249301263-.001131798901-4.112774287261-.283708068486-6.149661717176"/>
                <path id="Caminho_380" data-name="Caminho 380" class="cls-5" d="m11.682742614694,110.693096898842c-.282913522793,2.03685694375-.377883645007,4.095412415913-.283708068486,6.149661717176-.094230832696,2.054249301264.000739289519,4.112812394969.283708068486,6.149661717177.282976400509-2.036849322208.377944617338-4.095412415913.283708068484-6.149661717177.094175576522-2.054249301263-.000794545691-4.112804773426-.283708068484-6.149661717176"/>
                <path id="Caminho_381" data-name="Caminho 381" class="cls-5" d="m5.720885204964,110.693096898842c-.284239671,2.036734999087-.380878910784,4.095259985085-.288703036191,6.149661717176-.093886910643,2.054249301264.001080353495,4.112781908803.283708068484,6.149661717177.282632478451-2.036879808374.377599742587-4.095412415913.283708068486-6.149661717177.093830701771-2.054249301263-.001137515057-4.112774287261-.283708068486-6.149661717176"/>
                <g id="Grupo_84" data-name="Grupo 84" class="cls-27">
                  <g id="Grupo_83" data-name="Grupo 83">
                    <g class="cls-12">
                      <g id="Grupo_82" data-name="Grupo 82">
                        <path id="Caminho_382" data-name="Caminho 382" d="m68.624072135664,110.494304234057c-20.905872864323,4.075169601909-42.401327213442,4.081952773769-63.309766631835.019976060054l63.309766631835-.019976060054Z"/>
                      </g>
                    </g>
                  </g>
                </g>
                <path id="Caminho_383" data-name="Caminho 383" class="cls-5" d="m4.252397805381,110.520274636436c0,.156836079283,14.616938910058.284710301182,32.644363268104.284710301182,18.02742245266,0,32.651354126969-.127866600356,32.651354126969-.284710301182,0-.156843700825-14.613939833509-.283704257714-32.647360439267-.283704257714s-32.648356955806.127866600356-32.648356955806.283704257714"/>
                <rect id="Retângulo_77" data-name="Retângulo 77" class="cls-4" x=".53223120708" y="122.992424143966" width="65.406605106538" height="12.6849296062"/>
                <path id="Caminho_384" data-name="Caminho 384" class="cls-5" d="m61.734165350263,123.204211536867c-.282568648045,2.036887429915-.377533054101,4.095412415913-.283704257714,6.149661717177-.093874525635,2.054584649085.001097501963,4.113444982906.283704257714,6.150660139101.282614377291-2.037215156195.377578783349-4.096075490016.283704257714-6.150660139101.093836417929-2.054249301264-.001127988131-4.112774287262-.283704257714-6.149661717177"/>
                <path id="Caminho_385" data-name="Caminho 385" class="cls-5" d="m55.669422847555,123.204211536867c-.282903995863,2.03685694375-.377868401923,4.095412415913-.283704257712,6.149661717177-.094202251916,2.054584649085.000762154141,4.113475469071.283704257712,6.150660139101.282621998835-2.037215156195.377594026435-4.096075490016.283704257716-6.150660139101.093851661011-2.054249301264-.001120366589-4.112774287262-.283704257716-6.149661717177"/>
                <path id="Caminho_386" data-name="Caminho 386" class="cls-5" d="m49.675594976967,123.204211536867c-.282568648043,2.036887429915-.377533054101,4.095412415913-.283704257714,6.149661717177-.093874525635,2.054584649085.001097501965,4.113444982906.283704257714,6.150660139101.282606755751-2.037215156195.377571161809-4.096075490016.283704257714-6.150660139101.093828796387-2.054249301264-.001135609669-4.112774287262-.283704257714-6.149661717177"/>
                <path id="Caminho_387" data-name="Caminho 387" class="cls-5" d="m43.714737894548,123.204211536867c-.282911617405,2.03685694375-.377883645006,4.095412415913-.283704257714,6.149661717177-.094217495,2.054584649085.000754532601,4.113475469071.283704257714,6.150660139101.282957346655-2.03718467003.377921752715-4.096075490016.283704257714-6.150660139101.094179387293-2.054249301264-.000792640307-4.112804773427-.283704257714-6.149661717177"/>
                <path id="Caminho_388" data-name="Caminho 388" class="cls-5" d="m37.753877001358,123.204211536867c-.283788094668,2.036773106794-.379095470091,4.095381929747-.284710301179,6.149661717177-.094423276618,2.05461513525.000884098803,4.113559306027.284710301179,6.150660139101.281745521572-2.037298993151.37638220135-4.096105976181.282705835791-6.150660139101.093638257851-2.054218815098-.000998421925-4.112698071847-.282705835791-6.149661717177"/>
                <path id="Caminho_389" data-name="Caminho 389" class="cls-5" d="m31.7920234024,123.204211536867c-.282915428177,2.03685694375-.377883645007,4.095412415913-.283708068486,6.149661717177-.094217494998,2.054584649085.000750721831,4.113475469071.283708068486,6.150660139101.282602944979-2.037215156195.377571161807-4.096075490016.283708068484-6.150660139101.093824985617-2.054249301264-.001143231213-4.112774287262-.283708068484-6.149661717177"/>
                <path id="Caminho_390" data-name="Caminho 390" class="cls-5" d="m25.830164087285,123.204211536867c-.282903995863,2.03685694375-.377872212695,4.095412415913-.283708068484,6.149661717177-.094209873459,2.054584649085.000762154141,4.113475469071.283708068484,6.150660139101.282614377293-2.037215156195.377582594121-4.096075490016.283708068486-6.150660139101.093836417929-2.054249301264-.001131798901-4.112774287262-.283708068486-6.149661717177"/>
                <path id="Caminho_391" data-name="Caminho 391" class="cls-5" d="m19.869305099483,123.204211536867c-.2837842839,2.036773106794-.379087848551,4.095381929747-.284706490411,6.149661717177-.09442327662,2.05461513525.000884098803,4.113559306027.284706490411,6.150660139101.281734089256-2.037298993151.376366958264-4.096105976181.282709646559-6.150660139101.093615393227-2.054218815098-.001013665009-4.112698071847-.282709646559-6.149661717177"/>
                <path id="Caminho_392" data-name="Caminho 392" class="cls-5" d="m13.907448642445,123.204211536867c-.282913522791,2.03685694375-.377883645006,4.095412415913-.283708068486,6.149661717177-.094213684228,2.054584649085.000754532601,4.113475469071.283708068486,6.150660139101.282610566521-2.037215156195.377576877963-4.096075490016.283708068484-6.150660139101.093830701773-2.054249301264-.001137515057-4.112774287262-.283708068484-6.149661717177"/>
                <path id="Caminho_393" data-name="Caminho 393" class="cls-5" d="m7.94559218541,123.204211536867c-.282913522793,2.03685694375-.377883645009,4.095412415913-.283708068488,6.149661717177-.094213684228,2.054584649085.000755485293,4.113475469071.283708068488,6.150660139101.282609613825-2.037215156195.377577830657-4.096075490016.283708068484-6.150660139101.093830701771-2.054249301264-.001137515057-4.112774287262-.283708068484-6.149661717177"/>
                <path id="Caminho_394" data-name="Caminho 394" class="cls-5" d="m1.984734626643,123.204211536867c-.283084292954,2.036841700666-.37838809578,4.095381929747-.284706728584,6.149661717177-.09374186318,2.05461513525.001560510605,4.113490712154.284706728584,6.150660139101.282090872664-2.037260885444.376723979845-4.096105976181.282708693867-6.150660139101.093970509422-2.054218815098-.000661406892-4.112728558013-.282708693867-6.149661717177"/>
                <g id="Grupo_87" data-name="Grupo 87" class="cls-27">
                  <g id="Grupo_86" data-name="Grupo 86">
                    <g class="cls-10">
                      <g id="Grupo_85" data-name="Grupo 85">
                        <path id="Caminho_395" data-name="Caminho 395" d="m64.887917746573,123.006409672466c-20.949151787261,3.601018267261-42.358684689212,3.60676490949-63.309766631835.016980794278l63.309766631835-.016980794278Z"/>
                      </g>
                    </g>
                  </g>
                </g>
                <path id="Caminho_396" data-name="Caminho 396" class="cls-5" d="m.515248715819,123.032383885617c0,.156836079283,14.616938731428.283704257713,32.644365947554.283704257713,18.02742626343,0,32.647360439265-.12686817843,32.647360439265-.283704257713,0-.156836079284-14.613943644281-.283711879257-32.643366751563-.283711879257s-32.64436517349.126868178431-32.64436517349.283704257715"/>
                <path id="Caminho_397" data-name="Caminho 397" class="cls-5" d="m65.938836373161,135.677358007511c-.015319298247-.07120043992-.022026254695-.143978538912-.019976060055-.216779502531-.004992109627-.165829498154-.010990262723-.375612425664-.019976060054-.638342201398-.008993418873-.591393506268-.020982103521-1.415541265877-.036964475872-2.468457212664-.015982372353-2.17975322378-.036964475874-5.300538166343-.064935532875-9.190527176438v-.137858441156h.141852128856l3.603289486604-.015982372352-.156836079284.157834501209c-.010990262723-3.706180295736-.023977369297-7.99176541309-.036964475872-12.691924275836l.193800555156.193800555157-4.204667212129.007991186175h-.19979108671v-.199794897481c0-3.920959143644-.006996575023-8.170582017821-.01198868465-12.587029001311v-.21877253561h7.875887497385l-.21377661521.213780425981c0-4.695162942345.007994996946-9.202517766473.011988684648-13.432158864441l.19979108671.199794897483-6.209605140422-.01098835734h-.19080528938v-.190803383995c.013985528502-4.595265493604.027971056999-8.732003812467.038961319724-12.300325667048v-.152846202352h.150845547731l1.598351558308.006992764249-.144847394633.145849627331c-.013985528502-4.086788641799-.023977369297-7.366409841921-.031964744703-9.655051551583.004992109629-1.107858447998.008993418873-1.974965025805.011988684648-2.597323663987.005990531554-.276714827887.009991840798-.499485338318.012987106576-.671308285649-.000510643276-.072561778212.007194735097-.144948022798.02296370429-.215777686636.016813120366.074718019457.02452612028.151194828682.022978947371.227765299507.006996575023.173820862961.015982372353.39459345776.026972635078.671308285649.015982372352.619361824279.036964475872,1.485469503813.063937110948,2.597323783072.038961319724,2.289640607934.093905011801,5.568261957091.163832654305,9.654052176965v.144851205406h-.146851860029l-1.598351558308.006992764249.150845547729-.151843969655c.010990262723,3.569322181892.024975791222,7.710056093843.038961319724,12.300325667049l-.189806867453-.189804962069,6.209605140422-.010988357339h.19979108671v.199794897482c0,4.228642676041.007994996946,8.737996249406.011988684648,13.432160769826v.213780425982h-7.875887497385l.212778193287-.212782004056c0,4.41645079426-.007994996946,8.666069857666-.01198868465,12.587032812082l-.19979108671-.199794897482,4.204667212129.007991186177h.19979108671v.193800555156c-.0139855285,4.695162942345-.025974213149,8.990736089728-.036964475874,12.691924275836v.157834501209h-.156836079281l-3.603289486606-.015982372352.141852128856-.140853706931c-.027971056999,3.886993744318-.048953160522,7.007778686881-.064935532873,9.190527176438-.015982372352,1.052915946788-.027971057001,1.877063706396-.036964475872,2.468457212664-.007994996948.262729775734-.013985528502.472512703243-.019976060055.6383422014.00205019464.072800963617-.004656761806.14557906261-.019976060055.216779502529"/>
              </g>
            </g>
          </g>
        </g>
      </g>
    </g>
    <g id="Grupo_798" data-name="Grupo 798">
      <g class="cls-11">
        <g id="Grupo_126" data-name="Grupo 126">
          <path id="Caminho_398" data-name="Caminho 398" class="cls-4" d="m144.867595505193,135.829842386798h6.325483056131l.907062508688-2.205719815388,1.12284358929,2.205719815388h4.150721941978l-.482504544043-16.882598337923-.19979108671-9.972725972086-24.921320067686-2.063867686533,13.097504602352,28.919191996541Z"/>
          <g id="Grupo_96" data-name="Grupo 96">
            <g class="cls-14">
              <g id="Grupo_95" data-name="Grupo 95">
                <g id="Grupo_94" data-name="Grupo 94" class="cls-27">
                  <g id="Grupo_93" data-name="Grupo 93">
                    <g class="cls-19">
                      <g id="Grupo_92" data-name="Grupo 92">
                        <path id="Caminho_399" data-name="Caminho 399" d="m131.764098465903,106.914636456419l13.103498944676,28.915198308839h6.325483056131l.907062508684-2.205719815389,1.122843589292,2.205719815389h4.15072194198l-.483502965968-16.882598337923-.199791086712-9.972725972087-24.926315988083-2.059873998829Z"/>
                      </g>
                    </g>
                  </g>
                </g>
              </g>
            </g>
          </g>
          <path id="Caminho_400" data-name="Caminho 400" class="cls-4" d="m201.897829354102,135.829842386798h6.324477012664l.907070130228-2.018915835252,1.12283596775,2.018915835252h4.148740341208l-.483495344426-15.451074699693-.19979108671-9.129585331268-24.597656068319-1.235726239221,12.777819047606,25.816386270181Z"/>
          <g id="Grupo_125" data-name="Grupo 125">
            <g class="cls-24">
              <g id="Grupo_124" data-name="Grupo 124">
                <g id="Grupo_99" data-name="Grupo 99" class="cls-27">
                  <g id="Grupo_98" data-name="Grupo 98">
                    <g class="cls-18">
                      <g id="Grupo_97" data-name="Grupo 97">
                        <path id="Caminho_401" data-name="Caminho 401" d="m189.118996641488,110.013448495076l12.779831134541,25.816401513265h6.325483056131l.907070130228-2.019921878721,1.122835967748,2.019921878721h4.147734297741l-.483495344424-15.451074699694-.199791086712-9.129600574351-24.599668155253-1.235726239221Z"/>
                      </g>
                    </g>
                  </g>
                </g>
                <path id="Caminho_402" data-name="Caminho 402" class="cls-4" d="m261.811086539525,33.922848496002c.041278268316.008760961859.081245631509.022864624253.118865559942.041956585503l.340652415183.147846471182c.426714860869.214157692281.825321476988.480233324697,1.186765457158.792183014904.574054499546.495186788958,1.059790577146,1.084305265114,1.436508126317,1.742204341788.503235136695.874484229899.798219275706,1.853139687888.862118278948,2.860052010681.075117912207,1.229499439884-.235322712797,2.451788901584-.8880924921,3.496397368228-.745142861277,1.205194344303-1.847583584193,2.148032368403-3.153763352275,2.697217778302-1.449098912737.640209479045-3.101479578154.637305671765-4.548322514631-.007994996947-.765416161448-.362000352694-1.365627791136-1.000052935517-1.680214534672-1.78614633883-.351505490162-.817875231021-.264254084019-1.758198146454.231755831413-2.497426691591.530977547452-.705419387411,1.346970257746-1.139580494242,2.228691141219-1.185774656773.846204500471-.035219142888,1.676342791634.238531381735,2.335606124223.770210111,1.239354092935.999610886115,1.934042350031,2.525649259459,1.874076062159,4.116760353422-.041461185308,1.417431408148-.547988827895,2.781877860365-1.441507857484,3.883000056617-.399216339434.498273513232-.876995527795.928143692246-1.414527600868,1.272690715094-.499454852155.30885534439-1.03668206357.551944407893-1.598359179852.723253794327-.968880831122.278010966274-1.984618898876.353502334013-2.983924923336.221771612158-.750950475836-.09405744263-1.484417135664-.295929210148-2.177748758388-.599380881674-.437827068254-.188419746915-.855792399572-.419992661336-1.247707302329-.691289049623l-.299694251606-.223768456009c-.06592633326-.0519484263-.099903164897-.079919483302-.099903164897-.082914749079.529194106761.354058706536,1.090398687478.657746645847,1.676266576216.907062508686.689779984425.282850645075,1.415747047497.467787347565,2.156774276409.549436920767.979063210456.114780413743,1.971265958313.028778940392,2.916001746224-.252737934937.54326347222-.171400844932,1.062290442731-.41178426123,1.544398666618-.715266418923.516252729438-.337169370755.974398827108-.755851126968,1.356603886097-1.239719926923.854984516185-1.068357189699,1.336696419918-2.387234445781,1.371572593443-3.75513345626.052741066605-1.51451460272-.61091227384-2.965412199233-1.791153691542-3.915963223245-.61252804062-.493029892737-1.383096364065-.747162569752-2.168755339517-.715266418923-.805414010805.042337662573-1.551105623064.437849932878-2.037908716464,1.080887003789-.446073576068.670771860129-.521313432937,1.522059928724-.199806329794,2.260671129006.29239281493.729709239909.850777425319,1.321293284712,1.562385504363,1.655292094239,1.383340253389.616224488206,2.962249259543.621300434789,4.349522228304.013985528502,1.264779555102-.524529723416,2.335362234895-1.428978043396,3.063829163553-2.588336437616.638868087755-1.006980916666.949186768097-2.187542439109.888092492098-3.378518797898-.053930027068-.98156688681-.330287118855-1.938032226964-.808157765714-2.797117132428-.360163561212-.651413144929-.826022658797-1.238473804901-1.378584411545-1.73720842139-.479029121154-.419432478043-1.010616391923-.774722063518-1.581378385574-1.05690963449"/>
                <path id="Caminho_403" data-name="Caminho 403" class="cls-4" d="m255.553552859554,60.085889145234c1.898038188376,42.906785934845-34.09187118407,64.315733883492-74.837889154804,64.315733883492s-73.775987410685-27.878279977485-73.775987410685-62.26784094777S139.970640345171-.13306044489,180.715656083208-.13306044489c40.745019548809,0,73.314457348624,25.863350208395,74.837896776346,60.218949590124"/>
                <g id="Grupo_102" data-name="Grupo 102" class="cls-27">
                  <g id="Grupo_101" data-name="Grupo 101">
                    <g class="cls-17">
                      <g id="Grupo_100" data-name="Grupo 100">
                        <path id="Caminho_404" data-name="Caminho 404" d="m175.573955127116,15.245094204602s4.894957839826-1.551400957794,9.471236168376,3.617273109719c4.576278328548,5.168674067514,10.945722435574,13.985589472911,10.945722435574,13.985589472911-.542547047327,2.975640307813-2.640101946921,5.43130857398-5.494338721501,6.432371363735l-14.922619882449-24.035233946365Z"/>
                      </g>
                    </g>
                  </g>
                </g>
                <path id="Caminho_405" data-name="Caminho 405" class="cls-4" d="m157.464615870958,87.398742208059c0,10.688983191394-11.311346831211,19.348060284811-25.262967094026,19.348060284811s-25.261972482867-8.663070781119-25.261972482867-19.348060284811,11.310344598513-19.348060284809,25.262970904794-19.348060284809,25.262970904794,8.662072359194,25.262970904794,19.348060284809"/>
                <path id="Caminho_406" data-name="Caminho 406" class="cls-4" d="m155.764368591015,35.68103711553s14.805743544817-22.954346942577,21.586758509911-20.468908935635,13.145459340951,24.06020973759,13.145459340951,24.06020973759"/>
                <path id="Caminho_407" data-name="Caminho 407" class="cls-4" d="m139.017624228856,30.418460894292l-.692287471551-6.215595671978c-5.710657120775-2.344248952187-11.583664506046-4.271645318102-17.57289277639-5.767056527261-8.302446116653-1.898043904533-9.935762448908,0-9.935762448908,0l13.136464969384,18.388050927899,15.064477727465-6.40539872866Z"/>
                <g id="Grupo_105" data-name="Grupo 105" class="cls-27">
                  <g id="Grupo_104" data-name="Grupo 104">
                    <g class="cls-16">
                      <g id="Grupo_103" data-name="Grupo 103">
                        <path id="Caminho_408" data-name="Caminho 408" d="m158.782258913676,8.403143110491l4.912937056031,2.914996655449s23.797478056469-6.293515453347,42.068660268276,0l-6.705096791038-5.702124805157s-22.15916675651-4.758096867906-40.276500533269,2.787128149708"/>
                      </g>
                    </g>
                  </g>
                </g>
                <g id="Grupo_108" data-name="Grupo 108" class="cls-27">
                  <g id="Grupo_107" data-name="Grupo 107">
                    <g class="cls-20">
                      <g id="Grupo_106" data-name="Grupo 106">
                        <path id="Caminho_409" data-name="Caminho 409" d="m157.464616347304,87.398742208059c0,10.688983191394-11.311346831211,19.348060284811-25.262967094024,19.348060284811s-25.261972482869-8.663070781119-25.261972482869-19.348060284811,11.310344598513-19.348060284809,25.262970904794-19.348060284809,25.262970904794,8.662072359194,25.262970904794,19.348060284809"/>
                      </g>
                    </g>
                  </g>
                </g>
                <path id="Caminho_410" data-name="Caminho 410" class="cls-4" d="m149.447878374142,87.398742208059c0,10.688983191394-10.59608422306,19.348060284811-23.666614284952,19.348060284811s-23.665616869679-8.663070781119-23.665616869679-19.348060284811,10.596082371636-19.348060284809,23.666613386222-19.348060284809c13.070531967276,0,23.665617768409,8.662072359194,23.665617768409,19.348060284809"/>
                <g id="Grupo_111" data-name="Grupo 111" class="cls-27">
                  <g id="Grupo_110" data-name="Grupo 110">
                    <g class="cls-22">
                      <g id="Grupo_109" data-name="Grupo 109">
                        <path id="Caminho_411" data-name="Caminho 411" d="m116.69162859957,96.474397512258h0c-1.397497266571.000548750982-2.530839529163-1.131890358953-2.531392090916-2.529391436295v-13.092512492724c.027776707693-1.397775452834,1.183411978935-2.508371225067,2.581185526382-2.480598328141,1.358655986123.026995499698,2.45359901767,1.12193662586,2.480598328142,2.480598328141v13.092512492724c-.000552561753,1.397501077342-1.133894824346,2.529940187277-2.531392090918,2.529391436295"/>
                      </g>
                    </g>
                  </g>
                </g>
                <g id="Grupo_114" data-name="Grupo 114" class="cls-27">
                  <g id="Grupo_113" data-name="Grupo 113">
                    <g class="cls-21">
                      <g id="Grupo_112" data-name="Grupo 112">
                        <path id="Caminho_412" data-name="Caminho 412" d="m130.289617914861,96.474397512258h0c-1.397497266571.000548750982-2.530839529165-1.131890358953-2.531392090918-2.529391436295v-13.092512492724c.027750032301-1.397775452834,1.183366249685-2.508401711232,2.581137891746-2.48064405739,1.358695999219.026965013534,2.453675233088,1.121951868944,2.480647868164,2.48064405739v13.092512492724c-.000552561753,1.397501077342-1.133894824346,2.529940187277-2.531392090918,2.529391436295"/>
                      </g>
                    </g>
                  </g>
                </g>
                <g id="Grupo_117" data-name="Grupo 117" class="cls-27">
                  <g id="Grupo_116" data-name="Grupo 116">
                    <g class="cls-25">
                      <g id="Grupo_115" data-name="Grupo 115">
                        <path id="Caminho_413" data-name="Caminho 413" d="m137.585099310623,31.028832991382c2.262477434322-1.027448566142,3.341943020636-3.632228479365,2.469455634589-5.958860238567,0,0-10.99567020725-4.739120182468-19.298114418518-6.635165337765s-9.935762448906,0-9.935762448906,0l13.133467798221,18.389053160596,13.630953434613-5.795027584263Z"/>
                      </g>
                    </g>
                  </g>
                </g>
                <path id="Caminho_414" data-name="Caminho 414" class="cls-4" d="m138.329331874047,31.536306657798s-.616365486721-.419565855019-1.656294326933-1.113853981189c-4.89495783983-3.26763299182-19.210205654428-12.609007621373-22.836470277634-12.713900990513-4.981866276608-.143850878093-4.987860618932,4.148725098126-4.981866276608,7.46730428355,0,2.354572330037,1.937004271565,22.815491984882,1.937004271565,22.815491984882"/>
                <path id="Caminho_415" data-name="Caminho 415" class="cls-5" d="m190.496582631107,39.27433666672c-.023824938471-.045073795941-.042589173439-.092647457466-.055942114002-.141852128857l-.142850550785-.422564931565-.544437189596-1.62432577146c-.479509278264-1.407550079701-1.190774387942-3.440455254226-2.163770851428-5.913908387288-1.119673028061-2.903353798242-2.415411284401-5.735701505871-3.880004790837-8.481258910612-.857857837298-1.620644566955-1.863062934814-3.158888838879-3.002902561466-4.595265493605-.59592070187-.757726026157-1.286889646755-1.435603068272-2.055880311125-2.016920896786-.752688187282-.632254495192-1.715166923612-.959142406576-2.697217778303-.91605592756-.980610383362.120877646877-1.924248669311.449158394956-2.768151464272.96300843346-.839977701133.483722085281-1.639431666548,1.034618531229-2.390542194757,1.647297097291-1.415586995125,1.165726192075-2.750599054387,2.425980456961-3.995882706546,3.772114250537-2.116425836144,2.283749156418-4.116889919627,4.672298318093-5.993824059819,7.156627390759-1.613335508735,2.113823079751-2.859053588754,3.87001295004-3.713176870757,5.087756162286l-.981982260817,1.406551657775-.255733200713.364625973712c-.026965013534.043172221358-.058441979587.08335679848-.093905011801.119875414181.018893801171-.04748220303.043015979758-.092716051341.071924486354-.134859364608l.234758718732-.378611502212c.209782927508-.331658996311.524461129542-.816160384203.939034874933-1.434522714776.829147490776-1.235726239221,2.053883467273-3.008900714559,3.651236603659-5.139704588587,1.860105776741-2.505509336263,3.850806665669-4.911363207728,5.963856158965-7.207573584363,1.25051202957-1.358930361615,2.592962713255-2.630287306962,4.017863231993-3.805079322552.75913601132-.621494784094,1.56764436794-1.180104229958,2.417507208291-1.670279855434.875212087103-.533866111651,1.854442971469-.87446708143,2.872040695329-.998970676636.523150224421-.050675628884,1.050850509064.023975463912,1.539414178531.217776019071.470546345556.194621776244.915964469063.445166612637,1.326635985246.746230836315.785094981386.594531675946,1.490194264059,1.287882352523,2.097836896626,2.062874980761,1.147545005024,1.44969720374,2.157536430552,3.00315026156,3.016888089966,4.64021925027,1.459548046019,2.758723617538,2.742794595975,5.607168020641,3.84204189304,8.528211416513.953020403431,2.486436428867,1.639309721884,4.529333444189,2.089849521222,5.947869975843.22576529986.709268265827.392593219942,1.262698874296.49948533832,1.639309721885l.118880803024.429557695816c.015799455359.048316761814.026187616311.098237858097.030966322778.148844893108"/>
                <path id="Caminho_416" data-name="Caminho 416" class="cls-5" d="m199.05976549041,5.616015675303c.043854349316.024137421668.084766783644.053304107979.121868447264.086910342165l.339646371714.275715929616,1.291668353222,1.077889832626,4.717139657023,3.995882706547.313672158565.265725994203-.399582173419-.11088580608c-2.853992885255-.801312668828-5.753135781864-1.432111449609-8.682048419249-1.889053343737-3.578191750717-.552555083899-7.191419727329-.847677363349-10.811857682123-.883089902851-7.456786556393-.078080786434-14.885800215861.920528819677-22.057274369303,2.964944427127l-.031964744703.008990560795-.027971056999-.016982699663-3.735149774664-2.188744737267-.984985148136-.589392851645-.250741091086-.155839562744c-.029708768443-.015591768353-.056963400551-.035448741824-.080917905225-.058939285163.032361064857.00938783364.063289279928.023168533216.091908167949.040958163575l.261731353808.137857488463,1.004961208189.554429030394,3.771115828613,2.127807655559-.059935801706-.006992764251c3.090824663253-.914319168809,6.237469495843-1.628070806373,9.420293785544-2.136798216352,1.884060281416-.311679125487,3.909972691688-.535448534189,6.034782223394-.721256950477,2.127804797479-.139856237698,4.355512759859-.254737636866,6.648148633569-.211781676745,3.632929661175.034770424638,7.258367347138.337278930414,10.846817692604.90506757022,2.936396991056.46898869303,5.840951182072,1.119229073273,8.697032369673,1.946994206976l-.083913171004.154840188125-4.665191230722-4.061814755961-1.259703608519-1.113852075804-.323671620905-.299691393529c-.037376039112-.031591289175-.070910821347-.067467790011-.099903164899-.106890212991"/>
                <path id="Caminho_417" data-name="Caminho 417" class="cls-5" d="m139.897717913236,71.867748025065c-.04910559135-.022216793231-.095661777097-.049684828499-.138856863079-.081916327153l-.391594798017-.259734509957-.631349437146-.427560851964c-.258732277263-.155837657358-.567416136972-.317673467811-.907066319458-.511474022968-1.960496720292-1.028641337373-4.069853576771-1.744235482577-6.251557915155-2.120815844-1.505465927674-.254323215551-3.027773556492-.39623631674-4.554307330029-.424565586188-1.75235814034-.012362140179-3.502873773046.116251371237-5.234606116928.384605844537-3.982506901359.583451860111-7.781659522767,2.059401463262-11.113550682967,4.3175574836-.861339929032.60419769585-1.679178957731,1.268148276411-2.447477967218,1.98695109055-.740903855212.70282806333-1.428120619988,1.460165390875-2.055881740167,2.265663238635-1.186031883795,1.525756376311-2.14158430619,3.217410844651-2.836077737635,5.02081997479-1.108529471128,3.095046997198-1.323173877727,6.439699475809-.619361824276,9.651051195033.287327586138,1.2241110101.714706950148,2.411059384252,1.273687588893,3.537355531804.441936746289.840457858241.96096586036,1.638067410635,1.550402535868,2.382539576269l.671308226107.794179858755.544439094983.535443770724.331658043619.332649796696c.040043102259.036080377069.07620255282.07626114342.107888634915.11987160341-.044923270498-.028946614303-.086765532877-.06243566729-.124871334578-.099903164897l-.349639641554-.314678202034-.563419591188-.520459820297-.694284553574-.7841956395c-.607734091067-.740539450262-1.142973509213-1.537706953253-1.598353106436-2.380542732417-.578248967231-1.131478795716-1.022144806922-2.326704163846-1.322637176821-3.561332901102-.737435011857-3.246014489589-.53824470208-6.634673748345.574408186701-9.77192884191.337713239189-.89547014419.743482079768-1.763784736311,1.213749286371-2.597322234945.483602998698-.873421024871,1.033659646051-1.708360887126,1.645304540556-2.497426691592.634198464601-.817059726091,1.32912298948-1.585112940867,2.078858305807-2.29763560488.777121420026-.72429032396,1.604320177932-1.392905287868,2.475449024221-2.000890889802,3.362479263988-2.281188318502,7.20034455233-3.766588633009,11.222435834423-4.343524075208,1.745041460583-.264421757929,3.50874617071-.386031072781,5.27356553127-.363623741016,1.537144864573.03688826046,3.069288092593.190172701442,4.583276808955.458527174742,2.194575216452.394140392849,4.311035349532,1.140335026843,6.267542192891,2.209721124633.338651760561.19979108671.644336543723.370620316036.89907513328.533446926874l.621361407122.450532177795.37861150221.279710570011c.044399289527.028824669641.085589910115.062313722628.122874490729.099895543356"/>
                <path id="Caminho_418" data-name="Caminho 418" class="cls-5" d="m119.080167281627,80.022355292077c.03959581305.255778929961.05797325479.51439307333.054943692077.773205376775.022977041988.542440345746.052944942841,1.251716233115.089907513327,2.10682269396.074923562903,1.778166584966.219772862922,4.234635112982.287703661574,6.955830260582.016982699663.679292743434.021976714677,1.345613623374.018979543514,1.986951090549.010334810162.623625004922-.036143254785,1.246884175855-.138856863079,1.86207975597-.137387810973,1.085978193455-.772534681131,2.046079008864-1.718228877877,2.597329856489-.665476794229.335774628676-1.458949755021.294359172614-2.085850117364-.108881340687-.163855518929-.108667937527-.304722563558-.248523222532-.414573745389-.411578479612-.041182999048-.054250131808-.071383356913-.11599986037-.088909091402-.18181949205.155780495796.200217893031.343830597954.373059209291.556425874247.511466401426.602056042711.343335197764,1.337675787987.355758310273,1.950988847371.032970788171.874785280783-.542364130331,1.453595622173-1.454921770379,1.571380828618-2.477443009995.093342923125-.602010313462.133457000988-1.211078174278.119877319567-1.820130792009,0-.639340623325-.007991186176-1.298664928244-.023975463911-1.980960558996-.066930471341-2.713207772194-.18480904167-5.172663944445-.213780425982-6.955830260582-.016982699664-.891080136334-.017981121589-1.61233708681-.008991513489-2.110831624744-.008221737802-.258858032694.006487837132-.517929468548.043955334739-.77419617716"/>
                <path id="Caminho_419" data-name="Caminho 419" class="cls-5" d="m132.499339039494,80.022355292077c.038656458068.255870388458.056696646603.514438802578.053945270151.773205376775.023973558529.542440345746.052946848225,1.251716233115.089907513329,2.10682269396.073925140976,1.778166584966.219774768306,4.234635112982.287701756188,6.955830260582.016980794277.679292743434.021976714677,1.345613623374.019979870825,1.986951090549.010041380818.623609761838-.036434778747,1.24685368969-.138856863081,1.86207975597-.137907981174,1.086054408869-.773369239916,2.046079008864-1.719229205188,2.597329856489-.665478699613.335774628676-1.458949755019.294359172614-2.085852022748-.108881340687-.163855518929-.108667937527-.304720658172-.248523222532-.414573745389-.411578479612-.041182999048-.054250131808-.071383356913-.11599986037-.088909091402-.18181949205.155822414275.200172163783.34386489489.373028723125.556425874245.511466401426.602364715138.343518114757,1.338365537486.355941227266,1.951987269298.032970788171.874785280785-.542364130331,1.453599432944-1.454921770379,1.571382734006-2.477443009995.093341017737-.602010313462.133457000986-1.211078174278.119875414181-1.820130792009,0-.639340623325-.007991186176-1.298664928244-.023973558529-1.980960558996-.066932376725-2.713207772194-.184810947054-5.172663944445-.21378042598-6.955830260582-.016980794278-.891080136334-.017983026975-1.61233708681-.008989608103-2.110831624744-.008833366504-.258858032694.005876208432-.51799044088.043953429353-.77419617716"/>
                <path id="Caminho_420" data-name="Caminho 420" class="cls-5" d="m149.164170885273,91.612402839061c-.022578816448.114155447346-.056029761727.22587200144-.099895543355.333655840162-.082914749079.212778193287-.175817528183.540443501895-.359630053312.935041187229-.482588380997,1.132530568431-1.076919991481,2.214103510947-1.774172897263,3.228667861325-1.032116760261,1.50876033895-2.239288894561,2.889966560742-3.596292911583,4.114763509572-.803466706973.720494796334-1.64981220596,1.391693462781-2.534387356694,2.009922416379-.955485972081.655422075715-1.954803428851,1.2445367411-2.990917687584,1.76318263454-1.99345988692,1.02189627322-4.108041310041,1.787845942566-6.293514500656,2.279648767137-1.788314667363.378683906855-3.612488687093.561905762525-5.44039345135.546434033448-1.557393394733-.007987375406-2.81310331555-.099903164898-3.67920766066-.155845278899l-.998970676637-.078913439836c-.11670866372-.003978444619-.232777117964-.01903861046-.346642946735-.044951851278.116072265011-.013413912894.233177248887-.015410756745.349638212512-.005990531555l.998970676637.031964744704c.868104999732.029967900853,2.122812687852.089903702558,3.672214896411.075925795599,1.814132638914-.011096964304,3.622122315446-.211985552978,5.394443178146-.599388503215,2.163012508056-.49986641539,4.256036401281-1.2648710136,6.231578044328-2.277651923285,1.025779448573-.513508974525,2.015981541806-1.095215501653,2.96394505251-1.741202109093.877586197254-.609647097962,1.718512780291-1.270449981917,2.518404984341-1.978963715143,1.352263418261-1.206124172357,2.562213604409-2.5628652462,3.606284752381-4.043837445144.704497180899-.998284737909,1.317360569339-2.058166773551,1.831113433191-3.166735215767.199794897482-.386595066847.299690440837-.70627300005.399589794964-.913060661782.040005470899-.109826411823.090521047412-.215552434362.150845547731-.315669002418"/>
                <path id="Caminho_421" data-name="Caminho 421" class="cls-3" d="m118.788467074275,79.483904823262c-.1006443598-.167170889445-.21244856162-.327375690034-.334654262089-.479501656721-.360039711164-.386808470007-.860327216715-.612848145359-1.3885686308-.627359560216-.782436968819-.006950845774-1.529332784621.326217215739-2.046890703026.913060661781-.303657453143.341643215568-.517232097509.753694230748-.621359501736,1.198761763348-.106855916054.486650662571-.155147907857.984337317115-.143850878092,1.482466021061.016982699663,2.084857411594.025972307763,3.977895868802.015984277736,5.346496061089-.008991513485.643334311028-.016982699663,1.185774656773-.023975463911,1.621330505684.00812837392.200766644012-.006280150128.401822906598-.04295500743.599388503215-.039847323913-.195202918777-.058270494905-.394186122097-.054943692076-.593382728578-.014983950427-.435555848911-.03496382125-.97699015119-.056940535926-1.620324462216-.035962243179-1.369590992673-.072924813667-3.257644961793-.089907513329-5.349483705325-.011912469236-.518661136524.040771435812-1.036773522066.156837984669-1.542417065849.117518452496-.481071694255.354611268289-.924675890901.689290300386-1.289671509371.567509500852-.627207129389,1.384597807722-.969490554435,2.229702900844-.934035143762.567726714782.031339778307,1.095718523386.30132526147,1.453502258291.743237475923.092632214384.118819830695.167660573479.250382878638.222770034083.390603997633.031966650087.099903164895.043955334739.149839504261.035962243177.15284239158"/>
                <path id="Caminho_422" data-name="Caminho 422" class="cls-3" d="m127.679306667953,80.601760113695c.069927642504,0,.125869756506,2.556371692912.125869756506,5.710119802106s-.056940535929,5.710119802104-.125869756506,5.710119802104-.125869756504-2.556371692912-.125869756504-5.710119802104.056940535927-5.710119802106.125869756504-5.710119802106"/>
                <path id="Caminho_423" data-name="Caminho 423" class="cls-3" d="m123.607502393384,69.590096101781c-.098828527558.017903000788-.199360469622.024609957236-.299690440836.019976060054-.199794897484.008993418873-.483501060582,0-.853121049307.017979216203-1.044488427367.035844109285-2.084910762385.14869627305-3.112791851003.337649527864-6.925793765855,1.218379610957-12.726014001555,5.93779048732-15.327208455888,12.471158707145-.393730258653.967539439832-.715278923013,1.962912748921-.962008820668,2.977934391782-.099897091481.357633209461-.141853796069.642343510641-.190803383994.831144334628-.015645357316.098942850679-.042455796465.195797399008-.079917697001.288703988884-.000969722059-.100695805204.009079756646-.201193450331.029969091718-.299694251607.032966024706-.192794511689.062935116424-.481498500574.144850729059-.844131441205.211265198228-1.030737261263.509698322903-2.041658514841.892080820904-3.021880199592,2.541876235657-6.650800929981,8.43336776425-11.444537078247,15.462067582323-12.581038469756,1.038061562565-.174982969398,2.089060691687-.261868541555,3.141763235315-.259734509958.3726152545-.006996575022.660318916074.021980525447.857116642394.028969478927.10075868292-.001295662041.201326827306.009100120452.299690440836.030966322778"/>
                <path id="Caminho_424" data-name="Caminho 424" class="cls-3" d="m110.915579844303,44.878558961604c-.019050995465.094667165943-.048881708572.186842087843-.088908138709.274718460382l-.299691393528.768205645607c-.13585969192.330660574386-.299691393531.737239322829-.464521517069,1.217747023017-.164830123536.480507700189-.382606142606,1.016949892841-.567415184278,1.629317881088-.18480904167.612367988249-.415572167312,1.272690715094-.608373347852,1.997941353273-.216776644453.719260106625-.393594499947,1.498456014955-.593388444735,2.322603774564-.811359765803,3.576377823861-1.192008124959,7.236973680379-1.133831946627,10.903773471613.025973260455.844131441205.037960992411,1.646306296908.099897448739,2.397531148236.03895941434.750226429403.112883602624,1.446507588655.182811245126,2.081854524276.069927642504.635346935621.152842391581,1.206756760294.219773815616,1.710235786313.066931424033.503479026022.138856863079.935033565688.199793944788,1.286676243595l.134861269991.813165118427c.021498462953.094354682746.031560803009.190950098668.029968853545.287705566959-.03681680851-.088989117588-.063620816982-.181796627426-.079917577914-.276715304234-.04695155321-.210781349435-.106890212994-.477504812871-.181812823203-.805170121481-.079917577914-.349638212514-.168825716626-.779195908329-.246745497996-1.28267493435-.077919781372-.503479026021-.190803383994-1.073890428768-.257734808027-1.711234208241-.066931424035-.637343779472-.165829498157-1.33462336065-.214778847909-2.087845055829-.072924813665-.751224851329-.092904684492-1.55839181666-.124871334579-2.406516945567-.083906502154-3.686470989631.299759034708-7.368719645317,1.141823132804-10.958709542148.206786709037-.823149337682.392595125328-1.608343399108.618363283265-2.328601927658.19979394479-.72724748203.429557695816-1.392562318503.640339997943-1.997941353273s.422564931565-1.146820958589.605376176691-1.621330505684.355633507532-.879091451685.50547872795-1.204759916443l.343645775574-.750226429403c.035161028638-.089934188723.080759758244-.175432640341.13585969192-.254734778787"/>
                <path id="Caminho_425" data-name="Caminho 425" class="cls-3" d="m111.638834353149,19.652554438067c.019979870827.015982372352-.199793944787.262729775734-.489495402904.771204722155-.39669932538.725913712282-.670776623592,1.512365328041-.811164463803,2.327603505732-.200034023344,1.214504057144-.300265867216,2.443348044465-.299691393531,3.674215551033-.036961617794,1.392566129275-.044953756664,2.924987543555-.005993389632,4.532328709966.078919155991,3.215688376291.336653011325,6.119693816324.581400712777,8.212538603324.127868505744,1.016953703611.232759969496,1.854088569793.310679750868,2.478445242692.033965399325.268724118057.061936456326.491494152142.084912545623.674304444575.015745151875.078212258024.020118963956.158291793695.012986153883.237753984511-.031497925293-.073311606894-.052677236197-.150635955341-.062934878253-.229762798334l-.13186409883-.6663132584c-.105890838373-.58140166547-.246745497996-1.424530873979-.390597328782-2.471452478441-.370355467472-2.728972930617-.589465256291-5.476344262214-.656323322988-8.229519397602-.039958788959-1.611338664885-.023975463913-3.148755999565.026972635076-4.545315816542.00981082919-1.242147387864.129150830084-2.481009891379.356632882151-3.702186608033.157425796049-.828278635057.461924476827-1.621665853505.899073227894-2.34258745616.119617234466-.194459818489.25528352977-.378577205275.405582231902-.550431531921.099897448741-.116880148403.160834530448-.175817528183.167827294699-.169823185857"/>
                <path id="Caminho_426" data-name="Caminho 426" class="cls-3" d="m158.892146297831,4.4532137734c-.098051130333.053224081796-.201536419696.095757999059-.30868004894.126869131124l-.899075133282.318671889736-3.331566291996,1.142822507422c-3.667775348535,1.224085287398-7.268991775874,2.639228327736-10.788882545521,4.239631033381-3.515870406547,1.60823002868-6.834419105804,3.616791047224-9.889807412237,5.985832873643-1.160802676319.921051847958-2.055880311125,1.721226049039-2.656263425495,2.29763179411-.306683205088.279712475396-.529453239173.512472444892-.690286816927.661319243386-.075899120204.081960151015-.160284826776.155629970353-.251739513011.21977286292.063601763126-.091932937959.135857786532-.177570482708.215777269834-.255737011483.148844893107-.158836733905.360628475235-.399587889577.657323650295-.6992802358.8273754824-.834892227622,1.699782842263-1.62392373515,2.613308418069-2.363563843524,3.03601053738-2.42139991057,6.357379206962-4.461525542893,9.889807412239-6.07474005966,3.528400220639-1.607046784374,7.14942503412-3.002419546276,10.843822426827-4.178693951671,1.4125460001-.463522142449,2.559359337147-.823152195761,3.353546817445-1.066900522595l.917054349484-.273718133071c.105565970169-.03622089924.21424915078-.06263859083.32466242129-.078918679644"/>
                <path id="Caminho_427" data-name="Caminho 427" class="cls-3" d="m175.786740941943,16.481818865748c-.064424889601.06668086586-.136913370019.125071400042-.215781080604.173820684331l-.646337198345.456530330892c-.56741613697.386600783003-1.372586258451.967004026547-2.350574831564,1.706242098612s-2.1168221563,1.653295250387-3.342556554722,2.713203961423-2.518408795113,2.286645342157-3.819062945668,3.63025831091-2.463465103036,2.697221589072-3.48840237128,3.949928622571-1.890050812972,2.43149273679-2.588336437615,3.439456832299c-.698285624647,1.007964095508-1.251708611573,1.830115011266-1.617336817981,2.409519832885l-.431554539666.662315759926c-.046110325577.080357721932-.101793307169.154823992349-.165829498157.221771612158.030836756574-.087045624525.071741569362-.170192830617.121876068804-.247745825308l.391594798015-.687291551149c.340652415183-.599380881675.869107232429-1.440517057102,1.554398128957-2.461464448415s1.545404710085-2.206725858856,2.55436722752-3.483410261652,2.187748220726-2.624294870022,3.487403949353-3.979900334194,2.619302760395-2.566355912168,3.848032424594-3.631256732835,2.38953615129-1.961979110096,3.388506827925-2.681237311335,1.819124748543-1.280679995883,2.402523257864-1.644305642285l.673309833423-.41657058924c.076009632552-.052746782763.15778877196-.096652577482.243752137605-.130865676904"/>
                <path id="Caminho_428" data-name="Caminho 428" class="cls-3" d="m250.602641949758,50.230047132321c.237350042815.384903084652.43038844383.795422170007.575411133917,1.223737554571.7984021927,2.028191251158,1.335507459456,4.149723520052,1.598359179852,6.31349437148.077434860797.445418123504.103576747861.898236763725.077922639448,1.349607311077-.116868716092-.433284629569-.201025776418-.874739551536-.251754756091-1.32063783215-.140861328473-.818157228055-.357633209462-1.943996083121-.668317723794-3.171734946937s-.658318261452-2.319608508786-.925041724888-3.105800992137c-.167795855843-.417675712746-.303718425475-.847469676345-.406578748445-1.285677821669"/>
                <path id="Caminho_429" data-name="Caminho 429" class="cls-5" d="m238.987618611551,105.836744718406s-.077922639452.063929489408-.238752406436.180813448582l-.713269575072.508478757191-1.16580621826.819163271521-.746225120158.520459820299-.869099610887.563414827726c-3.452131455677,2.274923411457-7.046465631114,4.326337499313-10.760915299288,6.14166672023-1.175790437517.574405090449-2.424503783312,1.142819649343-3.724159511941,1.737208421389l-2.012925303698.85211881661-1.035935152511.436546649295-1.06890594068.410572436145-2.197732439983.839131710035-2.290639029859.790186171053c-.771208532924.278719769627-1.568391279001.519469019914-2.375550622788.765218001371s-1.617336817983.518462976447-2.456468528017.733238013583c-3.486878062997.982843494999-7.023997327018,1.777831237145-10.59608422306,2.381548775885-3.831242168852.66868355778-7.702253540818,1.085155066982-11.588058324673,1.246716501943-3.888670483431.169914644356-7.784611917374.04769560619-11.654990701401-.365620584866l-1.3985604716-.135861597303c-.464517706296-.046948695131-.923052502578-.125877378046-1.38157967732-.185813179752l-2.720196725677-.386595066847-2.645276973542-.489501119061-1.298664928245-.24474293799-1.274687558946-.289694789268c-5.995333125018-1.315386590113-11.846565766462-3.217951974091-17.468999734561-5.680151901252-3.79670515392-1.640719707048-7.44966422594-3.595858483722-10.920746644351-5.844975355941-1.248713345794-.764211957903-2.141794136753-1.472481801805-2.774141995826-1.912031338417l-.707271421974-.516466132596c-.158836733906-.116883959174-.235757140659-.182810292434-.235757140659-.182810292434,0,0,.086912247551.0519484263.251739513011.161835810453l.7222553724.499485338318c.641337467177.425556386572,1.541411022383,1.119848323515,2.797117132428,1.871073174843,3.485037460747,2.212853578155,7.1431829917,4.140478590312,10.938729671325,5.764065072255,5.619446323863,2.431530844498,11.46192943576,4.311109659561,17.445037608346,5.612228724141l1.27169229317.287697945417,1.298664928243.240749250288,2.639278820447.484501387891,2.714206194121.38161057876c.457528752817.059935801704.914059083709.137858441154,1.378576790004.184807136284l1.398560471598.134855553836c3.859037930401.408270730637,7.743150732062.528142334048,11.620023069379.358624009846,3.876529367952-.161149871726,7.738417754841-.574938598349,11.561085689598-1.238729126539,3.563665092775-.599586663293,7.092995141467-1.387882692075,10.573105275687-2.361565094288.837134866182-.213784236753,1.645307874982-.489501119062,2.452474840311-.72724748203s1.598359179852-.482504544041,2.371549313546-.75822142635l2.288642186008-.783189596032,2.190735864961-.831144334629,1.066893853747-.405587948058,1.034929109044-.432552961592,2.011934503314-.844131441205c1.298664928243-.589389040876,2.547378274041-1.15080702475,3.724159511939-1.719221583646,3.716980019923-1.798592315965,7.320048481828-3.8236511136,10.788886356291-6.063759323863l.874099342054-.553430608471.75122485133-.509469557574,1.17877808175-.799179589925.728253525498-.487504275211c.164823454688-.108881340687.252745556478-.158832923134.252745556478-.158832923134"/>
                <path id="Caminho_430" data-name="Caminho 430" class="cls-4" d="m218.080152845072,111.029399965991l9.756944891482,24.932302708868h6.668132315166l1.453504163675-2.169761382983,1.70923736439,2.169761382983h2.357571406585l.876096185908-39.512296196906-22.821486327206,14.579993488039Z"/>
                <path id="Caminho_431" data-name="Caminho 431" class="cls-4" d="m156.791310324656,114.539790484259l8.245501769952,21.421927433681h7.581185355404l1.547409175477-2.481436697698,1.498456014955,2.481436697698h1.883061859491s.825146181534-24.169096794431,0-24.855386112886-20.749616022185,3.432467878821-20.749616022185,3.432467878821"/>
                <path id="Caminho_432" data-name="Caminho 432" class="cls-3" d="m253.122041545257,66.663115525145c.005639940648.047451716863.005639940648.095398833919,0,.142850550783-.008993418875.107890540301-.01897763813.244750559531-.032970788172.415572167314l-.149839504262,1.59835155831-.114887115324,1.15580675592c-.053945270152.420564276943-.140861328473.874099342056-.218768724841,1.363592839577-.173816873561.975991729264-.314678202032,2.097836896628-.631353247918,3.307588922699-.142522824503.608038952723-.291706876202,1.24405658399-.447536912019,1.908037650715-.160829766986.662319570696-.390603997632,1.333624938725-.599388503213,2.038899516849-.385604266463,1.418536531654-.960009356913,2.880028070735-1.53042075966,4.429441711605-2.638455693976,6.682979077846-6.500626077897,12.815012169724-11.388259616424,18.081375344353-1.151813068214,1.183777812921-2.222715852748,2.332603236902-3.33556760124,3.296606281518-.548430877299.488495075593-1.054912790638.98598357006-1.582369185959,1.417545731269l-1.528423915806,1.227738863816c-.954018825358.807166965331-1.906040806865,1.420533375505-2.711210928344,1.997941353273-.407584791908.281707413863-.77919590833.556433495788-1.135823074324.786192483351l-.992980145082.599388503214-1.377578368078.82614460346-.361626897165.209790549049c-.039692987699.026736367292-.082663238209.048229114089-.127874221896.063929489408.034723742698-.033138462081.073288742267-.061978374805.114887115324-.085910014855l.348639790587-.230765031029,1.350613354545-.866111966652.97898699504-.620362985195c.351642677908-.235749519117.718254063157-.515475332212,1.120839123898-.799179589925.799179589925-.587392197025,1.738214464856-1.208761225687,2.681243027491-2.022909522957l1.512449164997-1.236732282687c.523462707617-.432552961593,1.024944889787-.933044343378,1.567385235532-1.422530219357,1.098873841534-.964003044613,2.163770851426-2.114825312447,3.306590500773-3.296606281517,4.848733191131-5.260601289317,8.694136183936-11.36388592697,11.346310652461-18.00843719299.573414290066-1.541411022382,1.15380991207-2.99691202991,1.546410753552-4.40445829884.206787661731-.699276425028.441546380465-1.368592570746.606369835154-2.027909254124s.314678202034-1.292666775149.461530062059-1.898045809919c.326659265143-1.198761763347.479501656724-2.319608508787.666320879942-3.290608128421.083913171005-.486498231744.177810561265-.938036453006.238752406434-1.357602308023.060941845173-.419565855019.099903164899-.799179589927.135861597304-1.149816224366l.19979108671-1.592361026756c.023977369299-.170821607784.042955007428-.306683205087.057938957854-.413575323464.0040851462-.047512689195.013474885227-.094423276618.027971057001-.139855285005"/>
                <g id="Grupo_120" data-name="Grupo 120" class="cls-26">
                  <g id="Grupo_119" data-name="Grupo 119">
                    <g class="cls-23">
                      <g id="Grupo_118" data-name="Grupo 118">
                        <path id="Caminho_433" data-name="Caminho 433" class="cls-3" d="m242.56792152924,45.629787623703c-2.386274131562-5.77699501727-6.912951468568-10.40818274096-12.633985317983-12.925680761872-3.699983982564-1.468183252447-7.889606271936.341048735336-9.35778952438,4.0410327179-.286173637134.721165491979-.454015222225,1.483803601581-.497061688147,2.25847612508,0,.034963821251,0,.069927642503-.005990531554.104891463754-.173816873561,3.513378162505,1.206749138752,6.919871828175,2.897008865011,10.005689138717s3.720165824237,6.001819056765,5.035811546759,9.26345770626c2.16829804703,5.438160339714,2.239498486952,11.487827433497.199791086712,16.975512549339-1.298664928245,3.453442360801-3.459432892356,7.13065317761-1.506443390361,10.575102119537,1.34721414707,2.219659614641,3.868541992546,3.44574460397,6.446360703007,3.134770471064,4.956898106924-.449533755869,7.531241394498-4.921930474903,9.878828581826-8.990736089728,2.068547312963-3.749668811062,3.276226279768-7.912890080966,3.535358687952-12.187439206348.267317943668-7.618332748272-1.091831537262-15.206179330876-3.986889287673-22.258063877939"/>
                      </g>
                    </g>
                  </g>
                </g>
                <g id="Grupo_123" data-name="Grupo 123" class="cls-26">
                  <g id="Grupo_122" data-name="Grupo 122">
                    <g class="cls-15">
                      <g id="Grupo_121" data-name="Grupo 121">
                        <path id="Caminho_434" data-name="Caminho 434" class="cls-3" d="m224.003058462004,31.487358260739c.125877378046,0,.247745825307.014983950427.372617159888.017983026973l.024968169682-.008989608101-.397585329571-.008993418872Z"/>
                      </g>
                    </g>
                  </g>
                </g>
                <path id="Caminho_435" data-name="Caminho 435" class="cls-5" d="m124.536545010715,57.527524419242c.001105123505,1.927144855048-1.560259094307,3.490300135094-3.487403949355,3.491405258598s-3.49029822971-1.560259094306-3.491403353213-3.487403949354c-.001105123507-1.927144855049,1.560257188919-3.490300135094,3.487402043969-3.4914052586h.002000654622c1.926592293295-.000548750982,3.488852042225,1.560815466831,3.489404603977,3.487403949356"/>
                <path id="Caminho_436" data-name="Caminho 436" class="cls-5" d="m160.388601658162,58.432593894847c.001105123507,1.927144855049-1.560259094307,3.490300135094-3.487403949355,3.4914052586s-3.490300135094-1.560259094307-3.491405258599-3.487403949355,1.560259094307-3.490300135094,3.487403949355-3.491405258599h.001996843852c1.926588482524-.000548750982,3.488844420684,1.56081546683,3.489400793205,3.487403949354"/>
                <path id="Caminho_437" data-name="Caminho 437" class="cls-3" d="m241.424111079512,28.98893457626c-.08834890811-.079797538638-.168954330138-.167765369675-.240749250288-.262729775734l-.651321686431-.782194984878c-.27771372616-.34364768096-.62135378558-.760218270201-1.037931996363-1.229731896896s-.868108810502-1.021947718624-1.411539956633-1.598353463695-1.115854635809-1.219743866869-1.773166853796-1.876067189856c-.639340623324-.672307600724-1.361603617266-1.351607965698-2.111822425128-2.075860181952-1.527433115423-1.420537186275-3.260632606029-2.924985638169-5.16267972519-4.401464938447s-3.808072682943-2.760156467326-5.570264517099-3.876005386981c-.891080136333-.542440345745-1.731217889836-1.068898319138-2.545381430189-1.515438714617-.799179589925-.468517110155-1.566379192063-.87210059282-2.265670860175-1.238723410383s-1.340613892204-.679300364975-1.898038188376-.960011262297-1.050919102936-.509475273731-1.453504163675-.691288096931l-.921048037188-.43155549236c-.109933113403-.045125241346-.215308545037-.100653886726-.314678202034-.165829498155.115207220064.028894216205.227304851227.069046401776.334661883629.119876366874l.942022519166.387600157621c.40958163576.167827294699.907070130228.381606767988,1.473487845273.653327104516s1.223745176114.558424623483,1.924012401527.928043659516c.700267225413.369619988724,1.477481532975.752225178639,2.285639298689,1.214747946469.820154071907.440546053153,1.668279200814.962008106148,2.565349868701,1.498456014955,1.776169741117,1.109856482715,3.682210547981,2.403523585175,5.601223218338,3.874008543128s3.644240028636,2.996912029909,5.167679456357,4.432433166611c.74822196401.731246885889,1.468488114102,1.417540015113,2.102829006255,2.097838802013.6523277299.664316414549,1.229735707668,1.309651380198,1.755195259137,1.898043904533s.981989882359,1.142823460115,1.386571786948,1.62432577146.740234588606.905065664836,1.00596725166,1.258701375823l.61437245364.812162885731c.075727635522.091370849281.142614282999.189707787416.199791086712.293696098512"/>
                <path id="Caminho_438" data-name="Caminho 438" class="cls-3" d="m204.72391596546,13.315083173635c-.129185127023-.026362911763-.255855145377-.063796112433-.378607691442-.111884228005l-1.065903053362-.366622817563c-.459533218209-.165829498156-1.024944889788-.363625646401-1.692256570112-.557426201558s-1.413536800485-.455530003579-2.26266797286-.662317665311l-1.325629941777-.350638539825c-.461530062061-.119877319567-.949019094187-.213780425982-1.450501276357-.327661497838-.998970676637-.239752733747-2.082860567743-.413573418079-3.219689685535-.616365486723-4.954535429086-.798091614888-9.992366684319-.94284564564-14.984560149547-.430556117741-1.146820958589.136858113843-2.239689025486.247743919923-3.250648386771.430556117741-.506481913339.085911920241-.998970676637.150843642345-1.46649127025.243748326835l-1.343616779524.273718133072c-.860113813555.15783831198-1.622328927608.37061841065-2.297635604878.531451988408s-1.2527070335.319670311662-1.72122604904.459525596668l-1.084880691491.304686361235c-.12508473774.040798111207-.253416252121.070876524409-.383607422611.089907513328.118545455203-.057045332122.241900103041-.103511964758.368623472184-.13885686308l1.071893584918-.350638539825c.465523749761-.154841140818,1.037931996361-.332657418237,1.71323105209-.499485338319s1.435517325932-.399587889578,2.297635604882-.569412980822l1.345613623373-.290700832735c.46851901554-.099897448741.962006200762-.168826669318,1.469486536029-.258734182646,1.013954627062-.191801805921,2.109825581276-.311679125486,3.260640227569-.455530003581,5.01018030297-.540396819953,10.070655157755-.39487015544,15.041500685475.432554866979,1.140822805492.209782927509,2.227700340834.391596703401,3.228667861324.642337794486.49948533832.118876992255.989977257763.217776019071,1.451507319824.34264735365l1.326635985246.367621239488c.849131172374.219772862921,1.598359179852.48849698098,2.258674285154.699280235799.660315105306.210783254819,1.226732820349.418569338477,1.682272350856.599382787059l1.049913059469.412574996153c.124292097433.042330041031.244620993328.095478860103.359630053314.158836733905"/>
                <path id="Caminho_439" data-name="Caminho 439" class="cls-5" d="m167.308473486339,72.264346365022c.195393457312.06329690147.377060518533.162940933958.535451392265.293696098513.453336905039.329700260166.842378486679.739731566871,1.147819380514,1.20975202607.458885387188.703491137434.72863460257,1.513417100758.783189596033,2.351573253491.092098706486,2.125632658177-1.209980672313,4.06377539749-3.212693110514,4.782075189896-.796755939757.267409402164-1.649004322569.324875824451-2.474447744218.166835541622-.55074782589-.10304323996-1.07792984572-.306203047978-1.555396550883-.599388503215-.180500965384-.097479514726-.34137646162-.227533497468-.474509547095-.383607422611.639218678663.374979837727,1.33848748215.636566382249,2.06687057385.773205376776.787396686897.120054520404,1.592239082094.044570774208,2.343585878087-.219774768306,1.863680279668-.703254869649,3.077098267158-2.510139422675,3.022886243058-4.501358576418-.039616772285-.794759095904-.274657488049-1.567476694028-.684292474602-2.249680866284-.401982958969-.622443666002-.908998380208-1.170363900026-1.498456014955-1.619333661832"/>
              </g>
            </g>
          </g>
        </g>
      </g>
    </g>
  </g>
</svg>