<?xml version="1.0" encoding="UTF-8"?>
<svg id="Camada_1" data-name="Camada 1" xmlns="http://www.w3.org/2000/svg" xmlns:xlink="http://www.w3.org/1999/xlink" viewBox="0 0 235 114">
  <defs>
    <style>
      .cls-1 {
        fill: none;
      }

      .cls-2 {
        clip-path: url(#clippath);
      }

      .cls-3 {
        fill: #e2ae74;
      }

      .cls-4 {
        fill: #263238;
      }

      .cls-5 {
        clip-path: url(#clippath-1);
      }

      .cls-6 {
        clip-path: url(#clippath-4);
      }

      .cls-7 {
        clip-path: url(#clippath-3);
      }

      .cls-8 {
        clip-path: url(#clippath-2);
      }

      .cls-9 {
        clip-path: url(#clippath-7);
      }

      .cls-10 {
        clip-path: url(#clippath-8);
      }

      .cls-11 {
        clip-path: url(#clippath-6);
      }

      .cls-12 {
        clip-path: url(#clippath-5);
      }

      .cls-13 {
        clip-path: url(#clippath-9);
      }

      .cls-14 {
        clip-path: url(#clippath-12);
      }

      .cls-15 {
        clip-path: url(#clippath-10);
      }

      .cls-16 {
        clip-path: url(#clippath-11);
      }

      .cls-17 {
        opacity: .300000011921;
      }
    </style>
    <clipPath id="clippath">
      <rect class="cls-1" x="-.002123832703" y="56.496495473353" width="106.721237473019" height="57.73579670194"/>
    </clipPath>
    <clipPath id="clippath-1">
      <rect class="cls-1" x="-.002123832703" y="56.496495473353" width="106.721237473019" height="112.245736480072"/>
    </clipPath>
    <clipPath id="clippath-2">
      <rect class="cls-1" x="5.80820616756" y="56.870969927221" width="92.342815797605" height="3.089414348296"/>
    </clipPath>
    <clipPath id="clippath-3">
      <rect class="cls-1" x="3.665933331331" y="75.78690970487" width="92.342815797605" height="3.090410218842"/>
    </clipPath>
    <clipPath id="clippath-4">
      <rect class="cls-1" x="12.723036861173" y="94.403072561818" width="92.342815797603" height="3.089414348296"/>
    </clipPath>
    <clipPath id="clippath-5">
      <rect class="cls-1" x="127.323415927453" y=".499031887439" width="106.721237473019" height="112.985718160053"/>
    </clipPath>
    <clipPath id="clippath-6">
      <rect class="cls-1" x="127.323415927453" y=".499031887439" width="106.721237473019" height="112.985718160053"/>
    </clipPath>
    <clipPath id="clippath-7">
      <rect class="cls-1" x="133.133745927715" y=".876494190395" width="92.342815797605" height="3.109333183911"/>
    </clipPath>
    <clipPath id="clippath-8">
      <rect class="cls-1" x="130.991473091486" y="19.916927046816" width="92.342815797603" height="3.110329054456"/>
    </clipPath>
    <clipPath id="clippath-9">
      <rect class="cls-1" x="140.048576621328" y="38.655590054187" width="92.342815797603" height="3.109333183911"/>
    </clipPath>
    <clipPath id="clippath-10">
      <rect class="cls-1" x="128.873102810505" y="57.876288598502" width="92.342815797603" height="3.971819525888"/>
    </clipPath>
    <clipPath id="clippath-11">
      <rect class="cls-1" x="135.007114245689" y="76.511371571104" width="92.342815797605" height="4.495685424959"/>
    </clipPath>
    <clipPath id="clippath-12">
      <rect class="cls-1" x="129.556319631947" y="94.880539536698" width="92.342815797605" height="3.971819525889"/>
    </clipPath>
  </defs>
  <g id="Grupo_883" data-name="Grupo 883">
    <g id="Grupo_795" data-name="Grupo 795">
      <g class="cls-2">
        <g id="Grupo_de_máscara_28" data-name="Grupo de máscara 28">
          <rect id="Retângulo_67-2" data-name="Retângulo 67-2" class="cls-3" x="4.283417710301" y="56.850055132016" width="95.402350467772" height="19.236634372653"/>
          <g id="Grupo_89-2" data-name="Grupo 89-2">
            <g class="cls-5">
              <g id="Grupo_88-2" data-name="Grupo 88-2">
                <path id="Caminho_319-2" data-name="Caminho 319-2" class="cls-4" d="m93.551756030532,57.17074868817c-.229070171341,0-.414312540637,4.175987887758-.414312540637,9.326008226184s.185242369296,9.327999789186.414312540637,9.327999789186c.229070171345,0,.414312540641-4.174991364221.414312540641-9.327999789186s-.185242369296-9.326008048095-.414312540641-9.326008048095"/>
                <path id="Caminho_320-2" data-name="Caminho 320-2" class="cls-4" d="m84.706786224129,57.17074868817c-.229070171343,0-.414312540639,4.175987887758-.414312540639,9.326008226184s.185242369296,9.327999789186.414312540639,9.327999789186.414312540637-4.174991364221.414312540637-9.327999789186-.186237764938-9.326008226184-.414312540637-9.326008226184"/>
                <path id="Caminho_321-2" data-name="Caminho 321-2" class="cls-4" d="m75.96440105685,57.17074868817c-.229070171341,0-.414312540637,4.175987887758-.414312540637,9.326008226184s.185242369296,9.327999789186.414312540637,9.327999789186c.229070171343,0,.414312540637-4.174991364221.414312540637-9.327999789186s-.186237764936-9.326008226184-.414312540637-9.326008226184"/>
                <path id="Caminho_322-2" data-name="Caminho 322-2" class="cls-4" d="m67.268831778158,57.17074868817c-.229070171341,0-.414312540637,4.175987887758-.414312540637,9.326008226184s.185242369296,9.327999789186.414312540637,9.327999789186.413317144994-4.174991364221.413317144994-9.327999789186-.185249967735-9.326008226184-.413317144994-9.326008226184"/>
                <path id="Caminho_323-2" data-name="Caminho 323-2" class="cls-4" d="m58.573253951221,57.17074868817c-.229070171345,0-.414312540639,4.175987887758-.414312540639,9.326008226184s.185242369294,9.327999789186.414312540639,9.327999789186c.229070171341,0,.414312540637-4.174991364221.414312540637-9.327999789186s-.186245363378-9.326008226184-.414312540637-9.326008226184"/>
                <path id="Caminho_324-2" data-name="Caminho 324-2" class="cls-4" d="m49.878672469729,57.17074868817c-.229066372121,0-.414312540637,4.175987887758-.414312540637,9.326008226184s.185246168516,9.327999789186.414312540637,9.327999789186c.229066372123,0,.416303331924-4.174992314026.416303331924-9.328000738991s-.188232355444-9.326007276379-.416303331924-9.326007276379"/>
                <path id="Caminho_325-2" data-name="Caminho 325-2" class="cls-4" d="m41.183095592598,57.17074868817c-.230061767765,0-.414312540639,4.175987887758-.414312540639,9.326008226184s.185246168516,9.327999789186.414312540639,9.327999789186c.229066372121,0,.414312540637-4.174991364221.414312540637-9.327999789186s-.185246168516-9.326008226184-.414312540637-9.326008226184"/>
                <path id="Caminho_326-2" data-name="Caminho 326-2" class="cls-4" d="m32.487518240561,57.17074868817c-.228070976478,0-.414312540637,4.175987887758-.414312540637,9.326008226184s.185246168516,9.327999789186.414312540637,9.327999789186c.229066372123,0,.414312540639-4.174991364221.414312540639-9.327999789186s-.186241564159-9.326008226184-.414312540639-9.326008226184"/>
                <path id="Caminho_327-2" data-name="Caminho 327-2" class="cls-4" d="m23.792940558293,57.17074868817c-.229066372121,0-.414312540637,4.175987887758-.414312540637,9.326008226184s.185246168516,9.327999789186.414312540637,9.327999789186.414312540637-4.174991364221.414312540637-9.327999789186-.186241564159-9.326008226184-.414312540637-9.326008226184"/>
                <path id="Caminho_328-2" data-name="Caminho 328-2" class="cls-4" d="m15.097364868416,57.17074868817c-.229066372123,0-.414312540639,4.175987887758-.414312540639,9.326008226184s.185246168516,9.327999789186.414312540639,9.327999789186.414312540637-4.174991364221.414312540637-9.327999789186-.18624346377-9.326008226184-.414312540637-9.326008226184"/>
                <path id="Caminho_329-2" data-name="Caminho 329-2" class="cls-4" d="m6.401787872557,57.17074868817c-.229066847025,0-.414312065735,4.175987887758-.414312065735,9.326008226184s.18524521871,9.327999789186.414312065735,9.327999789186.418296022819-4.174992314026.418296022819-9.328000738991-.190225046341-9.326007276379-.418296022819-9.326007276379"/>
                <g id="Grupo_72-2" data-name="Grupo 72-2" class="cls-17">
                  <g id="Grupo_71-2" data-name="Grupo 71-2">
                    <g class="cls-8">
                      <g id="Grupo_70-2" data-name="Grupo 70-2">
                        <path id="Caminho_330-2" data-name="Caminho 330-2" d="m98.15101911575,56.870969927221c-30.643156086284,4.112070522647-61.697881676357,4.118772346746-92.342812948191.019918835615l92.342812948191-.019918835615Z"/>
                      </g>
                    </g>
                  </g>
                </g>
                <path id="Caminho_331-2" data-name="Caminho 331-2" class="cls-4" d="m4.262502826054,56.910807657813c0,.228070857755,21.313174528957.413316195191,47.606064135422.413316195191s47.622994884499-.185245337437,47.622994884499-.413316195191-21.315166744953-.41431218446-47.622994884499-.41431218446-47.606064135422.185245352276-47.606064135422.41431218446"/>
                <rect id="Retângulo_69-2" data-name="Retângulo 69-2" class="cls-3" x="2.141144874073" y="75.766992293963" width="95.40235046777" height="19.236634372652"/>
                <path id="Caminho_332-2" data-name="Caminho 332-2" class="cls-4" d="m91.409487943329,76.086688109642c-.229070171341,0-.414312540637,4.175988659475-.414312540637,9.326006148486s.185242369296,9.328000738991.414312540637,9.328000738991c.229070171343,0,.414312540639-4.174993263832.414312540639-9.328000738991s-.185242369296-9.326008048097-.414312540639-9.326008048097"/>
                <path id="Caminho_333-2" data-name="Caminho 333-2" class="cls-4" d="m82.564518136924,76.086688109642c-.228067177259,0-.414312540637,4.175988659475-.414312540637,9.326006148486s.185242369296,9.328000738991.414312540637,9.328000738991c.229070171343,0,.414312540637-4.174993263832.414312540637-9.328000738991s-.185242369294-9.326008048097-.414312540637-9.326008048097"/>
                <path id="Caminho_334-2" data-name="Caminho 334-2" class="cls-4" d="m73.821136624198,76.086688109642c-.229070171341,0-.414312540637,4.175988659475-.414312540637,9.326006148486s.185242369296,9.328000738991.414312540637,9.328000738991c.229070171345,0,.414312540637-4.174993263832.414312540637-9.328000738991s-.185242369293-9.326008048097-.414312540637-9.326008048097"/>
                <path id="Caminho_335-2" data-name="Caminho 335-2" class="cls-4" d="m65.12655514271,76.086688109642c-.229070171343,0-.414312540639,4.175988659475-.414312540639,9.326006148486s.185242369296,9.328000738991.414312540639,9.328000738991c.229070171341,0,.414312540637-4.174993263832.414312540637-9.328000738991s-.185242369296-9.326008048097-.414312540637-9.326008048097"/>
                <path id="Caminho_336-2" data-name="Caminho 336-2" class="cls-4" d="m56.430978265575,76.086688109642c-.229070171341,0-.414312540637,4.175988659475-.414312540637,9.326006148486s.185242369296,9.328000738991.414312540637,9.328000738991c.229070171345,0,.414312540639-4.174993263832.414312540639-9.328000738991s-.185242369294-9.326008048097-.414312540639-9.326008048097"/>
                <path id="Caminho_337-2" data-name="Caminho 337-2" class="cls-4" d="m47.735404237857,76.086688109642c-.229066372121,0-.414312540637,4.175988659475-.414312540637,9.326006148486s.185246168516,9.328000738991.414312540637,9.328000738991c.229066372123,0,.414312540637-4.174993263832.414312540637-9.328000738991s-.185246168514-9.326008048097-.414312540637-9.326008048097"/>
                <path id="Caminho_338-2" data-name="Caminho 338-2" class="cls-4" d="m39.040822756368,76.086688109642c-.228070976478,0-.414312540637,4.175988659475-.414312540637,9.326006148486s.185246168516,9.328000738991.414312540637,9.328000738991c.229066372123,0,.414312540639-4.174993263832.414312540639-9.328000738991s-.185246168516-9.326008048097-.414312540639-9.326008048097"/>
                <path id="Caminho_339-2" data-name="Caminho 339-2" class="cls-4" d="m30.345245404333,76.086688109642c-.229066372121,0-.414312540637,4.175988659475-.414312540637,9.326006148486s.185246168516,9.328000738991.414312540637,9.328000738991.414312540637-4.174993263832.414312540637-9.328000738991-.185246168516-9.326008048097-.414312540637-9.326008048097"/>
                <path id="Caminho_340-2" data-name="Caminho 340-2" class="cls-4" d="m21.649671851517,76.086688109642c-.229066372121,0-.414312540637,4.175988659475-.414312540637,9.326006148486s.185246168516,9.328000738991.414312540637,9.328000738991.414312540637-4.174993263832.414312540637-9.328000738991-.185246168516-9.326008048097-.414312540637-9.326008048097"/>
                <path id="Caminho_341-2" data-name="Caminho 341-2" class="cls-4" d="m12.955091319833,76.086688109642c-.228070976478,0-.414312540637,4.175988659475-.414312540637,9.326006148486s.18524521871,9.328000738991.414312540637,9.328000738991.414312540637-4.174993263832.414312540637-9.328000738991-.18524521871-9.326008048097-.414312540637-9.326008048097"/>
                <path id="Caminho_342-2" data-name="Caminho 342-2" class="cls-4" d="m4.258519343872,76.086688109642c-.22807097648,0-.414312065735,4.175988659475-.414312065735,9.326006148486s.18524521871,9.328000738991.414312065735,9.328000738991c.229066847023,0,.414312065734-4.174993263832.414312065734-9.328000738991s-.18524521871-9.326008048097-.414312065734-9.326008048097"/>
                <g id="Grupo_75-2" data-name="Grupo 75-2" class="cls-17">
                  <g id="Grupo_74-2" data-name="Grupo 74-2">
                    <g class="cls-7">
                      <g id="Grupo_73-2" data-name="Grupo 73-2">
                        <path id="Caminho_343-2" data-name="Caminho 343-2" d="m96.008750078741,75.78690970487c-30.643156086284,4.11207058201-61.697885475578,4.118772406109-92.342815797605.019919310518l92.342815797605-.019919310518Z"/>
                      </g>
                    </g>
                  </g>
                </g>
                <path id="Caminho_344-2" data-name="Caminho 344-2" class="cls-4" d="m2.115250399644,75.827743721548c0,.229066372121,21.320144672973.414312540637,47.614029675078.414312540637,26.293888801329,0,47.61900950271-.185246168516,47.61900950271-.414312540637s-21.313175953668-.414312540638-47.61900950271-.414312540638-47.614028725273.185246168516-47.614028725273.414312540638"/>
                <rect id="Retângulo_71-2" data-name="Retângulo 71-2" class="cls-3" x="11.198248403913" y="94.382157855657" width="95.40235046777" height="19.237629768295"/>
                <path id="Caminho_345-2" data-name="Caminho 345-2" class="cls-4" d="m100.466583399828,94.704843182583c-.229070171343,0-.414312540639,4.175988659474-.414312540639,9.326009947706s.185242369296,9.327996939771.414312540639,9.327996939771c.229070171341,0,.413317144994-4.174993263831.413317144994-9.328000738992s-.185242369296-9.326009947705-.413317144994-9.326009947705"/>
                <path id="Caminho_346-2" data-name="Caminho 346-2" class="cls-4" d="m91.621621191862,94.704843182583c-.229070171341,0-.414312540637,4.175988659474-.414312540637,9.326009947706s.185242369296,9.327996939771.414312540637,9.327996939771c.229070171343,0,.413317144996-4.174993263831.413317144996-9.328000738992s-.185242369296-9.326009947705-.413317144996-9.326009947705"/>
                <path id="Caminho_347-2" data-name="Caminho 347-2" class="cls-4" d="m82.878239679136,94.704843182583c-.229070171341,0-.414312540637,4.175988659474-.414312540637,9.326009947706s.185242369296,9.327996939771.414312540637,9.327996939771c.229070171343,0,.414312540639-4.174993263831.414312540639-9.328000738992s-.185242369296-9.326009947705-.414312540639-9.326009947705"/>
                <path id="Caminho_348-2" data-name="Caminho 348-2" class="cls-4" d="m74.183658197648,94.704843182583c-.229070171343,0-.414312540639,4.175988659474-.414312540639,9.326009947706s.185242369296,9.327996939771.414312540639,9.327996939771c.229070171341,0,.414312540637-4.174993263831.414312540637-9.328000738992s-.185242369296-9.326009947705-.414312540637-9.326009947705"/>
                <path id="Caminho_349-2" data-name="Caminho 349-2" class="cls-4" d="m65.489076716156,94.704843182583c-.228067177259,0-.414312540637,4.175988659474-.414312540637,9.326009947706s.185242369294,9.327996939771.414312540637,9.327996939771c.229070171345,0,.414312540639-4.174993263831.414312540639-9.328000738992s-.185242369294-9.326009947705-.414312540639-9.326009947705"/>
                <path id="Caminho_350-2" data-name="Caminho 350-2" class="cls-4" d="m56.793498889219,94.704843182583c-.228067177259,0-.414312540637,4.175988659474-.414312540637,9.326009947706s.185242369294,9.327996939771.414312540637,9.327996939771c.229070171341,0,.414312540637-4.174993263831.414312540637-9.328000738992s-.185242369296-9.326009947705-.414312540637-9.326009947705"/>
                <path id="Caminho_351-2" data-name="Caminho 351-2" class="cls-4" d="m48.097925811308,94.704843182583c-.229066372125,0-.414312540639,4.175988659474-.414312540639,9.326009947706s.185246168514,9.327996939771.414312540639,9.327996939771c.229066372121,0,.414312540637-4.174993263831.414312540637-9.328000738992s-.185246168516-9.326009947705-.414312540637-9.326009947705"/>
                <path id="Caminho_352-2" data-name="Caminho 352-2" class="cls-4" d="m39.402348459271,94.704843182583c-.229066372121,0-.414312540637,4.175988659474-.414312540637,9.326009947706s.185246168516,9.327996939771.414312540637,9.327996939771.414312540637-4.174993263831.414312540637-9.328000738992-.185246168516-9.326009947705-.414312540637-9.326009947705"/>
                <path id="Caminho_353-2" data-name="Caminho 353-2" class="cls-4" d="m30.707770777002,94.704843182583c-.229066372125,0-.414312540641,4.175988659474-.414312540641,9.326009947706s.185246168516,9.327996939771.414312540641,9.327996939771c.229066372121,0,.414312540637-4.174993263831.414312540637-9.328000738992s-.185246168516-9.326009947705-.414312540637-9.326009947705"/>
                <path id="Caminho_354-2" data-name="Caminho 354-2" class="cls-4" d="m22.012195324576,94.704843182583c-.229066372123,0-.414312540639,4.175988659474-.414312540639,9.326009947706s.185246168516,9.327996939771.414312540639,9.327996939771c.229066372121,0,.414312540637-4.174993263831.414312540637-9.328000738992s-.185246168516-9.326009947705-.414312540637-9.326009947705"/>
                <path id="Caminho_355-2" data-name="Caminho 355-2" class="cls-4" d="m13.31661820999,94.704843182583c-.228070976478,0-.414312540637,4.175988659474-.414312540637,9.326009947706s.18524521871,9.327996939771.414312540637,9.327996939771c.229068271734,0,.414312540639-4.174993263831.414312540639-9.328000738992s-.185246168516-9.326009947705-.414312540639-9.326009947705"/>
                <g id="Grupo_78-2" data-name="Grupo 78-2" class="cls-17">
                  <g id="Grupo_77-2" data-name="Grupo 77-2">
                    <g class="cls-6">
                      <g id="Grupo_76-2" data-name="Grupo 76-2">
                        <path id="Caminho_356-2" data-name="Caminho 356-2" d="m105.065853608581,94.403072561818c-30.643186480043,4.111667864689-61.697858881036,4.118365889568-92.342815797605.019919310518l92.342815797605-.019919310518Z"/>
                      </g>
                    </g>
                  </g>
                </g>
                <path id="Caminho_357-2" data-name="Caminho 357-2" class="cls-4" d="m11.173349265766,94.44390372908c0,.229066372123,21.320144672971.414312540638,47.61402967508.414312540638,26.293888801325,0,47.619009502707-.185246168515,47.619009502707-.414312540638s-21.313175953668-.414312540637-47.619009502707-.414312540637-47.614028725275.185246168515-47.614028725275.414312540637"/>
              </g>
            </g>
          </g>
        </g>
      </g>
    </g>
    <g id="Grupo_796" data-name="Grupo 796">
      <g class="cls-12">
        <g id="Grupo_90-2" data-name="Grupo 90-2">
          <rect id="Retângulo_67-3" data-name="Retângulo 67-3" class="cls-3" x="131.608957470457" y=".8545834356" width="95.402350467772" height="19.364115300511"/>
          <g id="Grupo_89-3" data-name="Grupo 89-3">
            <g class="cls-11">
              <g id="Grupo_88-3" data-name="Grupo 88-3">
                <path id="Caminho_319-3" data-name="Caminho 319-3" class="cls-4" d="m220.877295790689,1.178264811159c-.229070171343,0-.414312540639,4.203874637542-.414312540639,9.387755999219,0,5.183881836578.185242369296,9.38974756222.414312540639,9.38974756222.229070171341,0,.414312540637-4.202877639103.414312540637-9.389748512025s-.185242369296-9.38775582113-.414312540637-9.38775582113"/>
                <path id="Caminho_320-3" data-name="Caminho 320-3" class="cls-4" d="m212.032325984283,1.178264811159c-.229070171341,0-.414312540637,4.203874637542-.414312540637,9.387755999219,0,5.183881836578.185242369296,9.38974756222.414312540637,9.38974756222.229070171345,0,.414312540639-4.202877639103.414312540639-9.389748512025s-.186237764938-9.387755049413-.414312540639-9.387755049413"/>
                <path id="Caminho_321-3" data-name="Caminho 321-3" class="cls-4" d="m203.289940817007,1.178264811159c-.229070171345,0-.414312540641,4.203874637542-.414312540641,9.387755999219,0,5.183881836578.185242369296,9.38974756222.414312540641,9.38974756222.229070171341,0,.414312540637-4.202877639103.414312540637-9.389748512025s-.186237764938-9.387755049413-.414312540637-9.387755049413"/>
                <path id="Caminho_322-3" data-name="Caminho 322-3" class="cls-4" d="m194.594371538313,1.178264811159c-.229070171343,0-.414312540639,4.203874637542-.414312540639,9.387755999219,0,5.183881836578.185242369296,9.38974756222.414312540639,9.38974756222s.413317144994-4.202877639103.413317144994-9.389748512025-.185249967733-9.387755049413-.413317144994-9.387755049413"/>
                <path id="Caminho_323-3" data-name="Caminho 323-3" class="cls-4" d="m185.898793711376,1.178264811159c-.229070171343,0-.414312540639,4.203874637542-.414312540639,9.387755999219,0,5.183881836578.185242369296,9.38974756222.414312540639,9.38974756222.229070171341,0,.414312540637-4.202877639103.414312540637-9.389748512025s-.186245363378-9.387755049413-.414312540637-9.387755049413"/>
                <path id="Caminho_324-3" data-name="Caminho 324-3" class="cls-4" d="m177.204212229886,1.178264811159c-.229066372123,0-.414312540639,4.203874637542-.414312540639,9.387755999219,0,5.183881836578.185246168516,9.38974756222.414312540639,9.38974756222.229066372121,0,.416303331924-4.202877639103.416303331924-9.38974756222s-.188232355446-9.387755999219-.416303331924-9.387755999219"/>
                <path id="Caminho_325-3" data-name="Caminho 325-3" class="cls-4" d="m168.508635352751,1.178264811159c-.230061767765,0-.414312540637,4.203874637542-.414312540637,9.387755999219,0,5.183881836578.185246168516,9.38974756222.414312540637,9.38974756222.229066372123,0,.414312540639-4.202877639103.414312540639-9.389748512025s-.185246168516-9.387755049413-.414312540639-9.387755049413"/>
                <path id="Caminho_326-3" data-name="Caminho 326-3" class="cls-4" d="m159.813058000716,1.178264811159c-.228070976478,0-.414312540637,4.203874637542-.414312540637,9.387755999219,0,5.183881836578.185246168516,9.38974756222.414312540637,9.38974756222.229066372123,0,.414312540639-4.202877639103.414312540639-9.389748512025s-.186241564159-9.387755049413-.414312540639-9.387755049413"/>
                <path id="Caminho_327-3" data-name="Caminho 327-3" class="cls-4" d="m151.118480318448,1.178264811159c-.229066372123,0-.414312540639,4.203874637542-.414312540639,9.387755999219,0,5.183881836578.185246168516,9.38974756222.414312540639,9.38974756222.229066372121,0,.414312540637-4.202877639103.414312540637-9.389748512025s-.186241564159-9.387755049413-.414312540637-9.387755049413"/>
                <path id="Caminho_328-3" data-name="Caminho 328-3" class="cls-4" d="m142.422904628569,1.178264811159c-.229066372121,0-.414312540637,4.203874637542-.414312540637,9.387755999219,0,5.183881836578.185246168516,9.38974756222.414312540637,9.38974756222.229066372125,0,.414312540641-4.202877639103.414312540641-9.389748512025s-.18624346377-9.387755049413-.414312540641-9.387755049413"/>
                <path id="Caminho_329-3" data-name="Caminho 329-3" class="cls-4" d="m133.727327632712,1.178264811159c-.229066847025,0-.414312065735,4.203874637542-.414312065735,9.387755999219,0,5.183881836578.18524521871,9.38974756222.414312065735,9.38974756222s.418296022821-4.202877639103.418296022821-9.38974756222-.190225046343-9.387755999219-.418296022821-9.387755999219"/>
                <g id="Grupo_72-3" data-name="Grupo 72-3" class="cls-17">
                  <g id="Grupo_71-3" data-name="Grupo 71-3">
                    <g class="cls-9">
                      <g id="Grupo_70-3" data-name="Grupo 70-3">
                        <path id="Caminho_330-3" data-name="Caminho 330-3" d="m225.476558875904.876494190395c-30.641340059117,4.139143764444-61.699690105081,4.14583893991-92.342812948189.019918835615l92.342812948189-.019918835615Z"/>
                      </g>
                    </g>
                  </g>
                </g>
                <path id="Caminho_331-3" data-name="Caminho 331-3" class="cls-4" d="m131.588042586207.915335961397c0,.230062747252,21.313174528959.417300003868,47.606064135423.417300003868s47.622994884499-.187237256616,47.622994884499-.417300003868c0-.23006274725-21.315166744951-.416304073959-47.622994884499-.416304073959s-47.606064135423.186241297027-47.606064135423.416304073959"/>
                <rect id="Retângulo_69-3" data-name="Retângulo 69-3" class="cls-3" x="129.466684634228" y="19.896012340655" width="95.40235046777" height="19.364115300509"/>
                <path id="Caminho_332-3" data-name="Caminho 332-3" class="cls-4" d="m218.735027703484,20.218697192678c-.229070171343,0-.414312540639,4.203874934355-.414312540639,9.387754871324s.185242369296,9.389749461831.414312540639,9.389749461831.414312540639-4.202879538713.414312540639-9.389749461831-.185242369296-9.387754871324-.414312540639-9.387754871324"/>
                <path id="Caminho_333-3" data-name="Caminho 333-3" class="cls-4" d="m209.890057897079,20.218697192678c-.228067177259,0-.414312540637,4.203874934355-.414312540637,9.387754871324s.185242369296,9.389749461831.414312540637,9.389749461831c.229070171345,0,.414312540639-4.202879538713.414312540639-9.389749461831s-.185242369294-9.387754871324-.414312540639-9.387754871324"/>
                <path id="Caminho_334-3" data-name="Caminho 334-3" class="cls-4" d="m201.146676384355,20.218697192678c-.229070171345,0-.414312540639,4.203874934355-.414312540639,9.387754871324s.185242369294,9.389749461831.414312540639,9.389749461831c.229070171341,0,.414312540637-4.202879538713.414312540637-9.389749461831s-.185242369296-9.387754871324-.414312540637-9.387754871324"/>
                <path id="Caminho_335-3" data-name="Caminho 335-3" class="cls-4" d="m192.452094902863,20.218697192678c-.229070171341,0-.414312540637,4.203874934355-.414312540637,9.387754871324s.185242369296,9.389749461831.414312540637,9.389749461831c.229070171345,0,.414312540637-4.202879538713.414312540637-9.389749461831s-.185242369293-9.387754871324-.414312540637-9.387754871324"/>
                <path id="Caminho_336-3" data-name="Caminho 336-3" class="cls-4" d="m183.756518025732,20.218697192678c-.229070171343,0-.414312540637,4.203874934355-.414312540637,9.387754871324s.185242369294,9.389749461831.414312540637,9.389749461831c.229070171341,0,.414312540637-4.202879538713.414312540637-9.389749461831s-.185242369296-9.387754871324-.414312540637-9.387754871324"/>
                <path id="Caminho_337-3" data-name="Caminho 337-3" class="cls-4" d="m175.060943998013,20.218697192678c-.229066372121,0-.414312540639,4.203874934355-.414312540639,9.387754871324s.185246168518,9.389749461831.414312540639,9.389749461831c.229066372123,0,.414312540639-4.202879538713.414312540639-9.389749461831s-.185246168516-9.387754871324-.414312540639-9.387754871324"/>
                <path id="Caminho_338-3" data-name="Caminho 338-3" class="cls-4" d="m166.366362516523,20.218697192678c-.228070976478,0-.414312540637,4.203874934355-.414312540637,9.387754871324s.185246168516,9.389749461831.414312540637,9.389749461831.414312540637-4.202879538713.414312540637-9.389749461831-.185246168516-9.387754871324-.414312540637-9.387754871324"/>
                <path id="Caminho_339-3" data-name="Caminho 339-3" class="cls-4" d="m157.670785164488,20.218697192678c-.229066372121,0-.414312540637,4.203874934355-.414312540637,9.387754871324s.185246168516,9.389749461831.414312540637,9.389749461831.414312540637-4.202879538713.414312540637-9.389749461831-.185246168516-9.387754871324-.414312540637-9.387754871324"/>
                <path id="Caminho_340-3" data-name="Caminho 340-3" class="cls-4" d="m148.975211611672,20.218697192678c-.229066372121,0-.414312540639,4.203874934355-.414312540639,9.387754871324s.185246168518,9.389749461831.414312540639,9.389749461831c.229066372123,0,.414312540639-4.202879538713.414312540639-9.389749461831s-.185246168516-9.387754871324-.414312540639-9.387754871324"/>
                <path id="Caminho_341-3" data-name="Caminho 341-3" class="cls-4" d="m140.280631079988,20.218697192678c-.22807097648,0-.414312540637,4.203874934355-.414312540637,9.387754871324s.18524521871,9.389749461831.414312540637,9.389749461831.414312540637-4.202879538713.414312540637-9.389749461831-.18524521871-9.387754871324-.414312540637-9.387754871324"/>
                <path id="Caminho_342-3" data-name="Caminho 342-3" class="cls-4" d="m131.584059104027,20.218697192678c-.22807097648,0-.414312065737,4.203874934355-.414312065737,9.387754871324s.185245218712,9.389749461831.414312065737,9.389749461831.414312065735-4.202879538713.414312065735-9.389749461831-.18524521871-9.387754871324-.414312065735-9.387754871324"/>
                <g id="Grupo_75-3" data-name="Grupo 75-3" class="cls-17">
                  <g id="Grupo_74-3" data-name="Grupo 74-3">
                    <g class="cls-10">
                      <g id="Grupo_73-3" data-name="Grupo 73-3">
                        <path id="Caminho_343-3" data-name="Caminho 343-3" d="m223.334289838895,19.916927046816c-30.641340059117,4.139143823807-61.699690105081,4.145839949077-92.342815797605.019919310517l92.342815797605-.019919310517Z"/>
                      </g>
                    </g>
                  </g>
                </g>
                <path id="Caminho_344-3" data-name="Caminho 344-3" class="cls-4" d="m129.440790159801,19.95676566785c0,.231059063018,21.320144672971.416303331924,47.614029675078.416303331924,26.293888801327,0,47.619009502707-.186241564158,47.619009502707-.416303331924s-21.313175953665-.416303331924-47.619009502707-.416303331924-47.614028725275.187236959801-47.614028725275.416303331924"/>
                <rect id="Retângulo_71-3" data-name="Retângulo 71-3" class="cls-3" x="138.523788164068" y="38.634675348027" width="95.40235046777" height="19.364115300511"/>
                <path id="Caminho_345-3" data-name="Caminho 345-3" class="cls-4" d="m227.792123159981,38.959352890945c-.229070171341,0-.414312540637,4.203874934356-.414312540637,9.387754871325s.185242369296,9.38974946183.414312540637,9.38974946183c.229070171345,0,.413317144996-4.202879538712.413317144996-9.38974946183s-.185242369294-9.387754871325-.413317144996-9.387754871325"/>
                <path id="Caminho_346-3" data-name="Caminho 346-3" class="cls-4" d="m218.947160952017,38.959352890945c-.229070171341,0-.414312540637,4.203874934356-.414312540637,9.387754871325s.185242369296,9.38974946183.414312540637,9.38974946183c.229070171343,0,.413317144996-4.202879538712.413317144996-9.38974946183s-.185242369296-9.387754871325-.413317144996-9.387754871325"/>
                <path id="Caminho_347-3" data-name="Caminho 347-3" class="cls-4" d="m210.203779439291,38.959352890945c-.229070171341,0-.414312540637,4.203874934356-.414312540637,9.387754871325s.185242369296,9.38974946183.414312540637,9.38974946183c.229070171343,0,.414312540637-4.202879538712.414312540637-9.38974946183s-.185242369294-9.387754871325-.414312540637-9.387754871325"/>
                <path id="Caminho_348-3" data-name="Caminho 348-3" class="cls-4" d="m201.509197957801,38.959352890945c-.229070171341,0-.414312540637,4.203874934356-.414312540637,9.387754871325s.185242369296,9.38974946183.414312540637,9.38974946183c.229070171343,0,.414312540639-4.202879538712.414312540639-9.38974946183s-.185242369296-9.387754871325-.414312540639-9.387754871325"/>
                <path id="Caminho_349-3" data-name="Caminho 349-3" class="cls-4" d="m192.814616476313,38.959352890945c-.228067177259,0-.414312540639,4.203874934356-.414312540639,9.387754871325s.185242369294,9.38974946183.414312540639,9.38974946183c.229070171341,0,.414312540637-4.202879538712.414312540637-9.38974946183s-.185242369296-9.387754871325-.414312540637-9.387754871325"/>
                <path id="Caminho_350-3" data-name="Caminho 350-3" class="cls-4" d="m184.119038649373,38.959352890945c-.228067177259,0-.414312540637,4.203874934356-.414312540637,9.387754871325s.185242369296,9.38974946183.414312540637,9.38974946183c.229070171345,0,.414312540639-4.202879538712.414312540639-9.38974946183s-.185242369294-9.387754871325-.414312540639-9.387754871325"/>
                <path id="Caminho_351-3" data-name="Caminho 351-3" class="cls-4" d="m175.423465571461,38.959352890945c-.229066372121,0-.414312540637,4.203874934356-.414312540637,9.387754871325s.185246168516,9.38974946183.414312540637,9.38974946183.414312540637-4.202879538712.414312540637-9.38974946183-.185246168516-9.387754871325-.414312540637-9.387754871325"/>
                <path id="Caminho_352-3" data-name="Caminho 352-3" class="cls-4" d="m166.727888219426,38.959352890945c-.229066372121,0-.414312540637,4.203874934356-.414312540637,9.387754871325s.185246168516,9.38974946183.414312540637,9.38974946183.414312540637-4.202879538712.414312540637-9.38974946183-.185246168516-9.387754871325-.414312540637-9.387754871325"/>
                <path id="Caminho_353-3" data-name="Caminho 353-3" class="cls-4" d="m158.033310537157,38.959352890945c-.229066372123,0-.414312540639,4.203874934356-.414312540639,9.387754871325s.185246168516,9.38974946183.414312540639,9.38974946183c.229066372121,0,.414312540637-4.202879538712.414312540637-9.38974946183s-.185246168516-9.387754871325-.414312540637-9.387754871325"/>
                <path id="Caminho_354-3" data-name="Caminho 354-3" class="cls-4" d="m149.337735084731,38.959352890945c-.229066372123,0-.414312540639,4.203874934356-.414312540639,9.387754871325s.185246168516,9.38974946183.414312540639,9.38974946183c.229066372121,0,.414312540637-4.202879538712.414312540637-9.38974946183s-.185246168516-9.387754871325-.414312540637-9.387754871325"/>
                <path id="Caminho_355-3" data-name="Caminho 355-3" class="cls-4" d="m140.642157970147,38.959352890945c-.228070976482,0-.414312540637,4.203874934356-.414312540637,9.387754871325s.185245218709,9.38974946183.414312540637,9.38974946183c.229068271732,0,.414312540637-4.202879538712.414312540637-9.38974946183s-.185246168516-9.387754871325-.414312540637-9.387754871325"/>
                <g id="Grupo_78-3" data-name="Grupo 78-3" class="cls-17">
                  <g id="Grupo_77-3" data-name="Grupo 77-3">
                    <g class="cls-13">
                      <g id="Grupo_76-3" data-name="Grupo 76-3">
                        <path id="Caminho_356-3" data-name="Caminho 356-3" d="m232.391393368734,38.655590054187c-30.641370452875,4.138687917407-61.699659711321,4.145382143065-92.342815797601.019919310517l92.342815797601-.019919310517Z"/>
                      </g>
                    </g>
                  </g>
                </g>
                <path id="Caminho_357-3" data-name="Caminho 357-3" class="cls-4" d="m138.498889025919,38.696424070866c0,.231057163408,21.320144672973.416303331923,47.61402967508.416303331923,26.293888801327,0,47.619009502707-.186241564158,47.619009502707-.416303331923s-21.313175953665-.416303331925-47.619009502707-.416303331925-47.614028725275.187236959801-47.614028725275.416303331925"/>
                <rect id="Retângulo_73-2" data-name="Retângulo 73-2" class="cls-3" x="127.348314496086" y="57.856369287985" width="95.402350467772" height="18.62412982131"/>
                <path id="Caminho_358-2" data-name="Caminho 358-2" class="cls-4" d="m216.616652910929,58.167105593073c-.229070171341,0-.414312540637,4.042529658929-.414312540637,9.029218679668s.185242369296,9.030214075311.414312540637,9.030214075311c.229070171345,0,.414312540637-4.042529658929.414312540637-9.030214075311s-.185242369293-9.029218679668-.414312540637-9.029218679668"/>
                <path id="Caminho_359-2" data-name="Caminho 359-2" class="cls-4" d="m207.771683104524,58.167105593073c-.229070171341,0-.414312540637,4.042529658929-.414312540637,9.029218679668s.185242369296,9.030214075311.414312540637,9.030214075311c.229070171343,0,.414312540639-4.042529658929.414312540639-9.030214075311s-.185242369296-9.029218679668-.414312540639-9.029218679668"/>
                <path id="Caminho_360-2" data-name="Caminho 360-2" class="cls-4" d="m199.029296987441,58.167105593073c-.229070171341,0-.414312540637,4.042529658929-.414312540637,9.029218679668s.185242369296,9.030214075311.414312540637,9.030214075311c.229070171343,0,.411326353709-4.040546466083.411326353709-9.030221673751s-.185242369296-9.029218679668-.413317144994-9.029218679668"/>
                <path id="Caminho_361-2" data-name="Caminho 361-2" class="cls-4" d="m190.333727708748,58.167105593073c-.228067177259,0-.414312540637,4.042529658929-.414312540637,9.029218679668s.185242369296,9.030214075311.414312540637,9.030214075311c.229070171343,0,.412314150912-4.040546466083.412314150912-9.030221673751s-.185242369294-9.029218679668-.414312540637-9.029218679668"/>
                <path id="Caminho_362-2" data-name="Caminho 362-2" class="cls-4" d="m181.63814988181,58.167105593073c-.228067177259,0-.414312540637,4.042529658929-.414312540637,9.029218679668s.185242369294,9.030214075311.414312540637,9.030214075311.412321749354-4.040546466083.412321749354-9.030221673751-.185242369296-9.029218679668-.414312540641-9.029218679668"/>
                <path id="Caminho_363-2" data-name="Caminho 363-2" class="cls-4" d="m172.94356840032,58.167105593073c-.229066372121,0-.414312540637,4.042529658929-.414312540637,9.029218679668s.185246168516,9.030214075311.414312540637,9.030214075311.412321749352-4.040546466083.412321749352-9.030221673751-.185246168516-9.029218679668-.414312540637-9.029218679668"/>
                <path id="Caminho_364-2" data-name="Caminho 364-2" class="cls-4" d="m164.247991523189,58.167105593073c-.229066372123,0-.414312540637,4.042529658929-.414312540637,9.029218679668s.185246168514,9.030214075311.414312540637,9.030214075311c.229066372121,0,.413317144994-4.040546466083.413317144994-9.030221673751s-.185246168516-9.029218679668-.414312540637-9.029218679668"/>
                <path id="Caminho_365-2" data-name="Caminho 365-2" class="cls-4" d="m155.552417970373,58.167105593073c-.22807097648,0-.414312540639,4.042529658929-.414312540639,9.029218679668s.185246168516,9.030214075311.414312540639,9.030214075311c.229066372121,0,.413313345774-4.040546466083.413313345774-9.030221673751s-.185246168516-9.029218679668-.414312540637-9.029218679668"/>
                <path id="Caminho_366-2" data-name="Caminho 366-2" class="cls-4" d="m146.857836488884,58.167105593073c-.228070976482,0-.414312540639,4.042529658929-.414312540639,9.029218679668s.185246168516,9.030214075311.414312540639,9.030214075311c.229066372121,0,.413317144996-4.040546466083.413317144996-9.030221673751s-.185246168518-9.029218679668-.414312540639-9.029218679668"/>
                <path id="Caminho_367-2" data-name="Caminho 367-2" class="cls-4" d="m138.161264453558,58.167105593073c-.229066372121,0-.414312540637,4.042529658929-.414312540637,9.029218679668s.18524521871,9.030214075311.414312540637,9.030214075311.414312540639-4.040546466083.414312540639-9.030221673751-.185245218712-9.029218679668-.414312540639-9.029218679668"/>
                <path id="Caminho_368-2" data-name="Caminho 368-2" class="cls-4" d="m129.46668466391,58.167105593073c-.229066847027,0-.414312303188,4.042529658929-.414312303188,9.029218679668s.185245456161,9.030214075311.414312065735,9.030214075311.414312540637-4.040546466083.414312540637-9.030221673751-.185245456161-9.029218679668-.414312065735-9.029218679668"/>
                <g id="Grupo_81-2" data-name="Grupo 81-2" class="cls-17">
                  <g id="Grupo_80-2" data-name="Grupo 80-2">
                    <g class="cls-15">
                      <g id="Grupo_79-2" data-name="Grupo 79-2">
                        <path id="Caminho_369-2" data-name="Caminho 369-2" d="m221.215914927614,57.876288598502c-29.778689163424,5.200813060558-62.626870752661,5.378092264711-92.342815797603.024900087951l92.342815797603-.024900087951Z"/>
                      </g>
                    </g>
                  </g>
                </g>
                <path id="Caminho_370-2" data-name="Caminho 370-2" class="cls-4" d="m127.323415927453,57.9151327737c0,.231060962627,21.320145622776.416303331924,47.614028725275.416303331924,26.293885002106,0,47.619013301926-.186237764939,47.619013301926-.416303331924s-21.313175953666-.416303331924-47.619009502709-.416303331924-47.614032524492.187233160582-47.614032524492.416303331924"/>
                <rect id="Retângulo_75-2" data-name="Retângulo 75-2" class="cls-3" x="133.482325788431" y="76.491456059807" width="95.40235046777" height="18.624129821311"/>
                <path id="Caminho_371-2" data-name="Caminho 371-2" class="cls-4" d="m222.750662683955,76.802187615871c-.229070171341,0-.414312540637,4.042529658928-.414312540637,9.029218679667s.185242369296,9.029218679668.414312540637,9.029218679668c.229070171343,0,.414312540637-4.041534263286.414312540637-9.029218679668s-.185242369294-9.029218679667-.414312540637-9.029218679667"/>
                <path id="Caminho_372-2" data-name="Caminho 372-2" class="cls-4" d="m213.904697481908,76.802187615871c-.229070171343,0-.414312540639,4.042529658928-.414312540639,9.029218679667s.185242369296,9.029218679668.414312540639,9.029218679668c.229070171341,0,.414312540637-4.041534263286.414312540637-9.029218679668s-.185242369296-9.029218679667-.414312540637-9.029218679667"/>
                <path id="Caminho_373-2" data-name="Caminho 373-2" class="cls-4" d="m205.162318963265,76.802187615871c-.230065566984,0-.414312540637,4.042529658928-.414312540637,9.029218679667s.185242369294,9.029218679668.414312540637,9.029218679668.413317144994-4.041534263286.413317144994-9.029218679668-.185242369294-9.029218679667-.413317144994-9.029218679667"/>
                <path id="Caminho_374-2" data-name="Caminho 374-2" class="cls-4" d="m196.467737481775,76.802187615871c-.228067177259,0-.414312540637,4.042529658928-.414312540637,9.029218679667s.185242369294,9.029218679668.414312540637,9.029218679668.414312540637-4.041534263286.414312540637-9.029218679668-.185242369294-9.029218679667-.414312540637-9.029218679667"/>
                <path id="Caminho_375-2" data-name="Caminho 375-2" class="cls-4" d="m187.773155050481,76.802187615871c-.228067177261,0-.414312540641,4.042529658928-.414312540641,9.029218679667s.185242369296,9.029218679668.414312540641,9.029218679668c.229070171341,0,.414312540637-4.041534263286.414312540637-9.029218679668s-.185242369296-9.029218679667-.414312540637-9.029218679667"/>
                <path id="Caminho_376-2" data-name="Caminho 376-2" class="cls-4" d="m179.076582777705,76.802187615871c-.230061767765,0-.414312540639,4.042529658928-.414312540639,9.029218679667s.185246168516,9.029218679668.414312540639,9.029218679668c.229066372121,0,.413317144994-4.041534263286.413317144994-9.029218679668s-.185246168516-9.029218679667-.413317144994-9.029218679667"/>
                <path id="Caminho_377-2" data-name="Caminho 377-2" class="cls-4" d="m170.382005095435,76.802187615871c-.229066372123,0-.414312540637,4.042529658928-.414312540637,9.029218679667s.185246168514,9.029218679668.414312540637,9.029218679668c.229066372121,0,.414312540637-4.041534263286.414312540637-9.029218679668s-.185246168516-9.029218679667-.414312540637-9.029218679667"/>
                <path id="Caminho_378-2" data-name="Caminho 378-2" class="cls-4" d="m161.6864277434,76.802187615871c-.229066372123,0-.414312540639,4.042529658928-.414312540639,9.029218679667s.185246168516,9.029218679668.414312540639,9.029218679668c.229066372121,0,.414312540637-4.041534263286.414312540637-9.029218679668s-.185246168516-9.029218679667-.414312540637-9.029218679667"/>
                <path id="Caminho_379-2" data-name="Caminho 379-2" class="cls-4" d="m152.990852290974,76.802187615871c-.229066372121,0-.414312540637,4.042529658928-.414312540637,9.029218679667s.185246168516,9.029218679668.414312540637,9.029218679668.414312540637-4.041534263286.414312540637-9.029218679668-.185246168516-9.029218679667-.414312540637-9.029218679667"/>
                <path id="Caminho_380-2" data-name="Caminho 380-2" class="cls-4" d="m144.296272709094,76.802187615871c-.229066372123,0-.414312540637,4.042529658928-.414312540637,9.029218679667s.185246168514,9.029218679668.414312540637,9.029218679668c.229066372121,0,.414312540637-4.041534263286.414312540637-9.029218679668s-.185246168516-9.029218679667-.414312540637-9.029218679667"/>
                <path id="Caminho_381-2" data-name="Caminho 381-2" class="cls-4" d="m135.600696069412,76.802187615871c-.22807097648,0-.414312540637,4.042529658928-.414312540637,9.029218679667s.18524521871,9.029218679668.414312540637,9.029218679668.414312540637-4.041534263286.414312540637-9.029218679668-.18524521871-9.029218679667-.414312540637-9.029218679667"/>
                <g id="Grupo_84-2" data-name="Grupo 84-2" class="cls-17">
                  <g id="Grupo_83-2" data-name="Grupo 83-2">
                    <g class="cls-16">
                      <g id="Grupo_82-2" data-name="Grupo 82-2">
                        <path id="Caminho_382-2" data-name="Caminho 382-2" d="m227.349931942903,76.511371571104c-29.778689163422,5.88601758642-62.626870752661,6.090187669811-92.342815797603.029877066167l92.342815797603-.029877066167Z"/>
                      </g>
                    </g>
                  </g>
                </g>
                <path id="Caminho_383-2" data-name="Caminho 383-2" class="cls-4" d="m133.457427125186,76.549219400855c0,.231060962627,21.320145622776.417298727566,47.614026825664.417298727566,26.293877403667,0,47.619005703487-.187240759022,47.619005703487-.417298727566,0-.230057968546-21.313175953666-.416303331925-47.619009502707-.416303331925s-47.614028725273.187240759022-47.614028725273.416303331925"/>
                <rect id="Retângulo_77-2" data-name="Retângulo 77-2" class="cls-3" x="128.03153123405" y="94.860624025401" width="95.402350467772" height="18.624129821311"/>
                <path id="Caminho_384-2" data-name="Caminho 384-2" class="cls-4" d="m217.300865840367,95.17135843088c-.228067177259,0-.414312540637,4.042529658927-.414312540637,9.029218679667s.185242369296,9.03020647687.414312540637,9.03020647687c.229070171343,0,.414312540639-4.042529658929.414312540639-9.030214075311s-.185242369296-9.029218679667-.414312540639-9.029218679667"/>
                <path id="Caminho_385-2" data-name="Caminho 385-2" class="cls-4" d="m208.454901588126,95.17135843088c-.229070171345,0-.414312540637,4.042529658927-.414312540637,9.029218679667s.185242369293,9.03020647687.414312540637,9.03020647687c.229070171341,0,.414312540637-4.042529658929.414312540637-9.030214075311s-.185242369296-9.029218679667-.414312540637-9.029218679667"/>
                <path id="Caminho_386-2" data-name="Caminho 386-2" class="cls-4" d="m199.70853388847,95.17135843088c-.228067177259,0-.414312540637,4.042529658927-.414312540637,9.029218679667s.185242369294,9.03020647687.414312540637,9.03020647687.414312540639-4.042529658929.414312540639-9.030214075311-.185242369296-9.029218679667-.414312540639-9.029218679667"/>
                <path id="Caminho_387-2" data-name="Caminho 387-2" class="cls-4" d="m191.01395240698,95.17135843088c-.229070171343,0-.414312540637,4.042529658927-.414312540637,9.029218679667s.185242369294,9.03020647687.414312540637,9.03020647687.414312540639-4.042529658929.414312540639-9.030214075311-.185242369296-9.029218679667-.414312540639-9.029218679667"/>
                <path id="Caminho_388-2" data-name="Caminho 388-2" class="cls-4" d="m182.318374580042,95.17135843088c-.230065566984,0-.414312540637,4.042529658927-.414312540637,9.029218679667s.185242369296,9.03020647687.414312540637,9.03020647687c.229070171343,0,.413317144996-4.042529658929.413317144996-9.030214075311s-.185242369296-9.029218679667-.413317144996-9.029218679667"/>
                <path id="Caminho_389-2" data-name="Caminho 389-2" class="cls-4" d="m173.623796897773,95.17135843088c-.229066372123,0-.414312540637,4.042529658927-.414312540637,9.029218679667s.185246168514,9.03020647687.414312540637,9.03020647687c.229066372121,0,.414312540637-4.042529658929.414312540637-9.030214075311s-.185246168516-9.029218679667-.414312540637-9.029218679667"/>
                <path id="Caminho_390-2" data-name="Caminho 390-2" class="cls-4" d="m164.928222870054,95.17135843088c-.229066372121,0-.414312540637,4.042529658927-.414312540637,9.029218679667s.185246168516,9.03020647687.414312540637,9.03020647687c.229066372123,0,.414312540639-4.042529658929.414312540639-9.030214075311s-.185246168516-9.029218679667-.414312540639-9.029218679667"/>
                <path id="Caminho_391-2" data-name="Caminho 391-2" class="cls-4" d="m156.233641388564,95.17135843088c-.230061767765,0-.414312540637,4.042529658927-.414312540637,9.029218679667s.185246168516,9.03020647687.414312540637,9.03020647687.413317144996-4.042529658929.413317144996-9.030214075311-.185246168516-9.029218679667-.413317144996-9.029218679667"/>
                <path id="Caminho_392-2" data-name="Caminho 392-2" class="cls-4" d="m147.539061806685,95.17135843088c-.229066372123,0-.414312540637,4.042529658927-.414312540637,9.029218679667s.185246168514,9.03020647687.414312540637,9.03020647687c.229066372121,0,.414312540637-4.042529658929.414312540637-9.030214075311s-.185246168516-9.029218679667-.414312540637-9.029218679667"/>
                <path id="Caminho_393-2" data-name="Caminho 393-2" class="cls-4" d="m138.843485404455,95.17135843088c-.229066372123,0-.414312540639,4.042529658927-.414312540639,9.029218679667s.185245218712,9.03020647687.414312540639,9.03020647687.414312540637-4.042529658929.414312540637-9.030214075311-.18524521871-9.029218679667-.414312540637-9.029218679667"/>
                <path id="Caminho_394-2" data-name="Caminho 394-2" class="cls-4" d="m130.148905407035,95.17135843088c-.22807097648,0-.414312303186,4.042529658927-.414312303186,9.029218679667s.186241326706,9.03020647687.414312065735,9.03020647687c.228070739027,0,.41331619519-4.042529658929.41331619519-9.030214075311s-.185245456163-9.029218679667-.41331619519-9.029218679667"/>
                <g id="Grupo_87-2" data-name="Grupo 87-2" class="cls-17">
                  <g id="Grupo_86-2" data-name="Grupo 86-2">
                    <g class="cls-14">
                      <g id="Grupo_85-2" data-name="Grupo 85-2">
                        <path id="Caminho_395-2" data-name="Caminho 395-2" d="m221.899133055038,94.880539536698c-29.778689163422,5.200813060557-62.626870752661,5.378092264711-92.342815797605.024900087953l92.342815797605-.024900087953Z"/>
                      </g>
                    </g>
                  </g>
                </g>
                <path id="Caminho_396-2" data-name="Caminho 396-2" class="cls-4" d="m128.007628604599,94.919378962871c0,.231060962628,21.320146394493.416303331924,47.61402949699.416303331924,26.293885002107,0,47.619005703489-.186237764939,47.619005703489-.416303331924s-21.313175953668-.416303331924-47.619009502709-.416303331924-47.614028725275.187240759022-47.614028725275.416303331924"/>
                <path id="Caminho_397-2" data-name="Caminho 397-2" class="cls-4" d="m223.433878318141,113.483758117153c-.022202641745-.104379770582-.031898251213-.211031474731-.028881670523-.317705974199-.007970763583-.244008704425-.016929324371-.551753123755-.028881670523-.937183993869-.0129477418-.867468306668-.03087246181-2.077535077047-.054777154119-3.624235535719-.022909296666-3.200956835856-.054777154117-7.782299475182-.094615775155-13.490042461806v-.207156270319h.20715627032l5.256585610319-.023904692309-.228067177259.231060962627c-.015933928727-5.440832583972-.033858648738-11.741170309469-.054777154119-18.635082972603l.282844331377.284842721104-6.133012477774.011952346154h-.293801281889v-.298785858543c-.004976978216-5.757543162528-.010956950513-11.99712376161-.017924720012-18.480713065117v-.307752017769h11.487207648614l-.311733600342.313720592407c.005972373858-6.890926476205.011952346156-13.510957167966.017924720014-19.719665305239l.298785858542.298782059324-9.05810035019-.016929324369h-.278862748804v-.279858144449c.020918505377-6.740540050901.040834016676-12.819774569417.056767945402-18.060426251011v-.223092098655h.220104012116l2.336482314557.010955050902-.21113785289.214127839038c-.019915511299-5.999559176057-.03486164282-10.814942316306-.046806390535-14.176249031944.007970763583-1.626374376425.012947741798-2.899189301957.01792472001-3.808484883885.007970763583-.40634462647.013943137441-.730026061392.018920115657-.984987382843-.004285520174-.112216255483.004741426572-.224545359672.026890879235-.334636782638.024588551913.109458793471.035955818186.221473215391.033858648738.333640852729.00996155487.254961380815.023904692311.578642697011.038843225395.984987442207.022909296664.909295819379.053781758475,2.181114636914.09362037951,3.807489013339.056767945405,3.361306715639.137440583117,8.175693510439.238028732127,14.174257290853v.213132443397h-.21412403982l-2.336482314555.010955050901.22109940776-.223092098655c.016929324369,5.240651681593.035857038463,11.319886200111.056767945403,18.060424351401l-.277867353163-.279858144449,9.058100350192-.016929324369h.298785858544v.298782059324c.005972373858,6.208708137273.011952346154,12.829734224676.01792472001,19.719665305239v.313720592407h-11.488195445816l.310730606257-.312725196765c-.005972373856,6.484584699151-.011952346153,12.724165298232-.01792472001,18.480713065116l-.29380128189-.298785858543,6.133012477774.011952346154h.28384732546v.284842721104c-.019915511299,6.893912663133-.038843225391,13.19425038863-.053781758475,18.635082972603v.231060962627h-.229070171343l-5.256585610319-.023904692309.206160874677-.207156270319c-.039838621036,5.707750585063-.071706478488,10.28908562595-.094615775155,13.490042461805-.022909296664,1.545705063029-.040834016678,2.755771833408-.054777154117,3.624235535719-.011952346156.385430870115-.020918505381.697156872016-.028881670523.93718399387.003008982249.106674499468-.006686627219.213326203617-.028881670523.317705974198"/>
              </g>
            </g>
          </g>
        </g>
      </g>
    </g>
  </g>
</svg>