<?xml version="1.0" encoding="UTF-8"?>
<svg id="Camada_1" data-name="Camada 1" xmlns="http://www.w3.org/2000/svg" xmlns:xlink="http://www.w3.org/1999/xlink" viewBox="0 0 84 84">
  <defs>
    <style>
      .cls-1 {
        fill: none;
      }

      .cls-2 {
        clip-path: url(#clippath);
      }

      .cls-3 {
        fill: #e2b77a;
        stroke: #ab8e5c;
        stroke-miterlimit: 4.000000084698;
      }

      .cls-3, .cls-4 {
        stroke-width: 3.000000063524px;
      }

      .cls-5 {
        fill: #e7c597;
      }

      .cls-6 {
        fill: #e5e5e5;
      }

      .cls-7 {
        fill: #bf9b68;
      }

      .cls-8 {
        fill: #a48356;
      }

      .cls-9 {
        fill: #d6d6d6;
      }

      .cls-10 {
        fill: #afadad;
      }

      .cls-11 {
        clip-path: url(#clippath-1);
      }

      .cls-12 {
        clip-path: url(#clippath-2);
      }

      .cls-4 {
        fill: #fff;
        stroke: #9f9f9f;
        stroke-linecap: round;
        stroke-linejoin: round;
      }
    </style>
    <clipPath id="clippath">
      <rect class="cls-1" x="-3.144943499257" y="-2.909173676473" width="90.867998139911" height="91.22699930718" transform="translate(-6.504974830781 77.792305049742) rotate(-81.000000399007)"/>
    </clipPath>
    <clipPath id="clippath-1">
      <path class="cls-1" d="m43.198577401502-5.708828439914L-.701424362795,4.491171369351s-8.023998260498,83.640998840332,9.642002105713,84.289001464844c4.200000762939.153999328613,59.099998474121,2.342002868652,77.509002685547-15.883003234863C106.076575515134,50.618170270718,69.961577651365,7.081171521939,69.961577651365,7.081171521939l-27.382000274956,36.062000274658.619000025094-48.852000236511Z"/>
    </clipPath>
    <clipPath id="clippath-2">
      <rect class="cls-1" x="1.579367816026" y="-1.398436057164" width="82.606004556764" height="89.019998528026" transform="translate(-6.406698607214 78.721846182118) rotate(-81.000000399007)"/>
    </clipPath>
  </defs>
  <g id="Grupo_619" data-name="Grupo 619">
    <g id="Grupo_400" data-name="Grupo 400">
      <g id="Grupo_366" data-name="Grupo 366">
        <g class="cls-2">
          <g id="Grupo_365" data-name="Grupo 365">
            <path id="Caminho_890" data-name="Caminho 890" class="cls-3" d="m81.352615260211,42.920881832915c-.225171644506,21.566646517829-17.890927424502,38.867337188811-39.457577710062,38.642164947552-21.566648401695-.225171942884-38.867334346927-17.890934698889-38.642163820965-39.457581393877C3.478044137407,20.538818672952,21.143803720238,3.238132949311,42.710450419888,3.463303445838c.030299427923.000316426625.060597168911.000667889428.090897055965.00105457306,21.489601440913.197110211546,38.750576715916,17.777663204986,38.553466508394,39.267262715415-.000583442954.063086244902-.001314236979.126176187423-.002198724036.189261098601"/>
            <path id="Caminho_891" data-name="Caminho 891" class="cls-5" d="m72.062816166072,42.80217470386c-.17148156538,16.435100580788-13.633779448708,29.61936439131-30.068880029496,29.447882825931-16.435098696922-.171481267005-29.619364626793-13.633779486008-29.447881442466-30.068879810378.171482944821-16.43509843118,13.633778102543-29.619364845912,30.068878440899-29.447881749891.022954029679.00023949836.045907715106.000505555501.068861000338.000798524647,16.414863796559.190907819555,29.567707535953,13.651210425423,29.379335026159,30.066104034207"/>
            <path id="Caminho_892" data-name="Caminho 892" class="cls-8" d="m72.066794901534,41.869312078428c-.180972400289.004749096617-.290664409426-1.303519016265-.740666427366-3.589053883432-.624375938354-3.207900670288-1.742743529558-6.299492771028-3.3151817334-9.164438263782-1.086552244695-1.956055668255-2.38492752286-3.78668585111-3.871712174758-5.458877382447-1.708693034398-1.903491803479-3.655079905915-3.579350173943-5.79126424787-4.986343581615-2.356513044284-1.550604360307-4.925201569298-2.751700734991-7.626063143951-3.565881009923-1.425652289468-.428717606226-2.882097511683-.747401523478-4.356515300238-.953245134826-1.51930027796-.203092462567-3.051319028575-.295840986204-4.584023140131-.277515767859-1.532560989808.038563616936-3.060314968483.188089629703-4.571269152402.447404366065-1.465905579964.260196754414-2.909644609292.632680698745-4.318460306706,1.114161234751-2.669447069449.913388810539-5.19213783021,2.209513305803-7.489134586163,3.847814010787-2.083198307761,1.485619368124-3.966221330578,3.233552421456-5.602529357469,5.200599981235-1.423284209344,1.724974429333-2.652186920406,3.601510288941-3.664467100194,5.595643232902-1.463681032836,2.921450175056-2.465383500599,6.052245704128-2.969386791878,9.280747703508-.364179287866,2.299337634016-.423967431045,3.610123538518-.605456510617,3.611751211984-.137043734347.008667124279-.379721569654-1.297374517715-.280420664189-3.701437881331.177865029356-3.412143755997.989860577214-6.761287879357,2.394429094624-9.876018876459,2.094518096352-4.685498785624,5.362666252253-8.751242379865,9.488373126449-11.804019426068,1.186708188732-.889219076806,2.440044089053-1.685859903295,3.748919497786-2.38287709778,1.363329637057-.737145649209,2.783096016585-1.364756484907,4.245886193748-1.8769048458,1.515201934284-.534229769923,3.070292958484-.947751115307,4.650719184221-1.236693048833,1.62752875536-.288688942972,3.274551881606-.453937563418,4.926991937544-.49433437456,1.65391476759-.021554974051,3.307085345994.082222635199,4.945320260427.310440520128,1.589523761064.229440187422,3.158291656953.58489219655,4.691471979422,1.062995126447,2.898974849715.905044466565,5.645828245229,2.239727363101,8.148920761996,3.959520328593,4.236580287357,2.896706760655,7.653544015047,6.838134952864,9.920098019527,11.442724035152,1.519819721609,3.060681143137,2.457081884953,6.377354107532,2.763973605313,9.780798444413.18850666549,2.395987459682-.004892782261,3.712946473835-.138709372259,3.714027524558"/>
            <path id="Caminho_893" data-name="Caminho 893" class="cls-7" d="m45.444210458031,60.214480917861l.009947026061,5.185395920738-4.628764340134.004962967845-.011107331935-5.04383519263c-4.582155909116-.270132078236-8.982114927214-1.697005143458-11.5298025764-3.683001952997l2.53703940294-5.649675904391c2.661211684539,1.849844586497,5.75751191728,2.976281486244,8.985263109718,3.268849719669l-.013047494464-7.729200484226c-5.139415166301-1.239238796634-10.882289875735-2.938544261515-10.892173566022-9.562644575679-.00867836111-4.905754580457,3.546892377593-9.123467585097,10.858042011763-9.968151036654l-.008253784807-5.138555664746,4.629233628155-.007925935912.010637987969,5.046798513922c3.311252480617.177283993546,6.533016769903,1.138682012015,9.399927755869,2.805007112656l-2.303691004632,5.697772415931c-2.179832667887-1.260748212066-4.58884343757-2.074928695376-7.086576415055-2.395072046489l.014177003068,7.86910006534c5.138554265766,1.193541434568,10.789407938424,2.898520034967,10.798818386822,9.423324243235.007941142954,4.814516764502-3.502794723736,8.985671254786-10.767697391166,9.87716423307m-4.666245958029-20.450744511738l-.011936240262-6.572789081167c-2.451687383218.559358128903-3.420857387684,1.903292730874-3.418883893897,3.431415029387.003540681013,1.620505408755,1.392436255104,2.497574896775,3.430820134159,3.14137405178m7.980325159147,11.141567836559c-.003540681009-1.620505408757-1.347052457437-2.496462125851-3.342105218991-3.190096107368l.010776800988,6.38833759079c2.313637881507-.512375553262,3.330778152984-1.718104701367,3.327377950904-3.198867175915"/>
          </g>
        </g>
      </g>
    </g>
    <g class="cls-11">
      <g id="Grupo_de_máscara_20" data-name="Grupo de máscara 20">
        <g id="Grupo_402" data-name="Grupo 402">
          <g class="cls-12">
            <g id="Grupo_401" data-name="Grupo 401">
              <path id="Caminho_920" data-name="Caminho 920" class="cls-4" d="m81.245158436771,42.910345929296c-.225104877005,21.568858574135-17.892604343331,38.871389584263-39.461462917465,38.646284707256-21.568856690268-.225104578631-38.871388406846-17.892604156845-38.646284479815-39.461459019194C3.362515861646,20.526311103413,21.030013952369,3.22377963402,42.598873510394,3.448884395295c.029852216925.000311313928.059706668497.000657289416.08955954502.001037594629,21.491818174964.196306736943,38.755238432881,17.778004702401,38.558935255613,39.269824406727-.000584846788.063534043325-.001316447899.127068016542-.002209874256.190599532645"/>
              <path id="Caminho_921" data-name="Caminho 921" class="cls-6" d="m71.953225485068,42.792315274002c-.170863182058,16.437316966119-13.634452015165,29.623879047014-30.071767694169,29.453019931061-16.437315082254-.170862883684-29.623880695397-13.634452276245-29.453017870581-30.071767367823.170863005445-16.437316994094,13.634451418777-29.62388252094,30.071767480262-29.453019723551.025152015733.000261566918.05030286669.000554873246.075452543537.000879977855,16.415354313467.193516971987,29.566938008757,13.655483782548,29.377565540952,30.070887182457"/>
              <path id="Caminho_922" data-name="Caminho 922" class="cls-9" d="m71.957205162465,41.859452797758c-.180972400292.004749096617-.290664409429-1.303519016265-.741653871552-3.589208348096-.624715707079-3.207998900218-1.743415455458-6.299639747234-3.316168879206-9.164594612312-1.086565188954-1.956047097243-2.3849407655-3.78667539623-3.871712174761-5.458877382447-1.708613660656-1.903797867377-3.654944399619-3.579986259581-5.791107824745-4.987331198392-2.356725989419-1.551040002687-4.925697030205-2.75252293242-7.62689386664-3.567024975227-1.425655981857-.428694293383-2.88210316253-.747378038044-4.356515300235-.953245134826-1.519301919023-.203082101303-3.051318785772-.295830326566-4.584023140131-.277515767857-1.532886806513.038474838502-3.060970461745.187948635636-4.572256298212.447248017534-1.466233280535.260107677608-2.910303870287.63253910793-4.319447452515,1.114004886222-2.671217821669.91304076161-5.195649841929,2.209246726419-7.494229638725,3.848019908319-2.08362414614,1.485832900498-3.96703357482,3.234047527671-5.603673793741,5.201430629329-1.423264335135,1.724989163842-2.652165334923,3.601523363364-3.664467100194,5.595643232902-1.463727032291,2.921792422903-2.465479407663,6.052912200717-2.969543140407,9.281734849315-.364179287868,2.299337634016-.424123779574,3.611110684327-.605456510615,3.611751211985-.132108005302.009448866924-.374159849744-1.300545126038-.275484935144-3.700656138684.177862133865-3.412478299053.989911197223-6.761957686464,2.394585741527-9.877007906136,2.094473182986-4.686158619117,5.362725095874-8.752577122263,9.488685972698-11.805994659619,1.186715323438-.88920925672,2.44004941449-1.685850852553,3.748919497782-2.38287709778,1.363334589529-.737134243633,2.783100969054-1.364745079331,4.245886193748-1.8769048458,1.515207120046-.534213740979,3.070296148489-.947734678286,4.650719184225-1.236693048833,1.628213032851-.289022308687,3.275951765983-.454497284925,4.929122726877-.495009765244,1.654248653664-.021541528868,3.307750766849.082288756286,4.946309290106.310597167032,1.589523745617.229440284929,3.1582897591.584891986484,4.691470095553,1.062994828073,2.898245698831.905185638867,5.644414495335,2.239752803514,8.146946470377,3.959207631535,4.236944272965,2.897017870337,7.654189546709,6.838838740161,9.92092866762,11.443868471424,1.519816038926,3.061021403246,2.457029455996,6.378026524815,2.763817107596,9.781786532156.188506665494,2.395987459682-.005049429165,3.713935503511-.138709372255,3.714027524558"/>
              <path id="Caminho_923" data-name="Caminho 923" class="cls-10" d="m45.331344253043,60.206129410646l.009947026065,5.185395920736-4.628764340136.004962967845-.011107331933-5.04383519263c-4.583143996861-.270288575954-8.983102073023-1.697161491988-11.531777809952-3.683314799244l2.53766633574-5.653628106173c2.660632200636,1.851147076804,5.756733238848,2.978954423272,8.984637118851,3.272802070638l-.013878291744-7.730343978565c-5.140402783076-1.239395219756-10.884265109285-2.93885710776-10.893161653763-9.562801073394-.006546480654-4.906430763887,3.54918083036-9.125132327235,10.861474975394-9.970646897851l-.008254726739-5.138555813932,4.629233628153-.007925935914.010637987969,5.046798513922c3.311591517944.177252722326,6.533694903123,1.138704448304,9.400916785547,2.805163759562l-2.303847353163,5.698759561741c-2.180021198103-1.261203885162-4.58931780373-2.075774346073-7.087407063147-2.396216482761l.014020505354,7.87008815308c5.138552381894,1.193541136194,10.79039508423,2.898676383498,10.800794562303,9.423637238671.007941142954,4.8145167645-3.502951072263,8.986658400594-10.768841482255,9.877998798082m-4.668223719005-20.451059689414l-.01193624026-6.572789081167c-2.45168738322.559358128903-3.420857387686,1.903292730874-3.419871510672,3.431258606262.003540681011,1.620505408757,1.39243672607,2.49757497137,3.431807750932,3.141530474904m7.981157541921,11.142713513138c-.003540681013-1.620505408755-1.34705245744-2.49646212585-3.341948870464-3.191083253176l.010620452456,6.3893247366c2.313637881511-.512375553262,3.330778152984-1.718104701367,3.328366980579-3.198710529012"/>
            </g>
          </g>
        </g>
      </g>
    </g>
  </g>
</svg>