<?xml version="1.0" encoding="UTF-8"?>
<svg id="Camada_1" data-name="Camada 1" xmlns="http://www.w3.org/2000/svg" xmlns:xlink="http://www.w3.org/1999/xlink" viewBox="0 0 84 84">
  <defs>
    <style>
      .cls-1 {
        fill: none;
      }

      .cls-2 {
        clip-path: url(#clippath);
      }

      .cls-3 {
        fill: #e2b77a;
        stroke: #ab8e5c;
        stroke-miterlimit: 4.000000084698;
      }

      .cls-3, .cls-4 {
        stroke-width: 3.000000063524px;
      }

      .cls-5 {
        fill: #e7c597;
      }

      .cls-6 {
        fill: #e5e5e5;
      }

      .cls-7 {
        fill: #bf9b68;
      }

      .cls-8 {
        fill: #a48356;
      }

      .cls-9 {
        fill: #d6d6d6;
      }

      .cls-10 {
        fill: #afadad;
      }

      .cls-11 {
        clip-path: url(#clippath-1);
      }

      .cls-12 {
        clip-path: url(#clippath-2);
      }

      .cls-4 {
        fill: #fff;
        stroke: #9f9f9f;
        stroke-linecap: round;
        stroke-linejoin: round;
      }
    </style>
    <clipPath id="clippath">
      <rect class="cls-1" x="-3.817347226499" y="-2.910162875158" width="90.867998139911" height="91.22699930718" transform="translate(-7.071214425277 77.127345273516) rotate(-81.000000399007)"/>
    </clipPath>
    <clipPath id="clippath-1">
      <polygon class="cls-1" points="41.90717293391 -7.994817486011 32.081172720287 -7.994817486011 15.351173178051 -1.147817363941 -.28382895818 30.054184207715 -12.856827005055 61.732185611523 41.90717293391 44.292183170117 41.90717293391 -7.994817486011"/>
    </clipPath>
    <clipPath id="clippath-2">
      <rect class="cls-1" x=".906965280876" y="-1.399425255849" width="82.606004556764" height="89.019998528026" transform="translate(-6.972937196102 78.056887583307) rotate(-81.000000399007)"/>
    </clipPath>
  </defs>
  <g id="Grupo_625" data-name="Grupo 625">
    <g id="Grupo_419" data-name="Grupo 419">
      <g id="Grupo_366-8" data-name="Grupo 366-8">
        <g class="cls-2">
          <g id="Grupo_365-8" data-name="Grupo 365-8">
            <path id="Caminho_890-8" data-name="Caminho 890-8" class="cls-3" d="m80.68021153297,42.919892634231c-.225171644508,21.566646517829-17.890927424503,38.867337188811-39.457577710064,38.642164947552-21.566648401695-.225171942884-38.867334346927-17.890934698889-38.642163820963-39.457581393877C2.805640410164,20.537829474268,20.471399992997,3.237143750626,42.038046692647,3.462314247154c.030299427925.000316426625.060597168911.000667889428.090897055963.00105457306,21.489601440915.197110211546,38.750576715918,17.777663204986,38.553466508394,39.267262715415-.000583442952.063086244902-.001314236977.126176187423-.002198724034.189261098601"/>
            <path id="Caminho_891-8" data-name="Caminho 891-8" class="cls-5" d="m71.390412438832,42.801185505175c-.17148156538,16.435100580788-13.63377944871,29.61936439131-30.068880029497,29.447882825931-16.43509869692-.171481267005-29.619364626793-13.633779486008-29.447881442466-30.068879810378.171482944823-16.43509843118,13.633778102543-29.619364845912,30.068878440901-29.447881749891.022954029677.00023949836.045907715104.000505555501.068861000338.000798524647,16.414863796557.190907819555,29.567707535953,13.651210425423,29.379335026159,30.066104034207"/>
            <path id="Caminho_892-8" data-name="Caminho 892-8" class="cls-8" d="m71.394391174294,41.868322879744c-.180972400291.004749096617-.290664409427-1.303519016265-.740666427368-3.589053883432-.624375938352-3.207900670288-1.742743529556-6.299492771028-3.315181733396-9.164438263782-1.086552244695-1.956055668255-2.384927522864-3.78668585111-3.87171217476-5.458877382447-1.708693034398-1.903491803479-3.655079905917-3.579350173943-5.79126424787-4.986343581615-2.356513044284-1.550604360307-4.9252015693-2.751700734991-7.626063143953-3.565881009923-1.425652289467-.428717606226-2.882097511681-.747401523478-4.356515300236-.953245134826-1.51930027796-.203092462567-3.051319028576-.295840986204-4.584023140133-.277515767859-1.532560989806.038563616936-3.060314968481.188089629703-4.571269152402.447404366065-1.465905579962.260196754414-2.90964460929.632680698745-4.318460306704,1.114161234751-2.669447069449.913388810539-5.19213783021,2.209513305803-7.489134586165,3.847814010787-2.083198307761,1.485619368124-3.966221330576,3.233552421456-5.602529357468,5.200599981235-1.423284209346,1.724974429333-2.652186920408,3.601510288941-3.664467100194,5.595643232902-1.463681032837,2.921450175056-2.465383500599,6.052245704128-2.96938679188,9.280747703508-.364179287866,2.299337634016-.423967431045,3.610123538518-.605456510615,3.611751211984-.137043734348.008667124279-.379721569656-1.297374517715-.280420664189-3.701437881331.177865029355-3.412143755997.989860577214-6.761287879357,2.394429094624-9.876018876459,2.094518096352-4.685498785624,5.362666252253-8.751242379865,9.488373126449-11.804019426068,1.18670818873-.889219076806,2.440044089053-1.685859903295,3.748919497784-2.38287709778,1.363329637059-.737145649209,2.783096016585-1.364756484907,4.245886193748-1.8769048458,1.515201934284-.534229769923,3.070292958484-.947751115307,4.650719184223-1.236693048833,1.62752875536-.288688942972,3.274551881606-.453937563418,4.926991937542-.49433437456,1.653914767594-.021554974051,3.307085345998.082222635199,4.945320260431.310440520128,1.589523761062.229440187422,3.158291656951.58489219655,4.691471979419,1.062995126447,2.898974849715.905044466565,5.645828245229,2.239727363101,8.148920761996,3.959520328593,4.236580287357,2.896706760655,7.653544015049,6.838134952864,9.920098019527,11.442724035152,1.519819721609,3.060681143137,2.457081884953,6.377354107532,2.763973605315,9.780798444413.18850666549,2.395987459682-.004892782263,3.712946473835-.138709372257,3.714027524558"/>
            <path id="Caminho_893-8" data-name="Caminho 893-8" class="cls-7" d="m44.771806730789,60.213491719176l.009947026063,5.185395920738-4.628764340136.004962967845-.011107331933-5.04383519263c-4.582155909118-.270132078236-8.982114927214-1.697005143458-11.5298025764-3.683001952997l2.537039402938-5.649675904391c2.661211684541,1.849844586497,5.757511917282,2.976281486244,8.98526310972,3.268849719669l-.013047494465-7.729200484226c-5.139415166301-1.239238796634-10.882289875733-2.938544261515-10.892173566021-9.562644575679-.00867836111-4.905754580457,3.546892377593-9.123467585097,10.858042011763-9.968151036654l-.008253784807-5.138555664746,4.629233628153-.007925935912.010637987969,5.046798513922c3.311252480617.177283993546,6.533016769905,1.138682012015,9.399927755871,2.805007112656l-2.303691004634,5.697772415931c-2.179832667885-1.260748212066-4.58884343757-2.074928695376-7.086576415055-2.395072046489l.014177003071,7.86910006534c5.138554265763,1.193541434568,10.789407938422,2.898520034967,10.798818386822,9.423324243235.007941142951,4.814516764502-3.502794723738,8.985671254786-10.767697391168,9.87716423307m-4.666245958031-20.450744511738l-.01193624026-6.572789081167c-2.45168738322.559358128903-3.420857387684,1.903292730874-3.418883893897,3.431415029387.003540681011,1.620505408755,1.392436255102,2.497574896775,3.430820134157,3.14137405178m7.980325159149,11.141567836559c-.003540681011-1.620505408757-1.347052457439-2.496462125851-3.342105218993-3.190096107368l.010776800988,6.38833759079c2.313637881509-.512375553262,3.330778152984-1.718104701367,3.327377950904-3.198867175915"/>
          </g>
        </g>
      </g>
    </g>
    <g class="cls-11">
      <g id="Grupo_de_máscara_25" data-name="Grupo de máscara 25">
        <g id="Grupo_421" data-name="Grupo 421">
          <g class="cls-12">
            <g id="Grupo_420" data-name="Grupo 420">
              <path id="Caminho_950" data-name="Caminho 950" class="cls-4" d="m80.572755901623,42.909356730612c-.225104877007,21.568858574135-17.892604343329,38.871389584263-39.461462917465,38.646284707256-21.56885669027-.225104578631-38.871388406847-17.892604156845-38.646284479817-39.461459019194C2.690113326498,20.525321904728,20.357611417219,3.222790435335,41.926470975246,3.44789519661c.029852216925.000311313928.059706668495.000657289416.089559545018.001037594629,21.491818174967.196306736943,38.755238432883,17.778004702401,38.558935255613,39.269824406727-.000584846788.063534043325-.001316447897.127068016542-.002209874254.190599532645"/>
              <path id="Caminho_951" data-name="Caminho 951" class="cls-6" d="m71.280822949922,42.791326075318c-.17086318206,16.437316966119-13.634452015169,29.623879047014-30.071767694171,29.453019931061-16.437315082254-.170862883684-29.623880695397-13.634452276245-29.453017870583-30.071767367823.170863005447-16.437316994094,13.634451418779-29.62388252094,30.071767480262-29.453019723551.025152015734.000261566918.05030286669.000554873246.07545254354.000879977855,16.415354313465.193516971987,29.566938008755,13.655483782548,29.377565540952,30.070887182457"/>
              <path id="Caminho_952" data-name="Caminho 952" class="cls-9" d="m71.284802627315,41.858463599074c-.180972400291.004749096617-.290664409427-1.303519016265-.741653871552-3.589208348096-.624715707079-3.207998900218-1.743415455458-6.299639747234-3.316168879206-9.164594612312-1.086565188954-1.956047097243-2.384940765498-3.78667539623-3.871712174758-5.458877382447-1.708613660658-1.903797867377-3.654944399623-3.579986259581-5.791107824747-4.987331198392-2.356725989419-1.551040002687-4.925697030207-2.75252293242-7.62689386664-3.567024975227-1.425655981857-.428694293383-2.882103162532-.747378038044-4.356515300236-.953245134826-1.519301919023-.203082101303-3.051318785772-.295830326566-4.584023140131-.277515767857-1.532886806512.038474838502-3.060970461745.187948635636-4.572256298212.447248017534-1.466233280535.260107677608-2.910303870287.63253910793-4.319447452513,1.114004886222-2.671217821671.91304076161-5.195649841929,2.209246726419-7.494229638727,3.848019908319-2.083624146138,1.485832900498-3.967033574818,3.234047527671-5.603673793739,5.201430629329-1.423264335137,1.724989163842-2.652165334925,3.601523363364-3.664467100194,5.595643232902-1.463727032291,2.921792422903-2.465479407665,6.052912200717-2.969543140409,9.281734849315-.364179287866,2.299337634016-.424123779574,3.611110684327-.605456510615,3.611751211985-.132108005302.009448866924-.374159849742-1.300545126038-.275484935142-3.700656138684.177862133865-3.412478299053.989911197221-6.761957686464,2.394585741527-9.877007906136,2.094473182984-4.686158619117,5.362725095874-8.752577122263,9.488685972696-11.805994659619,1.18671532344-.88920925672,2.44004941449-1.685850852553,3.748919497784-2.38287709778,1.363334589527-.737134243633,2.783100969053-1.364745079331,4.245886193748-1.8769048458,1.515207120045-.534213740979,3.070296148488-.947734678286,4.650719184223-1.236693048833,1.628213032851-.289022308687,3.275951765983-.454497284925,4.929122726877-.495009765244,1.654248653664-.021541528868,3.307750766851.082288756286,4.946309290106.310597167032,1.589523745619.229440284929,3.1582897591.584891986484,4.691470095553,1.062994828073,2.898245698832.905185638867,5.644414495337,2.239752803514,8.146946470377,3.959207631535,4.236944272967,2.897017870337,7.654189546711,6.838838740161,9.92092866762,11.443868471424,1.51981603893,3.061021403246,2.457029455996,6.378026524815,2.7638171076,9.781786532156.18850666549,2.395987459682-.005049429168,3.713935503511-.138709372259,3.714027524558"/>
              <path id="Caminho_953" data-name="Caminho 953" class="cls-10" d="m44.658941717897,60.205140211961l.009947026061,5.185395920736-4.628764340136.004962967845-.011107331933-5.04383519263c-4.583143996861-.270288575954-8.983102073023-1.697161491988-11.531777809952-3.683314799244l2.53766633574-5.653628106173c2.660632200637,1.851147076804,5.756733238848,2.978954423272,8.984637118852,3.272802070638l-.013878291744-7.730343978565c-5.140402783078-1.239395219756-10.884265109287-2.93885710776-10.893161653765-9.562801073394-.006546480652-4.906430763887,3.54918083036-9.125132327235,10.861474975396-9.970646897851l-.008254726739-5.138555813932,4.629233628153-.007925935914.010637987969,5.046798513922c3.311591517946.177252722326,6.533694903121,1.138704448304,9.400916785546,2.805163759562l-2.303847353163,5.698759561741c-2.180021198103-1.261203885162-4.589317803728-2.075774346073-7.087407063147-2.396216482761l.014020505354,7.87008815308c5.138552381897,1.193541136194,10.790395084232,2.898676383498,10.800794562305,9.423637238671.007941142952,4.8145167645-3.502951072265,8.986658400594-10.768841482253,9.877998798082m-4.668223719007-20.451059689414l-.011936240262-6.572789081167c-2.45168738322.559358128903-3.420857387684,1.903292730874-3.419871510672,3.431258606262.003540681013,1.620505408757,1.39243672607,2.49757497137,3.431807750934,3.141530474904m7.981157541919,11.142713513138c-.003540681011-1.620505408755-1.347052457437-2.49646212585-3.341948870464-3.191083253176l.01062045246,6.3893247366c2.313637881507-.512375553262,3.330778152984-1.718104701367,3.328366980577-3.198710529012"/>
            </g>
          </g>
        </g>
      </g>
    </g>
  </g>
</svg>