<?xml version="1.0" encoding="UTF-8"?>
<svg id="Camada_1" data-name="Camada 1" xmlns="http://www.w3.org/2000/svg" xmlns:xlink="http://www.w3.org/1999/xlink" viewBox="0 0 84 84">
  <defs>
    <style>
      .cls-1 {
        fill: none;
      }

      .cls-2 {
        clip-path: url(#clippath);
      }

      .cls-3 {
        fill: #e5e5e5;
      }

      .cls-4 {
        fill: #c9c5c5;
      }

      .cls-5 {
        fill: #d6d6d6;
      }

      .cls-6 {
        fill: #fff;
        stroke: #9f9f9f;
        stroke-linecap: round;
        stroke-linejoin: round;
        stroke-width: 3.000000063524px;
      }
    </style>
    <clipPath id="clippath">
      <rect class="cls-1" x="-3.370904547666" y="-4.107822286483" width="90.643999111729" height="91.763002431322" transform="translate(-5.870877476333 76.673443560957) rotate(-81.000000399006)"/>
    </clipPath>
  </defs>
  <g id="Grupo_628" data-name="Grupo 628">
    <g class="cls-2">
      <g id="Grupo_294" data-name="Grupo 294">
        <path id="Caminho_862" data-name="Caminho 862" class="cls-6" d="m81.23565247201,42.320875098347c-.225104877005,21.568858574134-17.892604343331,38.871389584263-39.461462917465,38.646284707256-21.568856690268-.225104578631-38.871388406846-17.892604156845-38.646284479815-39.461459019194C3.353009896885,19.936840272463,21.020507987608,2.63430880307,42.589367545633,2.859413564345c.029852216925.000311313928.059706668497.000657289416.08955954502.001037594629,21.491818174964.196306736943,38.755238432881,17.778004702401,38.558935255613,39.269824406725-.000584846788.063534043327-.001316447899.127068016543-.002209874256.190599532647"/>
        <path id="Caminho_863" data-name="Caminho 863" class="cls-3" d="m71.943718522431,42.20284464709c-.170863182062,16.437316966119-13.634452015169,29.623879047012-30.071767694171,29.453019931061-16.437315082254-.170862883686-29.623880695397-13.634452276247-29.453017870583-30.071767367825.170863005447-16.437316994092,13.634451418777-29.623882520938,30.071767480262-29.453019723549.025152015733.000261566916.05030286669.000554873244.07545254354.000879977855,16.415354313463.193516971987,29.566938008753,13.655483782546,29.377565540952,30.070887182457"/>
        <path id="Caminho_864" data-name="Caminho 864" class="cls-5" d="m71.946711054014,41.269825822315c-.180972400289.004749096617-.290664409426-1.303519016265-.741653871552-3.589208348096-.624715707079-3.207998900218-1.743415455458-6.299639747234-3.316168879206-9.164594612312-1.086565188954-1.956047097243-2.384940765496-3.78667539623-3.871712174758-5.458877382447-1.708613660659-1.903797867375-3.654944399623-3.57998625958-5.791107824749-4.98733119839-2.356725989415-1.551040002687-4.925697030205-2.75252293242-7.626893866636-3.567024975227-1.42565598186-.428694293385-2.882103162534-.747378038046-4.356515300238-.953245134826-1.519301919023-.203082101303-3.051318785772-.295830326566-4.584023140131-.277515767859-1.532886806512.038474838504-3.060970461745.187948635636-4.572256298212.447248017535-1.466233280535.260107677606-2.910303870285.632539107928-4.319447452513,1.114004886222-2.671217821671.91304076161-5.195649841929,2.209246726419-7.494229638725,3.848019908319-2.08362414614,1.485832900498-3.96703357482,3.234047527669-5.603673793741,5.201430629328-1.423264335137,1.724989163842-2.652165334923,3.601523363366-3.664467100194,5.595643232902-1.463727032291,2.921792422903-2.465479407663,6.052912200717-2.969543140407,9.281734849317-.364179287866,2.299337634015-.424123779576,3.611110684327-.605456510617,3.611751211984-.132108005302.009448866926-.374159849742-1.300545126038-.275484935142-3.700656138684.177862133865-3.412478299051.989911197221-6.761957686464,2.394585741527-9.877007906134,2.094473182986-4.686158619119,5.362725095874-8.752577122264,9.488685972696-11.805994659619,1.186715323442-.889209256722,2.44004941449-1.685850852553,3.748919497784-2.382877097782,1.363334589527-.737134243633,2.783100969054-1.364745079331,4.24588619375-1.8769048458,1.515207120043-.534213740977,3.070296148486-.947734678286,4.650719184221-1.236693048833,1.628213032851-.289022308685,3.275951765983-.454497284925,4.929122726877-.495009765242,1.654248653664-.021541528869,3.307750766849.082288756286,4.946309290106.310597167032,1.589523745621.229440284927,3.1582897591.584891986482,4.691470095553,1.062994828073,2.898245698831.905185638865,5.644414495335,2.239752803513,8.146946470377,3.959207631535,4.236944272965,2.897017870337,7.654189546709,6.838838740161,9.92092866762,11.443868471422,1.51981603893,3.061021403246,2.457029455996,6.378026524817,2.7638171076,9.781786532158.18850666549,2.39598745968-.005049429168,3.713935503509-.138709372259,3.714027524557"/>
        <path id="Caminho_865" data-name="Caminho 865" class="cls-4" d="m45.321681883809,59.61764607873l.009947026061,5.185395920736-4.628764340134.004962967845-.011107331935-5.04383519263c-4.583143996861-.270288575954-8.983102073023-1.697161491988-11.531777809952-3.683314799244l2.537666335742-5.653628106173c2.660632200634,1.851147076804,5.756733238846,2.978954423272,8.984637118851,3.272802070638l-.013878291744-7.730343978565c-5.140402783078-1.239395219756-10.884265109287-2.93885710776-10.893161653765-9.562801073394-.006546480652-4.906430763887,3.54918083036-9.125132327235,10.861474975394-9.970646897851l-.008254726738-5.138555813932,4.629233628151-.007925935914.010637987969,5.046798513922c3.311591517948.177252722326,6.533694903123,1.138704448304,9.400916785547,2.805163759562l-2.303847353163,5.698759561741c-2.180021198103-1.261203885162-4.58931780373-2.075774346073-7.087407063147-2.396216482761l.014020505354,7.87008815308c5.138552381897,1.193541136194,10.79039508423,2.898676383498,10.800794562307,9.423637238671.007941142951,4.8145167645-3.502951072267,8.986658400594-10.768841482255,9.877998798082m-4.668223719007-20.451059689414l-.011936240262-6.572789081167c-2.451687383218.559358128903-3.420857387682,1.903292730874-3.419871510672,3.431258606262.003540681013,1.620505408757,1.39243672607,2.49757497137,3.431807750934,3.141530474904m7.981157541919,11.142713513138c-.003540681013-1.620505408755-1.347052457437-2.49646212585-3.341948870464-3.191083253176l.01062045246,6.3893247366c2.313637881507-.512375553262,3.330778152984-1.718104701367,3.328366980575-3.198710529012"/>
      </g>
    </g>
  </g>
</svg>