<?xml version="1.0" encoding="UTF-8"?>
<svg id="Camada_1" data-name="Camada 1" xmlns="http://www.w3.org/2000/svg" xmlns:xlink="http://www.w3.org/1999/xlink" viewBox="0 0 84 84">
  <defs>
    <style>
      .cls-1 {
        fill: none;
      }

      .cls-2 {
        clip-path: url(#clippath);
      }

      .cls-3 {
        fill: #e2b77a;
        stroke: #ab8e5c;
        stroke-miterlimit: 4.000000084698;
        stroke-width: 3.000000063524px;
      }

      .cls-4 {
        fill: #e7c597;
      }

      .cls-5 {
        fill: #bf9b68;
      }

      .cls-6 {
        fill: #a48356;
      }
    </style>
    <clipPath id="clippath">
      <rect class="cls-1" x="-3.640145002149" y="-2.909173676473" width="90.867998139911" height="91.22699930718" transform="translate(-6.922709754887 77.303200298551) rotate(-81.000000399007)"/>
    </clipPath>
  </defs>
  <g id="Grupo_646" data-name="Grupo 646">
    <g id="Grupo_400-2" data-name="Grupo 400-2">
      <g id="Grupo_366-2" data-name="Grupo 366-2">
        <g class="cls-2">
          <g id="Grupo_365-2" data-name="Grupo 365-2">
            <path id="Caminho_890-2" data-name="Caminho 890-2" class="cls-3" d="m80.85741375732,42.920881832915c-.225171644508,21.566646517829-17.890927424503,38.867337188811-39.457577710064,38.642164947552-21.566648401695-.225171942884-38.867334346927-17.890934698889-38.642163820963-39.457581393877C2.982842634514,20.538818672952,20.648602217347,3.238132949311,42.215248916997,3.463303445838c.030299427925.000316426625.060597168911.000667889428.090897055963.00105457306,21.489601440915.197110211546,38.750576715918,17.777663204986,38.553466508394,39.267262715415-.000583442952.063086244902-.001314236977.126176187423-.002198724034.189261098601"/>
            <path id="Caminho_891-2" data-name="Caminho 891-2" class="cls-4" d="m71.567614663181,42.80217470386c-.17148156538,16.435100580788-13.63377944871,29.61936439131-30.068880029497,29.447882825931-16.43509869692-.171481267005-29.619364626793-13.633779486008-29.447881442466-30.068879810378.171482944823-16.43509843118,13.633778102543-29.619364845912,30.068878440901-29.447881749891.022954029677.00023949836.045907715104.000505555501.068861000338.000798524647,16.414863796557.190907819555,29.567707535953,13.651210425423,29.379335026159,30.066104034207"/>
            <path id="Caminho_892-2" data-name="Caminho 892-2" class="cls-6" d="m71.571593398643,41.869312078428c-.180972400291.004749096617-.290664409427-1.303519016265-.740666427368-3.589053883432-.624375938352-3.207900670288-1.742743529556-6.299492771028-3.315181733396-9.164438263782-1.086552244695-1.956055668255-2.384927522864-3.78668585111-3.87171217476-5.458877382447-1.708693034398-1.903491803479-3.655079905917-3.579350173943-5.79126424787-4.986343581615-2.356513044284-1.550604360307-4.9252015693-2.751700734991-7.626063143953-3.565881009923-1.425652289467-.428717606226-2.882097511681-.747401523478-4.356515300236-.953245134826-1.51930027796-.203092462567-3.051319028576-.295840986204-4.584023140133-.277515767859-1.532560989806.038563616936-3.060314968481.188089629703-4.571269152402.447404366065-1.465905579962.260196754414-2.90964460929.632680698745-4.318460306704,1.114161234751-2.669447069449.913388810539-5.19213783021,2.209513305803-7.489134586165,3.847814010787-2.083198307761,1.485619368124-3.966221330576,3.233552421456-5.602529357468,5.200599981235-1.423284209346,1.724974429333-2.652186920408,3.601510288941-3.664467100194,5.595643232902-1.463681032837,2.921450175056-2.465383500599,6.052245704128-2.96938679188,9.280747703508-.364179287866,2.299337634016-.423967431045,3.610123538518-.605456510615,3.611751211984-.137043734348.008667124279-.379721569656-1.297374517715-.280420664189-3.701437881331.177865029355-3.412143755997.989860577214-6.761287879357,2.394429094624-9.876018876459,2.094518096352-4.685498785624,5.362666252253-8.751242379865,9.488373126449-11.804019426068,1.18670818873-.889219076806,2.440044089053-1.685859903295,3.748919497784-2.38287709778,1.363329637059-.737145649209,2.783096016585-1.364756484907,4.245886193748-1.8769048458,1.515201934284-.534229769923,3.070292958484-.947751115307,4.650719184223-1.236693048833,1.62752875536-.288688942972,3.274551881606-.453937563418,4.926991937542-.49433437456,1.653914767594-.021554974051,3.307085345998.082222635199,4.945320260431.310440520128,1.589523761062.229440187422,3.158291656951.58489219655,4.691471979419,1.062995126447,2.898974849715.905044466565,5.645828245229,2.239727363101,8.148920761996,3.959520328593,4.236580287357,2.896706760655,7.653544015049,6.838134952864,9.920098019527,11.442724035152,1.519819721609,3.060681143137,2.457081884953,6.377354107532,2.763973605315,9.780798444413.18850666549,2.395987459682-.004892782263,3.712946473835-.138709372257,3.714027524558"/>
            <path id="Caminho_893-2" data-name="Caminho 893-2" class="cls-5" d="m44.949008955138,60.214480917861l.009947026063,5.185395920738-4.628764340136.004962967845-.011107331933-5.04383519263c-4.582155909118-.270132078236-8.982114927214-1.697005143458-11.5298025764-3.683001952997l2.537039402938-5.649675904391c2.661211684541,1.849844586497,5.757511917282,2.976281486244,8.98526310972,3.268849719669l-.013047494465-7.729200484226c-5.139415166301-1.239238796634-10.882289875733-2.938544261515-10.892173566021-9.562644575679-.00867836111-4.905754580457,3.546892377593-9.123467585097,10.858042011763-9.968151036654l-.008253784807-5.138555664746,4.629233628153-.007925935912.010637987969,5.046798513922c3.311252480617.177283993546,6.533016769905,1.138682012015,9.399927755871,2.805007112656l-2.303691004634,5.697772415931c-2.179832667885-1.260748212066-4.58884343757-2.074928695376-7.086576415055-2.395072046489l.014177003071,7.86910006534c5.138554265763,1.193541434568,10.789407938422,2.898520034967,10.798818386822,9.423324243235.007941142951,4.814516764502-3.502794723738,8.985671254786-10.767697391168,9.87716423307m-4.666245958031-20.450744511738l-.01193624026-6.572789081167c-2.45168738322.559358128903-3.420857387684,1.903292730874-3.418883893897,3.431415029387.003540681011,1.620505408755,1.392436255102,2.497574896775,3.430820134157,3.14137405178m7.980325159149,11.141567836559c-.003540681011-1.620505408757-1.347052457439-2.496462125851-3.342105218993-3.190096107368l.010776800988,6.38833759079c2.313637881509-.512375553262,3.330778152984-1.718104701367,3.327377950904-3.198867175915"/>
          </g>
        </g>
      </g>
    </g>
  </g>
</svg>