<?xml version="1.0" encoding="UTF-8"?>
<svg id="Camada_1" data-name="Camada 1" xmlns="http://www.w3.org/2000/svg" viewBox="0 0 471 118">
  <defs>
    <style>
      .cls-1 {
        fill: #fac78d;
      }

      .cls-2 {
        fill: #fff;
      }
    </style>
  </defs>
  <g id="Grupo_880" data-name="Grupo 880">
    <path id="Caminho_1014" data-name="Caminho 1014" class="cls-1" d="m34.217678414981,112.74255361557c-.787799835205.590589284897-1.629135131836,1.106169700623-2.513000488281,1.539999961853-1.432422637939.725430250168-2.937427520752,1.297602176666-4.48999786377,1.70700006187-1.914112091064.511818572879-3.892478942871.742566123605-5.873001098633.685000017285-3.016548156738-.023067057133-5.999614715576-.634490028024-8.782001495361-1.799999952316-2.481599807739-1.051526665688-4.714015960693-2.613740086555-6.551998138428-4.585000157356-1.786487579346-1.936664581299-3.177225112915-4.203831195831-4.093999862671-6.67399930954-.95262336731-2.573702812195-1.431016921997-5.298721313477-1.412000656128-8.043001174927-.034156799316-2.989763259888.453136444092-5.962596893311,1.440000534058-8.784999847412.896139144897-2.553953170776,2.298463821411-4.900798797607,4.122999191284-6.900001525879,1.791339874268-1.94140625,3.976783752441-3.477695465088,6.409999847412-4.506000518799,2.610313415527-1.090515136719,5.41626739502-1.635028839111,8.244998931885-1.599998474121,2.513610839844-.043327331543,5.016185760498.342540740967,7.400001525879,1.140998840332,1.838314056396.615131378174,3.600387573242,1.438125610352,5.251998901367,2.45299911499l-3.221000671387,7.814002990723c-1.178981781006-.866514205933-2.436466217041-1.620800018311-3.756000518799-2.252998352051-1.68155670166-.805923461914-3.528663635254-1.20630645752-5.393001556396-1.168998718262-1.570095062256-.001892089844-3.121635437012.339405059814-4.546001434326,1-1.45788192749.67183303833-2.764247894287,1.632558822632-3.840000152588,2.823999404907-1.127635955811,1.244333267212-2.017671585083,2.684795379639-2.625999450684,4.25-.652189254761,1.681732177734-.977996826172,3.472322463989-.959999084473,5.275999069214-.021793365479,1.880434036255.274028778076,3.751052856445.875,5.532999992371.535690307617,1.591789245605,1.390830993652,3.057403564453,2.513000488281,4.307000160217,1.090942382812,1.197471618652,2.430572509766,2.141868591309,3.924999237061,2.767000198364,1.639270782471.66855096817,3.396869659424.998504161835,5.166999816895.970000267029,1.955726623535.051290512085,3.899627685547-.318392276764,5.700000762939-1.083999633789,1.323379516602-.55620765686,2.545566558838-1.327634811401,3.617004394531-2.283002853394l3.390998840332,7.41500043869Zm5.646999359131-17.452999591827c-.013843536377-2.820476531982.543342590332-5.614574432373,1.638000488281-8.213998794556,1.071681976318-2.555698394775,2.613731384277-4.887435913086,4.545997619629-6.874000549316,1.925888061523-1.989860534668,4.217384338379-3.589725494385,6.749000549316-4.712001800537,2.596008300781-1.148235321045,5.406463623047-1.731460571289,8.245002746582-1.710998535156,2.820098876953-.016666412354,5.611503601074.566566467285,8.189002990723,1.710998535156,2.543197631836,1.13013458252,4.851531982422,2.727825164795,6.805000305176,4.709999084473,1.964195251465,1.978092193604,3.535598754883,4.31060218811,4.630996704102,6.874000549316,1.112503051758,2.594856262207,1.679580688477,5.390747070312,1.666000366211,8.214000701904.021148681641,2.860828399658-.545913696289,5.695474624634-1.666000366211,8.328000068665-1.086936950684,2.55117225647-2.659820556641,4.866515159607-4.630996704102,6.817000389099-1.958381652832,1.946197271347-4.26732635498,3.504268884659-6.805000305176,4.592000007629-2.58699798584,1.108227610588-5.37467956543,1.671277523041-8.189002990723,1.653999954462-2.832778930664.020969837904-5.639488220215-.54207341373-8.245002746582-1.654000073671-2.525741577148-1.079298138618-4.817840576172-2.63883459568-6.749000549316-4.59199988842-1.939277648926-1.959126472473-3.482761383057-4.273675918579-4.546001434326-6.816999435425-1.101818084717-2.63649559021-1.658988952637-5.46861076355-1.637996673584-8.326000213623Zm8.471000671387,0c-.01448059082,1.787479400635.321166992188,3.560499191284.987998962402,5.218999862671.641387939453,1.59037399292,1.580917358398,3.043458938599,2.767997741699,4.281000137329,1.169464111328,1.224499702454,2.57105255127,2.203875541687,4.123001098633,2.881000518799,1.61434173584.692275524139,3.355598449707,1.039368152618,5.111999511719,1.018999099731,1.70085144043.014849662781,3.385200500488-.33429479599,4.940002441406-1.024000167847,1.511558532715-.673643112183,2.867324829102-1.652848243713,3.982002258301-2.875999450684,1.139091491699-1.25150680542,2.038681030273-2.701554298401,2.653999328613-4.27799987793.648696899414-1.662866592407.974510192871-3.434139251709.959999084473-5.218999862671.015586853027-1.813854217529-.319915771484-3.613592147827-.987998962402-5.299999237061-.630577087402-1.590436935425-1.549682617188-3.050628662109-2.710998535156-4.306999206543-1.133636474609-1.229536056519-2.507682800293-2.213184356689-4.037002563477-2.890003204346-1.584159851074-.692951202393-3.296989440918-1.042945861816-5.026000976562-1.027000427246-1.729011535645-.01594543457-3.441841125488.334049224854-5.026000976562,1.027000427246-1.534637451172.678276062012-2.917335510254,1.658000946045-4.06600189209,2.881000518799-1.173980712891,1.246614456177-2.094696044922,2.709360122681-2.710998535156,4.306999206543-.651298522949,1.692485809326-.977661132812,3.49259185791-.96199798584,5.306001663208Zm79.400009155273,22.645999908447l-31.509010314941-28.750999450684,2.428001403809,1.368999481201.171997070312,25.668999679387h-8.300003051758v-43.632998473942h.338996887207l30.831016540527,28.63099861145-1.807006835938-.800000190735-.169006347656-26.182999610901h8.244995117188v43.695999622345l-.22998046875.002000331879Zm8.13200378418-43.694997787476h28.011993408203v7.986000061035h-10.105010986328v34h-8.188995361328v-34h-9.714004516602l-.003982543945-7.986000061035Zm27.846984863281,41.98199749738l18.749008178711-43.632998473942h.451995849609l18.75,43.632998473942h-9.488006591797l-11.972991943359-30.68900013715,5.929992675781-4.107000350952-14.343994140625,34.796000488102h-8.07600402832Zm12.81999206543-15.173000343144h12.481002807617l2.880004882812,6.959000587463h-17.899993896484l2.538986206055-6.959000587463Zm43.373001098633-26.810000419617c4.329986572266,0,7.774993896484.884002685547,10.335006713867,2.652000427246,2.569671630859,1.783847808838,4.024719238281,4.777309417725,3.839996337891,7.89999961853.083770751953,2.30553817749-.579879760742,4.576402664185-1.891998291016,6.474000930786-1.302658081055,1.76195526123-3.087478637695,3.109170913696-5.139007568359,3.878999710083-2.372222900391.892305374146-4.891891479492,1.327630996704-7.425994873047,1.282999038696l-1.300003051758-4.448999404907c3.099700927734-.052438735962,6.18522644043.429962158203,9.121002197266,1.426000595093,2.416519165039.793840408325,4.58674621582,2.198974609375,6.300003051758,4.079000473022,1.539245605469,1.756267547607,2.365142822266,4.025211334229,2.315002441406,6.360000610352.061462402344,1.999073028564-.354736328125,3.983980178833-1.214004516602,5.789999961853-.762268066406,1.523226261139-1.887283325195,2.83573102951-3.276000976562,3.822000026703-1.409042358398.985805630684-2.988784790039,1.701588630676-4.658996582031,2.111000061035-1.754257202148.44007730484-3.556396484375.660432986915-5.365005493164.65600001812h-13.838989257812v-41.984001517296l12.198989868164.000999450684Zm.960006713867,17.170000076294c1.363967895508.109239578247,2.69758605957-.442283630371,3.585998535156-1.482999801636.760696411133-.955945968628,1.169555664062-2.144382476807,1.158004760742-3.365999221802.086090087891-1.254934310913-.452774047852-2.471487045288-1.440002441406-3.251001358032-1.136276245117-.775012969971-2.495452880859-1.155822753906-3.869003295898-1.083999633789h-4.404998779297v9.184000015259h4.970001220703Zm.281997680664,17.113000869751c1.110885620117.014214038849,2.216888427734-.149524688721,3.276000976562-.484999656677.906234741211-.274678230286,1.711441040039-.810320854187,2.315002441406-1.539999961853.583221435547-.758421897888.882858276367-1.696928977966.84700012207-2.65299987793.073318481445-1.02547454834-.297027587891-2.033095359802-1.016998291016-2.767000198364-.744232177734-.661378860474-1.650238037109-1.11403465271-2.626007080078-1.312000274658-1.102340698242-.250513076782-2.229568481445-.374979019165-3.360000610352-.371000289917h-4.686996459961v9.126999855042l5.251998901367.001000404358Zm23.099990844727-34.283000946045h8.188995361328v41.983000762761h-8.188995361328v-41.983000762761Zm18.919006347656,0h8.188995361328v34h19.540008544922v7.983000762761h-27.730987548828l.001983642578-41.983000762761Zm36.200012207031,0h8.188995361328v41.983000762761h-8.188995361328v-41.983000762761Zm18.917999267578,41.983000762761v-41.984000213444h12.424011230469c3.648406982422-.097343444824,7.278900146484.542774200439,10.674011230469,1.881999969482,2.720336914062,1.100391387939,5.147094726562,2.819103240967,7.088012695312,5.020000457764,1.765960693359,2.051517486572,3.100830078125,4.437595367432,3.924987792969,7.015998840332.818389892578,2.524438858032,1.237457275391,5.161220550537,1.242004394531,7.815000534058.045837402344,2.890913009644-.522003173828,5.758674621582-1.665985107422,8.413999557495-1.059997558594,2.419810295105-2.607971191406,4.594836235046-4.547058105469,6.389000892639-1.932708740234,1.775986433029-4.197479248047,3.152371406555-6.664001464844,4.050000190735-2.568603515625.94068595767-5.284606933594,1.414804399014-8.019989013672,1.399999976158l-14.455993652344-.002000205219Zm8.188995361328-7.986000068486h4.856994628906c1.914459228516.023445129395,3.820617675781-.255661010742,5.648010253906-.826999664307,1.607391357422-.502230644226,3.096130371094-1.325520515442,4.376007080078-2.420000076294,1.246978759766-1.097730636597,2.214965820312-2.476343154907,2.824005126953-4.022000312805.687316894531-1.772270202637,1.022918701172-3.661437988281.988006591797-5.562000274658.089263916016-2.306499481201-.365295410156-4.601655960083-1.326995849609-6.700000762939-.760620117188-1.579572677612-1.882995605469-2.957527160645-3.276000976562-4.021999359131-1.192901611328-.898700714111-2.543487548828-1.566192626953-3.981994628906-1.967998504639-1.120727539062-.325874328613-2.278350830078-.507999420166-3.445007324219-.541999816895h-6.664001464844l.0009765625,26.062998771667Zm27.842010498047,7.986000068486l18.748992919922-43.632998473942h.451995849609l18.75,43.632998473942h-9.488006591797l-11.972991943359-30.68900013715,5.929992675781-4.107000350952-14.343994140625,34.796000488102h-8.075988769531Zm12.820007324219-15.173000343144h12.480987548828l2.880004882812,6.959000587463h-17.899993896484l2.539001464844-6.959000587463Zm31.173980712891,15.173000343144v-41.984000213444h12.424011230469c3.648406982422-.097316741943,7.278900146484.54280090332,10.674011230469,1.881999969482,2.720336914062,1.100391387939,5.147094726562,2.819103240967,7.088012695312,5.020000457764,1.765960693359,2.051517486572,3.100830078125,4.437595367432,3.924987792969,7.015998840332.818420410156,2.524431228638,1.237487792969,5.161218643188,1.242004394531,7.815000534058.045806884766,2.890909194946-.522033691406,5.758665084839-1.665985107422,8.413999557495-1.059692382812,2.419714927673-2.607299804688,4.59473323822-4.545989990234,6.388999938965-1.932708740234,1.775986433029-4.197479248047,3.152371406555-6.664001464844,4.050000190735-2.568267822266.940592110157-5.283966064453,1.414709538221-8.019012451172,1.399999976158l-14.458038330078-.001999251544Zm8.188995361328-7.986000068486h4.856994628906c1.914123535156.023338794708,3.819946289062-.255765914917,5.647003173828-.826999664307,1.608062744141-.503328323364,3.09716796875-1.327994346619,4.377014160156-2.423999786377,1.246978759766-1.097730636597,2.214965820312-2.476343154907,2.824005126953-4.022000312805.687316894531-1.772270202637,1.022918701172-3.661437988281.988006591797-5.562000274658.089263916016-2.306499481201-.365295410156-4.601654052734-1.326995849609-6.699998855591-.760284423828-1.579486846924-1.88232421875-2.957437515259-3.274993896484-4.021999359131-1.192932128906-.898681640625-2.543518066406-1.56616973877-3.981994628906-1.967998504639-1.120727539062-.325885772705-2.278350830078-.508010864258-3.445007324219-.541999816895h-6.664001464844l-.000030517578,26.066996574402Zm35.352996826172-33.999999046326h28.350006103516v7.986000061035h-20.161010742188v8.956001281738h17.846008300781v7.986000061035h-17.846008300781v9.069999694824h20.951995849609v7.987998016179h-29.140991210938v-41.985999114811Z"/>
    <path id="Caminho_1015" data-name="Caminho 1015" class="cls-2" d="m37.345611402736,45.483444356918c-.942150115967.644216299057-1.933929443359,1.212666749954-2.965999603271,1.700000047684-1.522602081299.733171582222-3.116680145264,1.307536959648-4.756999969482,1.713999867439-1.982629776001.493517190218-4.022439956665.719191193581-6.065000534058.671000003815-3.311140060425-.003256261349-6.589208602905-.658734083176-9.646999359131-1.929000020027-2.740580558777-1.154168128967-5.210706710815-2.866535186768-7.252999305725-5.02799987793-1.986362457275-2.118628025055-3.539176940918-4.605306148529-4.571000099182-7.320000171661-1.06835269928-2.818315505981-1.605740308762-5.810056686401-1.585000276566-8.823999404907-.035591125488-3.252643585205.518353223801-6.484830856323,1.634999990463-9.539999008179,1.029326438904-2.805332183838,2.613924026489-5.374225616455,4.658999919891-7.553001403809,2.018313407898-2.13306427002,4.458353042603-3.822872161865,7.165000915527-4.96199798584,2.885524749756-1.201293945312,5.985620498657-1.801849365234,9.111000061035-1.764999389648,2.63530921936-.038166046143,5.259065628052.355716705322,7.767002105713,1.166000366211,2.024188995361.652976989746,3.966342926025,1.537147521973,5.78800201416,2.634998321533l-2.91300201416,6.900001525879c-1.393051147461-.956951141357-2.876461029053-1.775192260742-4.429000854492-2.443000793457-1.88486289978-.814178466797-3.921047210693-1.219097137451-5.974002838135-1.188003540039-1.999208450317-.00594329834-3.976634979248.415115356445-5.799999237061,1.235000610352-1.837535858154.822704315186-3.492237091064,2.004150390625-4.86699962616,3.475002288818-1.419140815735,1.513862609863-2.541869163513,3.280380249023-3.310000419617,5.208000183105-.814279556274,2.050851821899-1.221848487854,4.240516662598-1.199999809265,6.44700050354-.02253818512,2.234920501709.34531879425,4.456613540649,1.086999893188,6.564998626709.680510520935,1.93608379364,1.747824668884,3.713467597961,3.137000083923,5.223999977112,1.374500274658,1.476289749146,3.048988342285,2.641372680664,4.910999298096,3.416999816895,2.043531417847.834720611572,4.234830856323,1.247331619263,6.442001342773,1.212999343872,2.140983581543.045938491821,4.269889831543-.332329273224,6.263999938965-1.112999916077,1.543628692627-.602564811707,2.98962020874-1.430191993713,4.291000366211-2.456000328064l3.079998016357,6.551000356674Zm6.13500213623-10.049999952316c-.03723526001-2.549837112427.623233795166-5.061346054077,1.909999847412-7.263000488281,1.275341033936-2.153697967529,3.117671966553-3.91577911377,5.326000213623-5.093999862671,2.397457122803-1.27357673645,5.07971572876-1.915748596191,7.793998718262-1.865999221802,2.705223083496-.063241958618,5.38020324707.57991027832,7.761001586914,1.865999221802,2.152809143066,1.187099456787,3.929710388184,2.953952789307,5.128997802734,5.10000038147,1.224021911621,2.218318939209,1.84790802002,4.71767616272,1.809997558594,7.250999450684.037063598633,2.547260284424-.58763885498,5.060530662537-1.813003540039,7.294000148773-1.199432373047,2.157202243805-2.97802734375,3.936146974564-5.134994506836,5.136000275612-2.406883239746,1.305957913399-5.114501953125,1.957000911236-7.851997375488,1.887999951839-2.664009094238.046750485897-5.300064086914-.549063280225-7.685001373291-1.737000048161-2.206504821777-1.112610340118-4.050189971924-2.831070899963-5.314998626709-4.953999996185-1.331741333008-2.314587116241-1.999542236328-4.951541423798-1.930000305176-7.62099981308Zm7.111999511719.062999725342c-.022369384766,1.493007659912.327495574951,2.968074798584,1.017997741699,4.291999816895.644523620605,1.239953041077,1.602233886719,2.289709091187,2.77799987793,3.045000076294,1.1711769104.75005865097,2.536334991455,1.140798568726,3.927001953125,1.124000072479,1.432113647461.029064655304,2.841522216797-.360910892487,4.055000305176-1.121999740601,1.168762207031-.749435901642,2.112823486328-1.801311969757,2.732002258301-3.044000148773.666656494141-1.334082603455,1.00309753418-2.808786392212.981002807617-4.300000190735.025047302246-1.495043754578-.311508178711-2.974005699158-.981002807617-4.3109998703-.623870849609-1.236686706543-1.565811157227-2.284934997559-2.728996276855-3.037000656128-1.20906829834-.767105102539-2.617408752441-1.160842895508-4.048999786377-1.131999969482-1.402641296387-.01904296875-2.778930664062.38179397583-3.951999664307,1.150999069214-1.166851043701.769561767578-2.117618560791,1.824626922607-2.762008666992,3.065002441406-.688251495361,1.316505432129-1.038093566895,2.783579826355-1.017997741699,4.268999099731Zm36.5-13.114000320435l.580001831055,5.76900100708-.199996948242-.761999130249c.896049499512-1.856702804565,2.318855285645-3.408542633057,4.090995788574-4.462001800537,1.980583190918-1.161336898804,4.246849060059-1.744705200195,6.541999816895-1.684000015259,2.291206359863-.081748962402,4.527160644531.71448135376,6.250999450684,2.225999832153,1.641571044922,1.464262008667,2.567451477051,3.568466186523,2.53800201416,5.767999649048v19.827000916004h-7.083999633789v-17.280999481678c.012405395508-1.181257247925-.390350341797-2.329370498657-1.138000488281-3.243999481201-.894844055176-.902002334595-2.141395568848-1.364337921143-3.407997131348-1.263999938965-1.39232635498-.014354705811-2.749282836914.438432693481-3.85400390625,1.285999298096-1.181648254395.918260574341-2.100486755371,2.131656646729-2.664001464844,3.517999649048-.669227600098,1.635662078857-.996276855469,3.391079902649-.960998535156,5.157999992371v11.82699996233h-7.069999694824v-26.682000458241h6.376998901367Zm51.608993530273,24.245000362396c-1.303970336914,1.012276291847-2.778533935547,1.783087134361-4.35400390625,2.276000022888-1.649154663086.553485393524-3.376449584961.838778316975-5.115997314453.84500002861-2.694778442383.058460831642-5.364105224609-.531791031361-7.782989501953-1.720999956131-2.165412902832-1.084172010422-3.971237182617-2.771228790283-5.199996948242-4.857999801636-1.284561157227-2.279275894165-1.926055908203-4.864603996277-1.856002807617-7.479999542236-.070266723633-2.632656097412.619216918945-5.2298412323,1.986000061035-7.481000900269,1.277076721191-2.051362991333,3.082496643066-3.721385955811,5.226997375488-4.834999084473,2.121879577637-1.119239807129,4.486038208008-1.700578689575,6.884994506836-1.693000793457,2.026031494141-.036462783813,4.042999267578.279228210449,5.960998535156.933000564575,1.616943359375.563884735107,3.120956420898,1.410352706909,4.442001342773,2.5l-3.473999023438,4.578001022339c-.808456420898-.615102767944-1.690628051758-1.126735687256-2.626007080078-1.523000717163-1.160278320312-.494556427002-2.411911010742-.738544464111-3.673004150391-.715999603271-1.363311767578-.012668609619-2.702331542969.36109161377-3.861999511719,1.07799911499-1.165870666504.718357086182-2.122489929199,1.730493545532-2.774002075195,2.934999465942-.698379516602,1.298192977905-1.051338195801,2.754111289978-1.025001525879,4.228000640869-.013206481934,1.457511901855.355339050293,2.893092155457,1.069000244141,4.163999557495.69376373291,1.247501850128,1.712059020996,2.284110546112,2.946998596191,3,1.320037841797.751001834869,2.818603515625,1.131082057953,4.337005615234,1.099999904633.997467041016.009403705597,1.989486694336-.148102760315,2.934997558594-.466000080109.860275268555-.288557052612,1.66194152832-.728839874268,2.367004394531-1.300000190735l3.587005615234,4.436000347137Zm19.948013305664,3.118000090122c-2.786392211914.07891112566-5.547012329102-.552572727203-8.022003173828-1.835000097752-2.156677246094-1.156424999237-3.933532714844-2.911046981812-5.117004394531-5.052999973297-1.215744018555-2.260085105896-1.8291015625-4.795125007629-1.781005859375-7.361000061035-.030792236328-2.551368713379.673965454102-5.057607650757,2.029998779297-7.218999862671,1.348678588867-2.1494140625,3.220779418945-3.921390533447,5.441009521484-5.14999961853,2.322570800781-1.291757583618,4.942596435547-1.953657150269,7.600006103516-1.920000076294,3.307418823242-.121822357178,6.538101196289,1.014503479004,9.041000366211,3.180000305176,2.526519775391,2.389953613281,4.199066162109,5.54288482666,4.761001586914,8.97500038147l-21.475006103516,7.264999389648-1.63200378418-4,16.776992797852-5.971000671387-1.468994140625.839000701904c-.453353881836-1.274559020996-1.221069335938-2.414083480835-2.231994628906-3.312999725342-1.207397460938-.99813079834-2.748184204102-1.501605987549-4.311996459961-1.409000396729-1.385879516602-.025533676147-2.750839233398.340490341187-3.938003540039,1.055999755859-1.147689819336.706230163574-2.074951171875,1.719398498535-2.677001953125,2.924999237061-.663101196289,1.351316452026-.991989135742,2.842116355896-.958999633789,4.34700012207-.040390014648,1.588723182678.320755004883,3.161952018738,1.050003051758,4.573999404907.663482666016,1.250281333923,1.669403076172,2.285685539246,2.899993896484,2.984999656677,1.272125244141.712504386902,2.710098266602,1.075793743134,4.167999267578,1.052999973297,1.069259643555.002078533173,2.129608154297-.19459438324,3.126998901367-.579999923706,1.010757446289-.388589382172,1.972625732422-.894020080566,2.865997314453-1.50599861145l3.190994262695,5.232999801636c-1.424209594727.88458776474-2.953399658203,1.587703883648-4.552001953125,2.09299993515-1.544448852539.511231452227-3.1591796875.778443098068-4.785980224609.792000353336Zm20.906997680664-27.349999964237h7.061004638672v26.668999969959h-7.061004638672v-26.668999969959Zm-.315002441406-9.583000183105c-.017562866211-1.056118011475.46061706543-2.059478759766,1.292007446289-2.710998535156.776138305664-.683128356934,1.772079467773-1.06432723999,2.80598449707-1.074001312256,1.00715637207-.0006980896,1.976684570312.382675170898,2.710998535156,1.071998596191.7841796875.679565429688,1.224182128906,1.67361831665,1.199996948242,2.710998535156.0283203125,1.029327392578-.413299560547,2.015605926514-1.199996948242,2.680000305176-.742736816406.671981811523-1.709396362305,1.042812347412-2.710998535156,1.040000915527-1.033660888672-.009113311768-2.029571533203-.389591217041-2.805999755859-1.071998596191-.820739746094-.63143157959-1.298797607422-1.610488891602-1.2919921875-2.645999908447Zm19.658004760742-2.15599822998h7.087005615234v11.734001159668h6.966995239258v5.52799987793h-6.966995239258v21.145997345448h-7.087005615234v-21.145999252796h-4.570999145508v-5.52799987793h4.570999145508v-11.733999252319Zm18.770004272461,24.77799987793c-.037231445312-2.549837112427.623229980469-5.061346054077,1.910003662109-7.263000488281,1.275344848633-2.153699874878,3.11767578125-3.91577911377,5.32600402832-5.093999862671,2.3974609375-1.273578643799,5.079727172852-1.91575050354,7.794006347656-1.865999221802,2.705230712891-.063241958618,5.38020324707.57991027832,7.761001586914,1.865999221802,2.152816772461,1.187099456787,3.929718017578,2.953952789307,5.128997802734,5.10000038147,1.225402832031,2.21862411499,1.850341796875,4.718732833862,1.813003540039,7.253000259399.037063598633,2.547260284424-.587631225586,5.060530662537-1.813003540039,7.294000148773-1.200973510742,2.156639575958-2.980972290039,3.934558153152-5.139022827148,5.132998108864-2.406005859375,1.305446714163-5.112518310547,1.956473469734-7.848999023438,1.887999951839-2.664001464844.046749889851-5.300064086914-.549063846469-7.684997558594-1.737000048161-2.206512451172-1.112609863281-4.050186157227-2.831070423126-5.315002441406-4.953999996185-1.332443237305-2.314384937286-2.000946044922-4.951351642609-1.932006835938-7.62099981308l.000015258789.001001358032Zm7.111999511719.062999725342c-.021179199219,1.493352890015.330078125,2.968450546265,1.022003173828,4.291999816895.644515991211,1.239953041077,1.602233886719,2.289709091187,2.77799987793,3.045000076294,1.169921875.749660015106,2.533584594727,1.140717983246,3.923004150391,1.125,1.432113647461.029063224792,2.841506958008-.360912322998,4.054992675781-1.121999740601,1.168762207031-.749436378479,2.112823486328-1.801312446594,2.731994628906-3.043999671936.666656494141-1.334082603455,1.00309753418-2.808786392212.981002807617-4.300000190735.025039672852-1.495042800903-.311508178711-2.974004745483-.981002807617-4.310998916626-.623870849609-1.236686706543-1.565811157227-2.284934997559-2.72900390625-3.037000656128-1.209091186523-.767049789429-2.617416381836-1.1607837677-4.04899597168-1.131999969482-1.402633666992-.01904296875-2.778930664062.381795883179-3.951995849609,1.150999069214-1.167434692383.768060684204-2.119216918945,1.821731567383-2.764999389648,3.061000823975-.687927246094,1.317266464233-1.037094116211,2.785069465637-1.016006469727,4.270998001099l.001007080078.001001358032Zm38.128982543945,14.115998804569c-1.976409912109.007701456547-3.936584472656-.356991425157-5.777984619141-1.075000047684-1.753936767578-.66081815958-3.329132080078-1.722379028797-4.600006103516-3.099999964237l2.977996826172-3.990000009537c1.033355712891,1.00714969635,2.223541259766,1.839667797089,3.523986816406,2.464999675751,1.027893066406.49538898468,2.150207519531.764121055603,3.290985107422.788000106812.732299804688.007667541504,1.462158203125-.085541725159,2.169006347656-.276999950409.601135253906-.152981758118,1.148712158203-.468106269836,1.5830078125-.910999774933.412872314453-.457075119019.628509521484-1.058718681335.600006103516-1.673999786377.037017822266-.771527767181-.292572021484-1.515210151672-.889007568359-2.006000518799-.676574707031-.528388977051-1.441864013672-.932027816772-2.260009765625-1.192000389099-.914001464844-.31066608429-1.888000488281-.619667053223-2.921997070312-.927000045776-1.987854003906-.534189224243-3.777496337891-1.6348695755-5.151000976562-3.168000221252-1.115600585938-1.346460342407-1.714447021484-3.046617507935-1.688995361328-4.795000076294.006744384766-1.400619506836.373474121094-2.775981903076,1.065002441406-3.993999481201.770660400391-1.347673416138,1.90625-2.450319290161,3.276000976562-3.180999755859,1.709411621094-.888324737549,3.619812011719-1.3186378479,5.545013427734-1.249000549316,1.779052734375-.030344009399,3.553100585938.19701385498,5.266998291016.674999237061,1.538360595703.468605041504,2.973266601562,1.226121902466,4.227996826172,2.232000350952l-2.736999511719,4.245000839233c-.777709960938-.729162216187-1.687255859375-1.303409576416-2.679992675781-1.691999435425-.889923095703-.377775192261-1.835845947266-.606822967529-2.799987792969-.67799949646-.686492919922-.038404464722-1.373474121094.066837310791-2.016998291016.309000015259-.551300048828.201894760132-1.047088623047.531169891357-1.446990966797.961000442505-.356231689453.386840820312-.551177978516.895164489746-.545013427734,1.420999526978-.05859375.782693862915.27294921875,1.543859481812.885986328125,2.034000396729.705657958984.549724578857,1.5126953125.955102920532,2.375,1.192998886108.964660644531.289999008179,1.92431640625.602998733521,2.878997802734.938999176025,1.221923828125.368733406067,2.385955810547.907332420349,3.4580078125,1.60000038147.957977294922.61668586731,1.764923095703,1.44105052948,2.360992431641,2.411999702454.607330322266,1.072568893433.906341552734,2.292148590088.864013671875,3.524000167847.008331298828,1.578718662262-.401947021484,3.131437778473-1.188995361328,4.5-.843444824219,1.439559459686-2.086334228516,2.603583216667-3.578002929688,3.351000070572-1.889923095703.906688168645-3.972351074219,1.339164435863-6.067016601562,1.260000526905Zm49.713989257812.132000029087c-2.351928710938.035477757454-4.668823242188-.572787046432-6.700012207031-1.758999943733-2.005706787109-1.20028424263-3.629852294922-2.944777488708-4.683990478516-5.031000137329-1.1875-2.373223781586-1.776306152344-5.000962734222-1.714996337891-7.65399980545-.077392578125-2.658876419067.555694580078-5.290288925171,1.834014892578-7.622999191284,1.169525146484-2.058919906616,2.908905029297-3.736154556274,5.009002685547-4.829999923706,2.210052490234-1.131732940674,4.664337158203-1.703147888184,7.147003173828-1.663999557495,1.912475585938-.005725860596,3.806274414062.376298904419,5.566986083984,1.122999191284,1.670867919922.672494888306,3.133087158203,1.776828765869,4.236999511719,3.200000762939l-.151000976562,2.357000350952V-.13555393219h7.023010253906v49.19999819994h-7.085998535156v-6.02100020647l.674011230469,1.739999771118c-1.367980957031,1.45577287674-2.984619140625,2.655897736549-4.774017333984,3.544000446796-1.983978271484.972333967686-4.170928955078,1.458398997784-6.380004882812,1.417999982834l-.001007080078.000000059605Zm2.256988525391-5.982999920845c1.2734375.02249956131,2.538024902344-.215715885162,3.716003417969-.699999809265,1.058258056641-.446569919586,2.005310058594-1.120499610901,2.773986816406-1.973999977112.781402587891-.882059574127,1.370880126953-1.916963100433,1.730987548828-3.039000034332v-5.667000770569c-.309143066406-1.101444244385-.881591796875-2.111145019531-1.667999267578-2.941999435425-.805908203125-.846168518066-1.781097412109-1.512992858887-2.861999511719-1.957000732422-1.170837402344-.480657577515-2.426422119141-.72075843811-3.691986083984-.70599937439-1.435150146484-.011882781982-2.847229003906.361421585083-4.088989257812,1.08099937439-1.238861083984.713665008545-2.269866943359,1.738473892212-2.990997314453,2.972999572754-.764862060547,1.324811935425-1.152862548828,2.833562850952-1.122009277344,4.362999916077-.021484375,1.527383804321.365905761719,3.03272151947,1.122009277344,4.359999656677.718597412109,1.266706466675,1.751922607422,2.326541900635,3,3.076999664307,1.2294921875.748158931732,2.642822265625,1.139741420746,4.08203125,1.13100194931h-.001037597656Zm37.734039306641,5.98299986124c-2.786376953125.07891112566-5.547027587891-.552572727203-8.022003173828-1.835000097752-2.157409667969-1.156118631363-3.934967041016-2.910769462585-5.118988037109-5.052999973297-1.215698242188-2.260101318359-1.829071044922-4.795129776001-1.781005859375-7.361000061035-.030731201172-2.551361083984.674011230469-5.057584762573,2.029998779297-7.218999862671,1.349975585938-2.148887634277,3.223083496094-3.920143127441,5.444000244141-5.147998809814,2.322570800781-1.291757583618,4.942596435547-1.953657150269,7.600006103516-1.920000076294,3.307434082031-.121826171875,6.538116455078,1.014499664307,9.041015625,3.180000305176,2.526519775391,2.38995552063,4.199066162109,5.542886734009,4.760986328125,8.97500038147l-21.475006103516,7.262998580933-1.631988525391-4,16.777008056641-5.971000671387-1.468994140625.839000701904c-.453369140625-1.274559020996-1.221069335938-2.414083480835-2.231994628906-3.312999725342-1.207397460938-.998134613037-2.748199462891-1.501609802246-4.31201171875-1.409000396729-1.385559082031-.025400161743-2.750152587891.340620040894-3.93701171875,1.055999755859-1.147705078125.706190109253-2.074981689453,1.719367980957-2.677001953125,2.924999237061-.663116455078,1.351314544678-.992004394531,2.842115402222-.959014892578,4.34700012207-.040405273438,1.588722229004.320739746094,3.161951065063,1.049987792969,4.573999404907.663482666016,1.250281333923,1.669403076172,2.285685539246,2.899993896484,2.984999656677,1.272125244141.712504386902,2.710113525391,1.075793743134,4.167999267578,1.052999973297,1.069274902344.002080440521,2.129608154297-.194592475891,3.127014160156-.579999923706,1.010070800781-.388738155365,1.971252441406-.894164562225,2.864013671875-1.50599861145l3.191009521484,5.232999801636c-1.424194335938.884615421295-2.953369140625,1.587733209133-4.552001953125,2.09299993515-1.544464111328.511250436306-3.159210205078.778462409973-4.786010742188.792000353336Z"/>
  </g>
</svg>