<?xml version="1.0" encoding="UTF-8"?>
<svg xmlns="http://www.w3.org/2000/svg" xmlns:xlink="http://www.w3.org/1999/xlink" width="460px" height="305px" viewBox="0 0 459 305" version="1.1">
<g id="surface1">
<path style=" stroke:none;fill-rule:nonzero;fill:rgb(91.764706%,71.372549%,46.666667%);fill-opacity:1;" d="M 130.234375 7.21875 L 130.050781 134.941406 L 109.105469 134.917969 L 109.273438 23.058594 L 75.835938 23.03125 L 75.863281 7.160156 Z M 130.234375 7.21875 "/>
<path style=" stroke:none;fill-rule:nonzero;fill:rgb(91.764706%,71.372549%,46.666667%);fill-opacity:1;" d="M 154.289062 67.636719 C 154.34375 24.816406 177.964844 0.429688 209.664062 0.464844 C 241.179688 0.507812 264.734375 24.957031 264.679688 67.769531 C 264.628906 110.578125 241.007812 134.984375 209.488281 134.945312 C 177.78125 134.90625 154.230469 110.453125 154.289062 67.636719 M 245.34375 67.746094 C 245.390625 34.132812 230.71875 17.214844 209.648438 17.1875 C 188.378906 17.164062 173.664062 34.042969 173.621094 67.65625 C 173.574219 101.273438 188.242188 118.203125 209.511719 118.222656 C 218.921875 118.40625 227.917969 114.367188 234.035156 107.210938 C 240.855469 99.671875 245.316406 86.242188 245.34375 67.746094 "/>
<path style=" stroke:none;fill-rule:nonzero;fill:rgb(91.764706%,71.372549%,46.666667%);fill-opacity:1;" d="M 272.773438 67.636719 C 272.828125 24.816406 296.449219 0.429688 328.148438 0.464844 C 359.664062 0.507812 383.21875 24.957031 383.164062 67.769531 C 383.113281 110.578125 359.492188 134.984375 327.972656 134.945312 C 296.265625 134.90625 272.714844 110.453125 272.773438 67.636719 M 363.828125 67.746094 C 363.875 34.132812 349.203125 17.214844 328.128906 17.1875 C 306.863281 17.164062 292.148438 34.042969 292.105469 67.65625 C 292.058594 101.273438 306.726562 118.203125 327.996094 118.222656 C 349.066406 118.253906 363.785156 101.378906 363.828125 67.746094 "/>
<path style=" stroke:none;fill-rule:nonzero;fill:rgb(98.039216%,78.039216%,55.294118%);fill-opacity:1;" d="M 33.8125 299.539062 C 33.046875 300.109375 32.230469 300.601562 31.375 301.019531 C 29.984375 301.71875 28.523438 302.269531 27.015625 302.664062 C 25.15625 303.15625 23.234375 303.378906 21.3125 303.324219 C 18.386719 303.304688 15.492188 302.714844 12.785156 301.59375 C 10.378906 300.585938 8.214844 299.082031 6.425781 297.179688 C 4.691406 295.320312 3.339844 293.140625 2.449219 290.757812 C 1.523438 288.285156 1.058594 285.664062 1.078125 283.023438 C 1.046875 280.148438 1.519531 277.289062 2.476562 274.574219 C 3.347656 272.117188 4.710938 269.859375 6.476562 267.941406 C 8.222656 266.070312 10.34375 264.59375 12.699219 263.609375 C 15.238281 262.558594 17.960938 262.039062 20.707031 262.074219 C 23.148438 262.03125 25.574219 262.402344 27.890625 263.171875 C 29.675781 263.761719 31.386719 264.550781 32.992188 265.527344 L 29.863281 273.042969 C 28.71875 272.210938 27.5 271.484375 26.21875 270.875 C 24.582031 270.101562 22.789062 269.714844 20.980469 269.75 C 19.457031 269.746094 17.953125 270.074219 16.566406 270.710938 C 15.152344 271.355469 13.886719 272.277344 12.839844 273.425781 C 11.746094 274.621094 10.882812 276.007812 10.289062 277.515625 C 9.660156 279.128906 9.34375 280.851562 9.363281 282.585938 C 9.34375 284.398438 9.632812 286.195312 10.214844 287.910156 C 10.738281 289.441406 11.566406 290.851562 12.65625 292.050781 C 13.71875 293.203125 15.019531 294.113281 16.464844 294.710938 C 18.0625 295.351562 19.765625 295.667969 21.484375 295.636719 C 23.382812 295.6875 25.269531 295.332031 27.023438 294.59375 C 28.304688 294.0625 29.492188 293.320312 30.535156 292.402344 Z M 39.296875 282.753906 C 39.285156 280.039062 39.824219 277.347656 40.886719 274.851562 C 41.933594 272.390625 43.429688 270.148438 45.304688 268.242188 C 47.175781 266.328125 49.398438 264.792969 51.847656 263.714844 C 54.371094 262.609375 57.097656 262.050781 59.855469 262.070312 C 62.589844 262.054688 65.300781 262.613281 67.808594 263.714844 C 70.273438 264.800781 72.511719 266.335938 74.414062 268.242188 C 76.316406 270.140625 77.84375 272.386719 78.910156 274.855469 C 79.988281 277.347656 80.539062 280.035156 80.527344 282.753906 C 80.546875 285.507812 79.996094 288.234375 78.910156 290.761719 C 77.851562 293.21875 76.324219 295.445312 74.414062 297.316406 C 72.507812 299.191406 70.265625 300.691406 67.804688 301.734375 C 65.289062 302.800781 62.582031 303.34375 59.851562 303.324219 C 57.101562 303.34375 54.375 302.804688 51.84375 301.734375 C 49.394531 300.699219 47.171875 299.199219 45.289062 297.316406 C 43.410156 295.4375 41.910156 293.210938 40.875 290.761719 C 39.8125 288.226562 39.273438 285.503906 39.296875 282.753906 Z M 47.523438 282.753906 C 47.507812 284.472656 47.835938 286.179688 48.484375 287.773438 C 49.109375 289.304688 50.019531 290.699219 51.171875 291.886719 C 52.308594 293.066406 53.667969 294.011719 55.171875 294.664062 C 56.742188 295.332031 58.429688 295.667969 60.136719 295.648438 C 61.785156 295.664062 63.421875 295.328125 64.933594 294.664062 C 66.398438 294.015625 67.714844 293.070312 68.800781 291.886719 C 69.902344 290.683594 70.777344 289.289062 71.378906 287.769531 C 72.003906 286.171875 72.316406 284.464844 72.300781 282.75 C 72.316406 281 71.992188 279.269531 71.34375 277.648438 C 70.730469 276.121094 69.839844 274.71875 68.71875 273.515625 C 67.613281 272.332031 66.277344 271.386719 64.796875 270.738281 C 63.257812 270.074219 61.59375 269.734375 59.914062 269.753906 C 58.238281 269.734375 56.574219 270.074219 55.035156 270.738281 C 53.546875 271.390625 52.203125 272.335938 51.085938 273.515625 C 49.945312 274.710938 49.054688 276.117188 48.453125 277.65625 C 47.824219 279.28125 47.507812 281.011719 47.523438 282.753906 Z M 124.625 304.53125 L 94.019531 276.882812 L 96.375 278.199219 L 96.539062 302.886719 L 88.484375 302.886719 L 88.484375 260.929688 L 88.816406 260.929688 L 118.757812 288.457031 L 117 287.691406 L 116.835938 262.515625 L 124.84375 262.515625 L 124.84375 304.535156 Z M 132.519531 262.511719 L 159.71875 262.511719 L 159.71875 270.183594 L 149.902344 270.183594 L 149.902344 302.878906 L 141.949219 302.878906 L 141.949219 270.183594 L 132.515625 270.183594 Z M 159.554688 302.886719 L 177.761719 260.929688 L 178.199219 260.929688 L 196.40625 302.894531 L 187.191406 302.894531 L 175.566406 273.371094 L 181.324219 269.421875 L 167.394531 302.886719 Z M 172.003906 288.292969 L 184.121094 288.292969 L 186.917969 294.988281 L 169.53125 294.988281 Z M 214.117188 262.511719 C 217.644531 262.328125 221.144531 263.21875 224.15625 265.0625 C 226.640625 266.761719 228.054688 269.640625 227.882812 272.652344 C 227.964844 274.871094 227.320312 277.058594 226.046875 278.878906 C 224.777344 280.578125 223.042969 281.871094 221.054688 282.609375 C 218.746094 283.46875 216.300781 283.886719 213.839844 283.84375 L 212.578125 279.5625 C 215.585938 279.511719 218.582031 279.976562 221.433594 280.933594 C 223.773438 281.695312 225.878906 283.046875 227.546875 284.855469 C 229.039062 286.539062 229.84375 288.71875 229.796875 290.964844 C 229.855469 292.890625 229.453125 294.796875 228.621094 296.53125 C 227.875 298 226.785156 299.265625 225.4375 300.210938 C 224.066406 301.160156 222.535156 301.851562 220.914062 302.246094 C 219.210938 302.667969 217.460938 302.878906 215.703125 302.875 L 202.273438 302.875 L 202.273438 262.507812 Z M 215.042969 279.023438 C 216.367188 279.128906 217.660156 278.601562 218.527344 277.597656 C 219.265625 276.679688 219.660156 275.535156 219.652344 274.359375 C 219.734375 273.148438 219.207031 271.976562 218.253906 271.234375 C 217.148438 270.488281 215.828125 270.121094 214.496094 270.191406 L 210.21875 270.191406 L 210.21875 279.023438 Z M 215.316406 295.480469 C 216.394531 295.496094 217.46875 295.339844 218.5 295.015625 C 219.378906 294.753906 220.160156 294.238281 220.746094 293.535156 C 221.3125 292.808594 221.605469 291.902344 221.570312 290.984375 C 221.640625 289.996094 221.28125 289.027344 220.582031 288.324219 C 219.859375 287.6875 218.980469 287.25 218.03125 287.0625 C 216.960938 286.820312 215.867188 286.699219 214.769531 286.703125 L 210.21875 286.703125 L 210.21875 295.480469 Z M 237.746094 262.511719 L 245.699219 262.511719 L 245.699219 302.886719 L 237.746094 302.886719 Z M 256.117188 262.511719 L 264.070312 262.511719 L 264.070312 295.207031 L 283.046875 295.207031 L 283.046875 302.886719 L 256.121094 302.886719 Z M 291.257812 262.511719 L 299.210938 262.511719 L 299.210938 302.886719 L 291.257812 302.886719 Z M 309.628906 302.886719 L 309.628906 262.507812 L 321.703125 262.507812 C 325.238281 262.417969 328.761719 263.03125 332.058594 264.320312 C 334.695312 265.375 337.050781 267.027344 338.941406 269.148438 C 340.652344 271.117188 341.949219 273.410156 342.753906 275.894531 C 343.546875 278.320312 343.953125 280.855469 343.960938 283.410156 C 344.003906 286.191406 343.453125 288.949219 342.339844 291.5 C 341.308594 293.832031 339.804688 295.921875 337.925781 297.644531 C 336.042969 299.351562 333.84375 300.671875 331.453125 301.53125 C 328.957031 302.433594 326.320312 302.890625 323.664062 302.875 Z M 317.582031 295.207031 L 322.296875 295.207031 C 324.15625 295.230469 326.003906 294.960938 327.78125 294.410156 C 329.339844 293.929688 330.789062 293.136719 332.035156 292.078125 C 333.242188 291.027344 334.183594 289.703125 334.777344 288.210938 C 335.445312 286.507812 335.769531 284.691406 335.734375 282.863281 C 335.820312 280.640625 335.378906 278.433594 334.441406 276.417969 C 333.699219 274.894531 332.609375 273.570312 331.261719 272.550781 C 330.101562 271.6875 328.789062 271.042969 327.394531 270.660156 C 326.304688 270.34375 325.179688 270.171875 324.046875 270.136719 L 317.574219 270.136719 Z M 344.636719 302.886719 L 362.835938 260.929688 L 363.273438 260.929688 L 381.480469 302.894531 L 372.265625 302.894531 L 360.644531 273.378906 L 366.402344 269.429688 L 352.472656 302.894531 Z M 357.085938 288.292969 L 369.203125 288.292969 L 372 294.988281 L 354.613281 294.988281 Z M 387.355469 302.886719 L 387.355469 262.507812 L 399.417969 262.507812 C 402.957031 262.417969 406.480469 263.03125 409.777344 264.320312 C 412.414062 265.375 414.769531 267.027344 416.660156 269.148438 C 418.371094 271.117188 419.667969 273.410156 420.472656 275.894531 C 421.265625 278.320312 421.671875 280.855469 421.675781 283.410156 C 421.722656 286.191406 421.167969 288.949219 420.058594 291.5 C 419.027344 293.832031 417.523438 295.921875 415.644531 297.644531 C 413.761719 299.351562 411.5625 300.671875 409.171875 301.53125 C 406.675781 302.433594 404.039062 302.890625 401.382812 302.875 Z M 395.308594 295.207031 L 400.023438 295.207031 C 401.882812 295.226562 403.734375 294.960938 405.507812 294.410156 C 407.070312 293.925781 408.515625 293.132812 409.761719 292.078125 C 410.96875 291.023438 411.910156 289.699219 412.503906 288.210938 C 413.171875 286.507812 413.496094 284.691406 413.464844 282.859375 C 413.546875 280.640625 413.105469 278.429688 412.167969 276.417969 C 411.425781 274.894531 410.335938 273.570312 408.988281 272.550781 C 407.828125 271.683594 406.515625 271.042969 405.121094 270.65625 C 404.03125 270.34375 402.910156 270.167969 401.777344 270.136719 L 395.300781 270.136719 Z M 429.636719 262.507812 L 457.164062 262.507812 L 457.164062 270.183594 L 437.578125 270.183594 L 437.578125 278.796875 L 454.90625 278.796875 L 454.90625 286.476562 L 437.578125 286.476562 L 437.578125 295.199219 L 457.921875 295.199219 L 457.921875 302.878906 L 429.625 302.878906 Z M 429.636719 262.507812 "/>
<path style=" stroke:none;fill-rule:nonzero;fill:rgb(100%,100%,100%);fill-opacity:1;" d="M 94.449219 227.375 C 93.542969 227.996094 92.589844 228.542969 91.597656 229.011719 C 90.132812 229.714844 88.601562 230.265625 87.023438 230.65625 C 85.117188 231.132812 83.15625 231.347656 81.191406 231.304688 C 78.011719 231.300781 74.859375 230.671875 71.921875 229.453125 C 69.285156 228.34375 66.910156 226.695312 64.945312 224.617188 C 63.035156 222.582031 61.542969 220.191406 60.550781 217.582031 C 59.523438 214.875 59.007812 211.996094 59.027344 209.097656 C 58.992188 205.96875 59.523438 202.863281 60.597656 199.925781 C 61.589844 197.226562 63.113281 194.757812 65.078125 192.660156 C 67.015625 190.605469 69.363281 188.972656 71.964844 187.871094 C 74.742188 186.71875 77.722656 186.140625 80.726562 186.175781 C 83.257812 186.140625 85.78125 186.519531 88.191406 187.296875 C 90.140625 187.925781 92.007812 188.773438 93.757812 189.832031 L 90.957031 196.464844 C 89.621094 195.546875 88.195312 194.757812 86.703125 194.117188 C 84.890625 193.332031 82.933594 192.945312 80.960938 192.972656 C 79.039062 192.96875 77.132812 193.375 75.378906 194.164062 C 73.613281 194.949219 72.019531 196.085938 70.695312 197.496094 C 69.332031 198.953125 68.25 200.652344 67.511719 202.507812 C 66.726562 204.480469 66.335938 206.585938 66.355469 208.707031 C 66.332031 210.859375 66.6875 212.996094 67.402344 215.027344 C 68.058594 216.886719 69.082031 218.597656 70.417969 220.050781 C 71.738281 221.46875 73.351562 222.589844 75.140625 223.335938 C 77.105469 224.140625 79.210938 224.535156 81.332031 224.503906 C 83.390625 224.550781 85.4375 224.183594 87.355469 223.433594 C 88.839844 222.855469 90.226562 222.058594 91.480469 221.074219 Z M 100.347656 217.710938 C 100.3125 215.257812 100.949219 212.84375 102.183594 210.726562 C 103.410156 208.65625 105.183594 206.960938 107.304688 205.828125 C 109.609375 204.601562 112.1875 203.984375 114.796875 204.03125 C 117.398438 203.972656 119.96875 204.589844 122.257812 205.828125 C 124.328125 206.96875 126.035156 208.664062 127.1875 210.726562 C 128.367188 212.859375 128.96875 215.265625 128.929688 217.703125 C 128.96875 220.152344 128.367188 222.570312 127.1875 224.71875 C 126.035156 226.792969 124.324219 228.503906 122.25 229.660156 C 119.933594 230.914062 117.332031 231.542969 114.703125 231.476562 C 112.140625 231.523438 109.605469 230.949219 107.3125 229.808594 C 105.191406 228.738281 103.417969 227.085938 102.203125 225.046875 C 100.921875 222.816406 100.28125 220.277344 100.347656 217.710938 Z M 107.191406 217.769531 C 107.171875 219.207031 107.507812 220.625 108.171875 221.898438 C 108.789062 223.089844 109.707031 224.097656 110.832031 224.828125 C 111.957031 225.546875 113.265625 225.921875 114.601562 225.90625 C 115.980469 225.9375 117.335938 225.5625 118.5 224.828125 C 119.625 224.109375 120.53125 223.097656 121.128906 221.902344 C 121.769531 220.621094 122.09375 219.203125 122.070312 217.769531 C 122.09375 216.332031 121.773438 214.910156 121.128906 213.625 C 120.527344 212.433594 119.621094 211.425781 118.503906 210.703125 C 117.34375 209.96875 115.992188 209.589844 114.621094 209.613281 C 113.269531 209.597656 111.949219 209.984375 110.820312 210.726562 C 109.699219 211.464844 108.785156 212.476562 108.164062 213.667969 C 107.503906 214.933594 107.167969 216.34375 107.1875 217.769531 Z M 142.273438 205.15625 L 142.828125 210.710938 L 142.644531 209.96875 C 143.503906 208.1875 144.871094 206.695312 146.574219 205.683594 C 148.480469 204.566406 150.65625 204.003906 152.863281 204.0625 C 155.066406 203.984375 157.214844 204.75 158.871094 206.203125 C 160.453125 207.613281 161.34375 209.640625 161.3125 211.757812 L 161.3125 230.820312 L 154.5 230.820312 L 154.5 214.203125 C 154.511719 213.066406 154.125 211.964844 153.40625 211.085938 C 152.546875 210.214844 151.347656 209.773438 150.128906 209.867188 C 148.792969 209.855469 147.492188 210.292969 146.429688 211.105469 C 145.292969 211.988281 144.410156 213.15625 143.867188 214.488281 C 143.226562 216.0625 142.910156 217.75 142.945312 219.449219 L 142.945312 230.816406 L 136.148438 230.816406 L 136.148438 205.15625 Z M 191.898438 228.472656 C 190.644531 229.445312 189.226562 230.1875 187.710938 230.660156 C 186.125 231.191406 184.464844 231.46875 182.792969 231.472656 C 180.203125 231.53125 177.636719 230.964844 175.308594 229.824219 C 173.230469 228.78125 171.496094 227.160156 170.316406 225.152344 C 169.082031 222.960938 168.464844 220.472656 168.53125 217.957031 C 168.464844 215.425781 169.125 212.925781 170.441406 210.761719 C 171.667969 208.789062 173.402344 207.183594 175.464844 206.113281 C 177.503906 205.035156 179.777344 204.476562 182.085938 204.484375 C 184.035156 204.449219 185.972656 204.753906 187.820312 205.382812 C 189.375 205.925781 190.820312 206.738281 192.089844 207.789062 L 188.75 212.191406 C 187.972656 211.597656 187.125 211.105469 186.222656 210.726562 C 185.109375 210.25 183.90625 210.015625 182.691406 210.035156 C 181.382812 210.023438 180.097656 210.382812 178.980469 211.074219 C 177.859375 211.761719 176.9375 212.734375 176.308594 213.894531 C 175.632812 215.144531 175.292969 216.546875 175.320312 217.964844 C 175.308594 219.367188 175.664062 220.746094 176.347656 221.96875 C 177.015625 223.167969 177.996094 224.164062 179.183594 224.855469 C 180.453125 225.578125 181.894531 225.941406 183.355469 225.914062 C 184.3125 225.921875 185.265625 225.769531 186.175781 225.464844 C 187 225.1875 187.773438 224.765625 188.449219 224.214844 Z M 211.078125 231.472656 C 208.398438 231.550781 205.746094 230.941406 203.367188 229.710938 C 201.292969 228.597656 199.582031 226.910156 198.445312 224.851562 C 197.277344 222.675781 196.6875 220.238281 196.730469 217.773438 C 196.703125 215.316406 197.382812 212.90625 198.6875 210.824219 C 199.984375 208.757812 201.785156 207.054688 203.921875 205.875 C 206.152344 204.628906 208.671875 203.992188 211.230469 204.023438 C 214.410156 203.90625 217.515625 204.996094 219.921875 207.082031 C 222.351562 209.378906 223.957031 212.410156 224.5 215.710938 L 203.84375 222.707031 L 202.273438 218.859375 L 218.402344 213.121094 L 216.988281 213.929688 C 216.554688 212.703125 215.816406 211.605469 214.84375 210.742188 C 213.683594 209.78125 212.203125 209.296875 210.699219 209.386719 C 209.367188 209.363281 208.054688 209.714844 206.914062 210.402344 C 205.8125 211.082031 204.917969 212.058594 204.339844 213.21875 C 203.703125 214.515625 203.386719 215.949219 203.414062 217.398438 C 203.378906 218.925781 203.722656 220.4375 204.425781 221.796875 C 205.0625 223 206.03125 223.996094 207.210938 224.667969 C 208.433594 225.351562 209.816406 225.703125 211.21875 225.679688 C 212.246094 225.683594 213.265625 225.496094 214.226562 225.125 C 215.199219 224.75 216.125 224.261719 216.984375 223.667969 L 220.050781 228.703125 C 218.683594 229.554688 217.210938 230.230469 215.675781 230.714844 C 214.191406 231.203125 212.640625 231.460938 211.078125 231.472656 Z M 231.179688 205.171875 L 237.96875 205.171875 L 237.96875 230.816406 L 231.175781 230.816406 Z M 230.871094 195.953125 C 230.851562 194.9375 231.3125 193.972656 232.113281 193.347656 C 232.859375 192.691406 233.816406 192.324219 234.808594 192.316406 C 235.777344 192.316406 236.707031 192.683594 237.414062 193.347656 C 238.167969 194 238.589844 194.957031 238.566406 195.953125 C 238.59375 196.945312 238.171875 197.890625 237.414062 198.53125 C 236.699219 199.175781 235.773438 199.535156 234.808594 199.53125 C 233.816406 199.519531 232.859375 199.15625 232.113281 198.5 C 231.324219 197.890625 230.863281 196.949219 230.871094 195.953125 Z M 249.769531 193.882812 L 256.578125 193.882812 L 256.578125 205.171875 L 263.277344 205.171875 L 263.277344 210.488281 L 256.578125 210.488281 L 256.578125 230.816406 L 249.773438 230.816406 L 249.773438 210.480469 L 245.378906 210.480469 L 245.378906 205.164062 L 249.773438 205.164062 Z M 267.816406 217.710938 C 267.78125 215.257812 268.417969 212.84375 269.652344 210.726562 C 270.878906 208.652344 272.652344 206.957031 274.773438 205.824219 C 277.078125 204.601562 279.65625 203.984375 282.265625 204.03125 C 284.867188 203.96875 287.441406 204.589844 289.730469 205.824219 C 291.796875 206.964844 293.503906 208.664062 294.660156 210.726562 C 295.835938 212.859375 296.4375 215.261719 296.402344 217.699219 C 296.4375 220.148438 295.835938 222.566406 294.660156 224.714844 C 293.503906 226.792969 291.792969 228.503906 289.71875 229.65625 C 287.40625 230.914062 284.804688 231.539062 282.171875 231.472656 C 279.613281 231.519531 277.078125 230.949219 274.785156 229.808594 C 272.664062 228.738281 270.890625 227.085938 269.671875 225.042969 C 268.394531 222.816406 267.75 220.277344 267.820312 217.710938 Z M 274.660156 217.769531 C 274.640625 219.207031 274.976562 220.625 275.640625 221.898438 C 276.261719 223.089844 277.183594 224.101562 278.3125 224.828125 C 279.4375 225.546875 280.75 225.921875 282.085938 225.90625 C 283.460938 225.9375 284.816406 225.5625 285.984375 224.828125 C 287.105469 224.109375 288.015625 223.097656 288.609375 221.902344 C 289.25 220.621094 289.574219 219.203125 289.554688 217.769531 C 289.578125 216.332031 289.253906 214.910156 288.609375 213.625 C 288.007812 212.433594 287.105469 211.425781 285.984375 210.703125 C 284.824219 209.96875 283.472656 209.589844 282.101562 209.613281 C 280.753906 209.597656 279.429688 209.984375 278.300781 210.726562 C 277.179688 211.464844 276.265625 212.476562 275.644531 213.667969 C 274.980469 214.933594 274.640625 216.34375 274.65625 217.769531 Z M 311.320312 231.347656 C 309.421875 231.351562 307.539062 231 305.773438 230.3125 C 304.085938 229.675781 302.570312 228.652344 301.347656 227.324219 L 304.210938 223.492188 C 305.203125 224.460938 306.347656 225.261719 307.597656 225.863281 C 308.585938 226.339844 309.667969 226.597656 310.765625 226.621094 C 311.46875 226.628906 312.167969 226.539062 312.847656 226.355469 C 313.425781 226.207031 313.953125 225.90625 314.371094 225.480469 C 314.765625 225.039062 314.972656 224.460938 314.945312 223.871094 C 314.980469 223.128906 314.664062 222.414062 314.089844 221.941406 C 313.441406 221.433594 312.703125 221.042969 311.917969 220.796875 C 311.039062 220.496094 310.101562 220.199219 309.109375 219.90625 C 307.195312 219.390625 305.476562 218.332031 304.15625 216.859375 C 303.082031 215.5625 302.507812 213.929688 302.53125 212.246094 C 302.539062 210.898438 302.890625 209.578125 303.554688 208.40625 C 304.296875 207.109375 305.386719 206.050781 306.699219 205.347656 C 308.34375 204.492188 310.179688 204.078125 312.03125 204.144531 C 313.742188 204.117188 315.445312 204.335938 317.09375 204.792969 C 318.574219 205.246094 319.957031 205.972656 321.164062 206.941406 L 318.53125 211.015625 C 317.785156 210.3125 316.910156 209.761719 315.957031 209.386719 C 315.101562 209.023438 314.191406 208.804688 313.265625 208.734375 C 312.605469 208.699219 311.945312 208.800781 311.328125 209.03125 C 310.796875 209.226562 310.320312 209.542969 309.933594 209.957031 C 309.59375 210.328125 309.40625 210.816406 309.410156 211.324219 C 309.355469 212.078125 309.671875 212.808594 310.261719 213.28125 C 310.941406 213.808594 311.71875 214.199219 312.546875 214.429688 C 313.476562 214.707031 314.402344 215.007812 315.324219 215.332031 C 316.5 215.6875 317.621094 216.203125 318.652344 216.867188 C 319.574219 217.460938 320.347656 218.253906 320.921875 219.1875 C 321.503906 220.21875 321.792969 221.394531 321.753906 222.578125 C 321.757812 224.09375 321.363281 225.585938 320.609375 226.898438 C 319.796875 228.285156 318.601562 229.402344 317.167969 230.121094 C 315.347656 231 313.335938 231.421875 311.316406 231.347656 Z M 359.117188 231.472656 C 356.855469 231.507812 354.628906 230.921875 352.671875 229.78125 C 350.746094 228.628906 349.183594 226.949219 348.171875 224.941406 C 347.027344 222.660156 346.460938 220.132812 346.523438 217.582031 C 346.449219 215.023438 347.054688 212.496094 348.285156 210.25 C 349.40625 208.273438 351.078125 206.660156 353.09375 205.605469 C 355.21875 204.519531 357.578125 203.96875 359.964844 204.007812 C 361.804688 204 363.625 204.367188 365.316406 205.085938 C 366.921875 205.734375 368.328125 206.796875 369.386719 208.164062 L 369.242188 210.433594 L 369.242188 183.507812 L 375.996094 183.507812 L 375.996094 230.816406 L 369.183594 230.816406 L 369.183594 225.027344 L 369.832031 226.691406 C 368.515625 228.09375 366.960938 229.246094 365.242188 230.101562 C 363.335938 231.039062 361.234375 231.507812 359.113281 231.472656 Z M 361.289062 225.722656 C 362.511719 225.742188 363.726562 225.511719 364.859375 225.046875 C 365.878906 224.617188 366.789062 223.96875 367.527344 223.148438 C 368.277344 222.300781 368.847656 221.304688 369.191406 220.226562 L 369.191406 214.777344 C 368.894531 213.714844 368.34375 212.746094 367.589844 211.945312 C 366.8125 211.132812 365.875 210.492188 364.835938 210.066406 C 363.710938 209.601562 362.503906 209.371094 361.289062 209.386719 C 359.90625 209.375 358.550781 209.734375 357.355469 210.425781 C 356.164062 211.113281 355.175781 212.097656 354.480469 213.285156 C 353.746094 214.558594 353.371094 216.007812 353.402344 217.480469 C 353.382812 218.949219 353.753906 220.394531 354.480469 221.671875 C 355.171875 222.890625 356.164062 223.910156 357.367188 224.632812 C 358.546875 225.351562 359.902344 225.726562 361.28125 225.722656 Z M 397.566406 231.472656 C 394.886719 231.550781 392.230469 230.941406 389.851562 229.710938 C 387.777344 228.597656 386.070312 226.910156 384.929688 224.851562 C 383.761719 222.675781 383.171875 220.238281 383.21875 217.773438 C 383.1875 215.320312 383.867188 212.90625 385.167969 210.828125 C 386.46875 208.761719 388.269531 207.058594 390.402344 205.878906 C 392.636719 204.632812 395.15625 203.996094 397.710938 204.027344 C 400.890625 203.910156 403.996094 205 406.402344 207.085938 C 408.832031 209.382812 410.441406 212.414062 410.980469 215.714844 L 390.335938 222.703125 L 388.765625 218.855469 L 404.894531 213.117188 L 403.484375 213.925781 C 403.046875 212.699219 402.308594 211.601562 401.339844 210.738281 C 400.175781 209.777344 398.695312 209.292969 397.191406 209.382812 C 395.859375 209.359375 394.546875 209.710938 393.40625 210.398438 C 392.304688 211.078125 391.414062 212.054688 390.835938 213.214844 C 390.195312 214.511719 389.878906 215.945312 389.910156 217.394531 C 389.871094 218.921875 390.21875 220.433594 390.917969 221.792969 C 391.558594 222.996094 392.523438 223.992188 393.703125 224.664062 C 394.929688 225.347656 396.308594 225.699219 397.710938 225.675781 C 398.738281 225.679688 399.757812 225.492188 400.71875 225.121094 C 401.691406 224.746094 402.617188 224.257812 403.476562 223.667969 L 406.542969 228.699219 C 405.175781 229.550781 403.707031 230.226562 402.167969 230.710938 C 400.679688 231.203125 399.125 231.460938 397.558594 231.472656 Z M 397.566406 231.472656 "/>
</g>
</svg>
